<ttFont>
<head>
    <!-- Most of this table will be recalculated by the compiler -->
    <tableVersion value="1.0"/>
    <fontRevision value="1.0"/>
    <checkSumAdjustment value="0xdd3f9bf3"/>
    <magicNumber value="0x5f0f3cf5"/>
    <flags value="00000000 00001011"/>
    <unitsPerEm value="2048"/>
    <created value="Tue Jul 16 13:36:10 2013"/>
    <modified value="Tue May 26 19:01:01 2015"/>
    <xMin value="-1083"/>
    <yMin value="-806"/>
    <xMax value="3137"/>
    <yMax value="1836"/>
    <macStyle value="00000000 00000000"/>
    <lowestRecPPEM value="9"/>
    <fontDirectionHint value="2"/>
    <indexToLocFormat value="0"/>
    <glyphDataFormat value="0"/>
  </head>
    <TTGlyph name="asciicircum" xMin="60" yMin="549" xMax="1068" yMax="1473">
      <contour>
        <pt x="60" y="549" on="1"/>
        <pt x="519" y="1473" on="1"/>
        <pt x="621" y="1473" on="1"/>
        <pt x="1068" y="549" on="1"/>
        <pt x="907" y="549" on="1"/>
        <pt x="570" y="1284" on="1"/>
        <pt x="221" y="549" on="1"/>
      </contour>
    </TTGlyph>
    <TTGlyph name="asciitilde" xMin="102" yMin="525" xMax="1026" yMax="1274">
      <contour>
        <pt x="102" y="525" on="1"/>
        <pt x="102" y="687" on="1"/>
        <pt x="202" y="795" on="0"/>
        <pt x="350" y="795" on="1"/>
        <pt x="404" y="795" on="0"/>
        <pt x="495" y="776" on="0"/>
        <pt x="598" y="732" on="1"/>
        <pt x="678" y="698" on="0"/>
        <pt x="754" y="676" on="0"/>
        <pt x="799" y="676" on="1"/>
        <pt x="850" y="676" on="0"/>
        <pt x="972" y="741" on="0"/>
        <pt x="1026" y="797" on="1"/>
        <pt x="1026" y="635" on="1"/>
        <pt x="927" y="527" on="0"/>
        <pt x="778" y="527" on="1"/>
        <pt x="719" y="527" on="0"/>
        <pt x="623" y="550" on="0"/>
        <pt x="530" y="590" on="1"/>
        <pt x="449" y="625" on="0"/>
        <pt x="376" y="646" on="0"/>
        <pt x="330" y="646" on="1"/>
        <pt x="280" y="646" on="0"/>
        <pt x="161" y="583" on="0"/>
      </contour>
      <contour>
        <pt x="453" y="1274" on="1"/>
      </contour>
    </TTGlyph>
    <TTGlyph name="asterisk" xMin="150" yMin="600" xMax="1112" yMax="1836">
      <contour>
        <pt x="732" y="1525" on="1"/>
        <pt x="689" y="1132" on="1"/>
        <pt x="1086" y="1243" on="1"/>
        <pt x="1112" y="1050" on="1"/>
        <pt x="734" y="1022" on="1"/>
        <pt x="979" y="696" on="1"/>
        <pt x="801" y="600" on="1"/>
        <pt x="625" y="958" on="1"/>
        <pt x="467" y="600" on="1"/>
        <pt x="283" y="696" on="1"/>
        <pt x="525" y="1022" on="1"/>
        <pt x="150" y="1050" on="1"/>
        <pt x="179" y="1243" on="1"/>
        <pt x="570" y="1132" on="1"/>
        <pt x="527" y="1525" on="1"/>
      </contour>
      <contour>
        <pt x="453" y="1274" on="1"/>
      </contour>
      <contour>
        <pt x="448" y="1836" on="1"/>
      </contour>
    </TTGlyph>
    <TTGlyph name="backslash" xMin="86" yMin="-548" xMax="793" yMax="1836">
      <contour>
        <pt x="254" y="1703" on="1"/>
        <pt x="793" y="-339" on="1"/>
        <pt x="625" y="-339" on="1"/>
        <pt x="86" y="1703" on="1"/>
      </contour>
      <contour>
        <pt x="453" y="1274" on="1"/>
      </contour>
      <contour>
        <pt x="448" y="1836" on="1"/>
      </contour>
      <contour>
        <pt x="479" y="-548" on="1"/>
      </contour>
    </TTGlyph>
    <TTGlyph name="bar" xMin="248" yMin="-548" xMax="626" yMax="1836">
      <contour>
        <pt x="479" y="1703" on="1"/>
        <pt x="626" y="1703" on="1"/>
        <pt x="626" y="-339" on="1"/>
        <pt x="479" y="-339" on="1"/>
      </contour>
      <contour>
        <pt x="253" y="1274" on="1"/>
      </contour>
      <contour>
        <pt x="248" y="1836" on="1"/>
      </contour>
      <contour>
        <pt x="479" y="-548" on="1"/>
      </contour>
    </TTGlyph>
    <TTGlyph name="braceleft" xMin="90" yMin="-548" xMax="691" yMax="1836">
      <contour>
        <pt x="507" y="-37" on="1"/>
        <pt x="507" y="-115" on="0"/>
        <pt x="585" y="-190" on="0"/>
        <pt x="691" y="-192" on="1"/>
        <pt x="691" y="-339" on="1"/>
        <pt x="519" y="-336" on="0"/>
        <pt x="341" y="-189" on="0"/>
        <pt x="341" y="-51" on="1"/>
        <pt x="341" y="421" on="1"/>
        <pt x="341" y="522" on="0"/>
        <pt x="212" y="606" on="0"/>
        <pt x="90" y="606" on="1"/>
        <pt x="90" y="758" on="1"/>
        <pt x="212" y="758" on="0"/>
        <pt x="341" y="842" on="0"/>
        <pt x="341" y="943" on="1"/>
        <pt x="341" y="1416" on="1"/>
        <pt x="341" y="1552" on="0"/>
        <pt x="519" y="1700" on="0"/>
        <pt x="691" y="1703" on="1"/>
        <pt x="691" y="1557" on="1"/>
        <pt x="585" y="1555" on="0"/>
        <pt x="507" y="1480" on="0"/>
        <pt x="507" y="1402" on="1"/>
        <pt x="507" y="931" on="1"/>
        <pt x="507" y="728" on="0"/>
        <pt x="291" y="687" on="1"/>
        <pt x="291" y="676" on="1"/>
        <pt x="507" y="635" on="0"/>
        <pt x="507" y="433" on="1"/>
      </contour>
      <contour>
        <pt x="253" y="1274" on="1"/>
      </contour>
      <contour>
        <pt x="248" y="1836" on="1"/>
      </contour>
      <contour>
        <pt x="479" y="-548" on="1"/>
      </contour>
    </TTGlyph>
    <TTGlyph name="braceright" xMin="110" yMin="-548" xMax="711" yMax="1836">
      <contour>
        <pt x="293" y="433" on="1"/>
        <pt x="293" y="635" on="0"/>
        <pt x="510" y="676" on="1"/>
        <pt x="510" y="687" on="1"/>
        <pt x="293" y="728" on="0"/>
        <pt x="293" y="931" on="1"/>
        <pt x="293" y="1402" on="1"/>
        <pt x="293" y="1481" on="0"/>
        <pt x="216" y="1555" on="0"/>
        <pt x="110" y="1557" on="1"/>
        <pt x="110" y="1703" on="1"/>
        <pt x="283" y="1700" on="0"/>
        <pt x="460" y="1552" on="0"/>
        <pt x="460" y="1416" on="1"/>
        <pt x="460" y="943" on="1"/>
        <pt x="460" y="845" on="0"/>
        <pt x="583" y="758" on="0"/>
        <pt x="711" y="758" on="1"/>
        <pt x="711" y="606" on="1"/>
        <pt x="588" y="606" on="0"/>
        <pt x="460" y="522" on="0"/>
        <pt x="460" y="421" on="1"/>
        <pt x="460" y="-51" on="1"/>
        <pt x="460" y="-188" on="0"/>
        <pt x="282" y="-336" on="0"/>
        <pt x="110" y="-339" on="1"/>
        <pt x="110" y="-192" on="1"/>
        <pt x="216" y="-190" on="0"/>
        <pt x="293" y="-116" on="0"/>
        <pt x="293" y="-37" on="1"/>
      </contour>
      <contour>
        <pt x="253" y="1274" on="1"/>
      </contour>
      <contour>
        <pt x="248" y="1836" on="1"/>
      </contour>
      <contour>
        <pt x="479" y="-548" on="1"/>
      </contour>
    </TTGlyph>
    <TTGlyph name="bracketleft" xMin="221" yMin="-548" xMax="618" yMax="1836">
      <contour>
        <pt x="618" y="-339" on="1"/>
        <pt x="221" y="-339" on="1"/>
        <pt x="221" y="1704" on="1"/>
        <pt x="618" y="1704" on="1"/>
        <pt x="618" y="1561" on="1"/>
        <pt x="386" y="1561" on="1"/>
        <pt x="386" y="-196" on="1"/>
        <pt x="618" y="-196" on="1"/>
      </contour>
      <contour>
        <pt x="453" y="1274" on="1"/>
      </contour>
      <contour>
        <pt x="448" y="1836" on="1"/>
      </contour>
      <contour>
        <pt x="479" y="-548" on="1"/>
      </contour>
    </TTGlyph>
    <TTGlyph name="bracketright" xMin="110" yMin="-548" xMax="508" yMax="1836">
      <contour>
        <pt x="110" y="-196" on="1"/>
        <pt x="341" y="-196" on="1"/>
        <pt x="341" y="1560" on="1"/>
        <pt x="110" y="1560" on="1"/>
        <pt x="110" y="1703" on="1"/>
        <pt x="508" y="1703" on="1"/>
        <pt x="508" y="-339" on="1"/>
        <pt x="110" y="-339" on="1"/>
      </contour>
      <contour>
        <pt x="253" y="1274" on="1"/>
      </contour>
      <contour>
        <pt x="248" y="1836" on="1"/>
      </contour>
      <contour>
        <pt x="479" y="-548" on="1"/>
      </contour>
    </TTGlyph>
    <TTGlyph name="colon" xMin="175" yMin="-29" xMax="429" yMax="1274">
      <contour>
        <pt x="302" y="1126" on="1"/>
        <pt x="365" y="1126" on="0"/>
        <pt x="429" y="1054" on="0"/>
        <pt x="429" y="987" on="1"/>
        <pt x="429" y="921" on="0"/>
        <pt x="361" y="848" on="0"/>
        <pt x="302" y="848" on="1"/>
        <pt x="242" y="848" on="0"/>
        <pt x="175" y="921" on="0"/>
        <pt x="175" y="987" on="1"/>
        <pt x="175" y="1054" on="0"/>
        <pt x="238" y="1126" on="0"/>
      </contour>
      <contour>
        <pt x="302" y="250" on="1"/>
        <pt x="363" y="250" on="0"/>
        <pt x="429" y="179" on="0"/>
        <pt x="429" y="111" on="1"/>
        <pt x="429" y="44" on="0"/>
        <pt x="362" y="-29" on="0"/>
        <pt x="302" y="-29" on="1"/>
        <pt x="242" y="-29" on="0"/>
        <pt x="175" y="45" on="0"/>
        <pt x="175" y="111" on="1"/>
        <pt x="175" y="178" on="0"/>
        <pt x="241" y="250" on="0"/>
      </contour>
      <contour>
        <pt x="302" y="1274" on="1"/>
      </contour>
    </TTGlyph>
    <TTGlyph name="comma" xMin="63" yMin="-264" xMax="414" yMax="250">
      <contour>
        <pt x="362" y="238" on="1"/>
        <pt x="377" y="215" on="1"/>
        <pt x="326" y="18" on="0"/>
        <pt x="201" y="-264" on="1"/>
        <pt x="63" y="-264" on="1"/>
        <pt x="130" y="15" on="0"/>
        <pt x="164" y="238" on="1"/>
      </contour>
      <contour>
        <pt x="414" y="250" on="1"/>
      </contour>
      <contour>
        <pt x="414" y="-29" on="1"/>
      </contour>
    </TTGlyph>
    <TTGlyph name="divide" xMin="102" yMin="195" xMax="1026" yMax="1274">
      <contour>
        <pt x="563" y="1143" on="1"/>
        <pt x="618" y="1143" on="0"/>
        <pt x="678" y="1079" on="0"/>
        <pt x="678" y="1018" on="1"/>
        <pt x="678" y="958" on="0"/>
        <pt x="616" y="893" on="0"/>
        <pt x="563" y="893" on="1"/>
        <pt x="509" y="893" on="0"/>
        <pt x="449" y="960" on="0"/>
        <pt x="449" y="1018" on="1"/>
        <pt x="449" y="1079" on="0"/>
        <pt x="508" y="1143" on="0"/>
      </contour>
      <contour>
        <pt x="102" y="585" on="1"/>
        <pt x="102" y="735" on="1"/>
        <pt x="1026" y="735" on="1"/>
        <pt x="1026" y="585" on="1"/>
      </contour>
      <contour>
        <pt x="563" y="445" on="1"/>
        <pt x="618" y="445" on="0"/>
        <pt x="678" y="381" on="0"/>
        <pt x="678" y="320" on="1"/>
        <pt x="678" y="260" on="0"/>
        <pt x="616" y="195" on="0"/>
        <pt x="563" y="195" on="1"/>
        <pt x="509" y="195" on="0"/>
        <pt x="449" y="262" on="0"/>
        <pt x="449" y="320" on="1"/>
        <pt x="449" y="381" on="0"/>
        <pt x="508" y="445" on="0"/>
      </contour>
      <contour>
        <pt x="453" y="1274" on="1"/>
      </contour>
    </TTGlyph>
    <TTGlyph name="eight" xMin="106" yMin="-20" xMax="1024" yMax="1485">
      <contour>
        <pt x="715" y="774" on="1"/>
        <pt x="877" y="688" on="0"/>
        <pt x="1024" y="497" on="0"/>
        <pt x="1024" y="381" on="1"/>
        <pt x="1024" y="200" on="0"/>
        <pt x="772" y="-20" on="0"/>
        <pt x="565" y="-20" on="1"/>
        <pt x="348" y="-20" on="0"/>
        <pt x="106" y="187" on="0"/>
        <pt x="106" y="373" on="1"/>
        <pt x="106" y="501" on="0"/>
        <pt x="247" y="698" on="0"/>
        <pt x="389" y="766" on="1"/>
        <pt x="263" y="845" on="0"/>
        <pt x="154" y="1027" on="0"/>
        <pt x="154" y="1135" on="1"/>
        <pt x="154" y="1296" on="0"/>
        <pt x="387" y="1485" on="0"/>
        <pt x="565" y="1485" on="1"/>
        <pt x="747" y="1485" on="0"/>
        <pt x="977" y="1296" on="0"/>
        <pt x="977" y="1133" on="1"/>
        <pt x="977" y="1019" on="0"/>
        <pt x="851" y="842" on="0"/>
      </contour>
      <contour>
        <pt x="567" y="848" on="1"/>
        <pt x="693" y="905" on="0"/>
        <pt x="799" y="1037" on="0"/>
        <pt x="799" y="1126" on="1"/>
        <pt x="799" y="1227" on="0"/>
        <pt x="673" y="1333" on="0"/>
        <pt x="563" y="1333" on="1"/>
        <pt x="457" y="1333" on="0"/>
        <pt x="332" y="1227" on="0"/>
        <pt x="332" y="1126" on="1"/>
        <pt x="332" y="1036" on="0"/>
        <pt x="431" y="911" on="0"/>
      </contour>
      <contour>
        <pt x="539" y="696" on="1"/>
        <pt x="413" y="636" on="0"/>
        <pt x="285" y="481" on="0"/>
        <pt x="285" y="371" on="1"/>
        <pt x="285" y="255" on="0"/>
        <pt x="428" y="131" on="0"/>
        <pt x="561" y="131" on="1"/>
        <pt x="697" y="131" on="0"/>
        <pt x="846" y="262" on="0"/>
        <pt x="846" y="379" on="1"/>
        <pt x="846" y="469" on="0"/>
        <pt x="720" y="608" on="0"/>
        <pt x="569" y="682" on="1"/>
      </contour>
    </TTGlyph>
    <TTGlyph name="ellipsis" xMin="147" yMin="-29" xMax="1499" yMax="250">
      <contour>
        <pt x="274" y="250" on="1"/>
        <pt x="335" y="250" on="0"/>
        <pt x="401" y="179" on="0"/>
        <pt x="401" y="111" on="1"/>
        <pt x="401" y="44" on="0"/>
        <pt x="334" y="-29" on="0"/>
        <pt x="274" y="-29" on="1"/>
        <pt x="214" y="-29" on="0"/>
        <pt x="147" y="45" on="0"/>
        <pt x="147" y="111" on="1"/>
        <pt x="147" y="178" on="0"/>
        <pt x="213" y="250" on="0"/>
      </contour>
      <contour>
        <pt x="823" y="250" on="1"/>
        <pt x="884" y="250" on="0"/>
        <pt x="950" y="179" on="0"/>
        <pt x="950" y="111" on="1"/>
        <pt x="950" y="44" on="0"/>
        <pt x="883" y="-29" on="0"/>
        <pt x="823" y="-29" on="1"/>
        <pt x="763" y="-29" on="0"/>
        <pt x="696" y="45" on="0"/>
        <pt x="696" y="111" on="1"/>
        <pt x="696" y="178" on="0"/>
        <pt x="762" y="250" on="0"/>
      </contour>
      <contour>
        <pt x="1372" y="250" on="1"/>
        <pt x="1433" y="250" on="0"/>
        <pt x="1499" y="179" on="0"/>
        <pt x="1499" y="111" on="1"/>
        <pt x="1499" y="44" on="0"/>
        <pt x="1432" y="-29" on="0"/>
        <pt x="1372" y="-29" on="1"/>
        <pt x="1318" y="-29" on="0"/>
        <pt x="1245" y="37" on="0"/>
        <pt x="1245" y="111" on="1"/>
        <pt x="1245" y="181" on="0"/>
        <pt x="1312" y="250" on="0"/>
      </contour>
    </TTGlyph>
    <TTGlyph name="emdash" xMin="82" yMin="535" xMax="1966" yMax="1274">
      <contour>
        <pt x="82" y="535" on="1"/>
        <pt x="82" y="703" on="1"/>
        <pt x="1966" y="703" on="1"/>
        <pt x="1966" y="535" on="1"/>
      </contour>
      <contour>
        <pt x="453" y="1274" on="1"/>
      </contour>
    </TTGlyph>
    <TTGlyph name="endash" xMin="82" yMin="535" xMax="942" yMax="1274">
      <contour>
        <pt x="82" y="535" on="1"/>
        <pt x="82" y="703" on="1"/>
        <pt x="942" y="703" on="1"/>
        <pt x="942" y="535" on="1"/>
      </contour>
      <contour>
        <pt x="453" y="1274" on="1"/>
      </contour>
    </TTGlyph>
    <TTGlyph name="equal" xMin="102" yMin="381" xMax="1026" yMax="1274">
      <contour>
        <pt x="102" y="791" on="1"/>
        <pt x="102" y="940" on="1"/>
        <pt x="1026" y="940" on="1"/>
        <pt x="1026" y="791" on="1"/>
      </contour>
      <contour>
        <pt x="102" y="381" on="1"/>
        <pt x="102" y="531" on="1"/>
        <pt x="1026" y="531" on="1"/>
        <pt x="1026" y="381" on="1"/>
      </contour>
      <contour>
        <pt x="453" y="1274" on="1"/>
      </contour>
    </TTGlyph>
    <TTGlyph name="exclam" xMin="299" yMin="-29" xMax="553" yMax="1462">
      <contour>
        <pt x="488" y="414" on="1"/>
        <pt x="367" y="414" on="1"/>
        <pt x="316" y="1462" on="1"/>
        <pt x="539" y="1462" on="1"/>
      </contour>
      <contour>
        <pt x="426" y="250" on="1"/>
        <pt x="487" y="250" on="0"/>
        <pt x="553" y="179" on="0"/>
        <pt x="553" y="111" on="1"/>
        <pt x="553" y="44" on="0"/>
        <pt x="486" y="-29" on="0"/>
        <pt x="426" y="-29" on="1"/>
        <pt x="366" y="-29" on="0"/>
        <pt x="299" y="45" on="0"/>
        <pt x="299" y="111" on="1"/>
        <pt x="299" y="178" on="0"/>
        <pt x="365" y="250" on="0"/>
      </contour>
    </TTGlyph>
    <TTGlyph name="five" xMin="131" yMin="-20" xMax="1014" yMax="1462">
      <contour>
        <pt x="131" y="59" on="1"/>
        <pt x="131" y="231" on="1"/>
        <pt x="196" y="186" on="0"/>
        <pt x="404" y="135" on="0"/>
        <pt x="492" y="135" on="1"/>
        <pt x="659" y="135" on="0"/>
        <pt x="827" y="297" on="0"/>
        <pt x="827" y="449" on="1"/>
        <pt x="827" y="592" on="0"/>
        <pt x="651" y="743" on="0"/>
        <pt x="483" y="743" on="1"/>
        <pt x="394" y="743" on="0"/>
        <pt x="252" y="717" on="1"/>
        <pt x="162" y="774" on="1"/>
        <pt x="217" y="1462" on="1"/>
        <pt x="907" y="1462" on="1"/>
        <pt x="907" y="1296" on="1"/>
        <pt x="375" y="1296" on="1"/>
        <pt x="336" y="877" on="1"/>
        <pt x="443" y="897" on="0"/>
        <pt x="545" y="897" on="1"/>
        <pt x="755" y="897" on="0"/>
        <pt x="1014" y="668" on="0"/>
        <pt x="1014" y="469" on="1"/>
        <pt x="1014" y="235" on="0"/>
        <pt x="738" y="-20" on="0"/>
        <pt x="487" y="-20" on="1"/>
        <pt x="384" y="-20" on="0"/>
        <pt x="196" y="20" on="0"/>
      </contour>
    </TTGlyph>
    <TTGlyph name="four" xMin="23" yMin="0" xMax="1087" yMax="1470">
      <contour>
        <pt x="1087" y="328" on="1"/>
        <pt x="874" y="328" on="1"/>
        <pt x="874" y="0" on="1"/>
        <pt x="698" y="0" on="1"/>
        <pt x="698" y="328" on="1"/>
        <pt x="23" y="328" on="1"/>
        <pt x="23" y="487" on="1"/>
        <pt x="686" y="1470" on="1"/>
        <pt x="874" y="1470" on="1"/>
        <pt x="874" y="494" on="1"/>
        <pt x="1087" y="494" on="1"/>
      </contour>
      <contour>
        <pt x="698" y="494" on="1"/>
        <pt x="698" y="850" on="1"/>
        <pt x="698" y="1003" on="0"/>
        <pt x="708" y="1197" on="1"/>
        <pt x="711" y="1282" on="1"/>
        <pt x="702" y="1282" on="1"/>
        <pt x="685" y="1233" on="0"/>
        <pt x="631" y="1130" on="0"/>
        <pt x="612" y="1102" on="1"/>
        <pt x="201" y="494" on="1"/>
      </contour>
    </TTGlyph>
    <TTGlyph name="glyph00084" xMin="-15" yMin="-555" xMax="1371" yMax="1836">
      <component glyphName="uni0A73" x="0" y="0" flags="0x204"/>
      <component glyphName="uni0A41" x="1362" y="0" flags="0x4"/>
      <component glyphName="uni0A3C" x="770" y="255" flags="0x4"/>
    </TTGlyph>
    <TTGlyph name="glyph00085" xMin="-15" yMin="-806" xMax="1371" yMax="1836">
      <component glyphName="uni0A73" x="0" y="0" flags="0x204"/>
      <component glyphName="uni0A42" x="1372" y="0" flags="0x4"/>
      <component glyphName="uni0A3C" x="770" y="255" flags="0x4"/>
    </TTGlyph>
    <TTGlyph name="glyph00086" xMin="-15" yMin="-87" xMax="1288" yMax="1274">
      <component glyphName="uni0A15" x="0" y="0" flags="0x200"/>
      <component glyphName="uni0A3C" x="795" y="305" flags="0x4"/>
    </TTGlyph>
    <TTGlyph name="glyph00087" xMin="-15" yMin="-100" xMax="1565" yMax="1274">
      <component glyphName="uni0A18" x="0" y="0" flags="0x200"/>
      <component glyphName="uni0A3C" x="965" y="292" flags="0x4"/>
    </TTGlyph>
    <TTGlyph name="glyph00088" xMin="-15" yMin="-221" xMax="1200" yMax="1274">
      <component glyphName="uni0A19" x="0" y="0" flags="0x200"/>
      <component glyphName="uni0A3C" x="809" y="171" flags="0x4"/>
    </TTGlyph>
    <TTGlyph name="glyph00089" xMin="-15" yMin="-89" xMax="1360" yMax="1274">
      <component glyphName="uni0A1A" x="0" y="0" flags="0x200"/>
      <component glyphName="uni0A3C" x="813" y="303" flags="0x4"/>
    </TTGlyph>
    <TTGlyph name="glyph00090" xMin="-15" yMin="-286" xMax="1314" yMax="1274">
      <component glyphName="uni0A1B" x="0" y="0" flags="0x200"/>
      <component glyphName="uni0A3C" x="869" y="106" flags="0x4"/>
    </TTGlyph>
    <TTGlyph name="glyph00091" xMin="-15" yMin="-171" xMax="1231" yMax="1274">
      <component glyphName="uni0A1D" x="0" y="0" flags="0x200"/>
      <component glyphName="uni0A3C" x="893" y="221" flags="0x4"/>
    </TTGlyph>
    <TTGlyph name="glyph00092" xMin="-15" yMin="-239" xMax="1177" yMax="1274">
      <component glyphName="uni0A1E" x="0" y="0" flags="0x200"/>
      <component glyphName="uni0A3C" x="830" y="153" flags="0x4"/>
    </TTGlyph>
    <TTGlyph name="glyph00093" xMin="-15" yMin="-251" xMax="1193" yMax="1274">
      <component glyphName="uni0A1F" x="0" y="0" flags="0x200"/>
      <component glyphName="uni0A3C" x="833" y="141" flags="0x4"/>
    </TTGlyph>
    <TTGlyph name="glyph00094" xMin="-15" yMin="-314" xMax="1367" yMax="1274">
      <component glyphName="uni0A20" x="0" y="0" flags="0x200"/>
      <component glyphName="uni0A3C" x="827" y="78" flags="0x4"/>
    </TTGlyph>
    <TTGlyph name="glyph00095" xMin="-15" yMin="-137" xMax="1338" yMax="1274">
      <component glyphName="uni0A22" x="0" y="0" flags="0x200"/>
      <component glyphName="uni0A3C" x="831" y="255" flags="0x4"/>
    </TTGlyph>
    <TTGlyph name="glyph00096" xMin="-15" yMin="-251" xMax="1289" yMax="1274">
      <component glyphName="uni0A23" x="0" y="0" flags="0x200"/>
      <component glyphName="uni0A3C" x="833" y="141" flags="0x4"/>
    </TTGlyph>
    <TTGlyph name="glyph00097" xMin="-15" yMin="-285" xMax="1125" yMax="1274">
      <component glyphName="uni0A24" x="0" y="0" flags="0x200"/>
      <component glyphName="uni0A3C" x="798" y="107" flags="0x4"/>
    </TTGlyph>
    <TTGlyph name="glyph00098" xMin="-15" yMin="-18" xMax="1239" yMax="1274">
      <component glyphName="uni0A25" x="0" y="0" flags="0x200"/>
      <component glyphName="glyph00289" x="919" y="374" flags="0x4"/>
    </TTGlyph>
    <TTGlyph name="glyph00099" xMin="-15" yMin="-150" xMax="1278" yMax="1274">
      <component glyphName="uni0A26" x="0" y="0" flags="0x200"/>
      <component glyphName="uni0A3C" x="820" y="242" flags="0x4"/>
    </TTGlyph>
    <TTGlyph name="glyph00100" xMin="-15" yMin="-18" xMax="1229" yMax="1274">
      <component glyphName="uni0A27" x="0" y="0" flags="0x200"/>
      <component glyphName="glyph00289" x="919" y="374" flags="0x4"/>
    </TTGlyph>
    <TTGlyph name="glyph00101" xMin="-15" yMin="-314" xMax="1343" yMax="1274">
      <component glyphName="uni0A28" x="0" y="0" flags="0x200"/>
      <component glyphName="uni0A3C" x="827" y="78" flags="0x4"/>
    </TTGlyph>
    <TTGlyph name="glyph00102" xMin="-15" yMin="-18" xMax="1229" yMax="1274">
      <component glyphName="uni0A2A" x="0" y="0" flags="0x200"/>
      <component glyphName="glyph00289" x="919" y="374" flags="0x4"/>
    </TTGlyph>
    <TTGlyph name="glyph00103" xMin="-15" yMin="-89" xMax="1261" yMax="1274">
      <component glyphName="uni0A2C" x="0" y="0" flags="0x200"/>
      <component glyphName="uni0A3C" x="835" y="303" flags="0x4"/>
    </TTGlyph>
    <TTGlyph name="glyph00104" xMin="-15" yMin="-285" xMax="1197" yMax="1274">
      <component glyphName="uni0A2D" x="0" y="0" flags="0x200"/>
      <component glyphName="uni0A3C" x="798" y="107" flags="0x4"/>
    </TTGlyph>
    <TTGlyph name="glyph00105" xMin="-15" yMin="-18" xMax="1235" yMax="1274">
      <component glyphName="uni0A2E" x="0" y="0" flags="0x200"/>
      <component glyphName="glyph00289" x="1141" y="374" flags="0x4"/>
    </TTGlyph>
    <TTGlyph name="glyph00106" xMin="-15" yMin="-41" xMax="1439" yMax="1274">
      <component glyphName="uni0A2F" x="0" y="0" flags="0x200"/>
      <component glyphName="uni0A3C" x="919" y="351" flags="0x4"/>
    </TTGlyph>
    <TTGlyph name="glyph00107" xMin="-15" yMin="-219" xMax="1200" yMax="1274">
      <component glyphName="uni0A30" x="0" y="0" flags="0x200"/>
      <component glyphName="uni0A3C" x="802" y="173" flags="0x4"/>
    </TTGlyph>
    <TTGlyph name="glyph00108" xMin="-15" yMin="-239" xMax="1177" yMax="1274">
      <component glyphName="uni0A35" x="0" y="0" flags="0x200"/>
      <component glyphName="uni0A3C" x="830" y="153" flags="0x4"/>
    </TTGlyph>
    <TTGlyph name="glyph00109" xMin="-15" yMin="-219" xMax="1195" yMax="1274">
      <component glyphName="uni0A39" x="0" y="0" flags="0x200"/>
      <component glyphName="uni0A3C" x="802" y="173" flags="0x4"/>
    </TTGlyph>
    <TTGlyph name="glyph00110" xMin="-651" yMin="-548" xMax="93" yMax="0">
      <contour>
        <pt x="-29" y="-548" on="1"/>
        <pt x="-144" y="-383" on="0"/>
        <pt x="-276" y="-316" on="1"/>
        <pt x="-315" y="-356" on="0"/>
        <pt x="-410" y="-396" on="0"/>
        <pt x="-466" y="-396" on="1"/>
        <pt x="-556" y="-396" on="0"/>
        <pt x="-651" y="-331" on="0"/>
        <pt x="-651" y="-268" on="1"/>
        <pt x="-651" y="-207" on="0"/>
        <pt x="-553" y="-144" on="0"/>
        <pt x="-462" y="-144" on="1"/>
        <pt x="-413" y="-144" on="0"/>
        <pt x="-351" y="-155" on="1"/>
        <pt x="-348" y="-135" on="0"/>
        <pt x="-348" y="-114" on="1"/>
        <pt x="-348" y="0" on="1"/>
        <pt x="-183" y="0" on="1"/>
        <pt x="-183" y="-35" on="1"/>
        <pt x="-183" y="-152" on="0"/>
        <pt x="-204" y="-199" on="1"/>
        <pt x="-55" y="-267" on="0"/>
        <pt x="93" y="-468" on="1"/>
      </contour>
      <contour>
        <pt x="71" y="-402" on="1"/>
      </contour>
      <contour>
        <pt x="-274" y="-345" on="1"/>
      </contour>
    </TTGlyph>
    <TTGlyph name="glyph00111" xMin="-789" yMin="-638" xMax="-183" yMax="0">
      <contour>
        <pt x="-183" y="-387" on="1"/>
        <pt x="-183" y="-493" on="0"/>
        <pt x="-240" y="-589" on="0"/>
        <pt x="-338" y="-638" on="0"/>
        <pt x="-425" y="-638" on="1"/>
        <pt x="-579" y="-638" on="0"/>
        <pt x="-789" y="-454" on="0"/>
        <pt x="-789" y="-330" on="1"/>
        <pt x="-789" y="-279" on="0"/>
        <pt x="-727" y="-196" on="0"/>
        <pt x="-608" y="-151" on="0"/>
        <pt x="-482" y="-151" on="1"/>
        <pt x="-487" y="-281" on="1"/>
        <pt x="-554" y="-281" on="0"/>
        <pt x="-606" y="-292" on="0"/>
        <pt x="-638" y="-324" on="0"/>
        <pt x="-638" y="-353" on="1"/>
        <pt x="-638" y="-407" on="0"/>
        <pt x="-516" y="-513" on="0"/>
        <pt x="-444" y="-513" on="1"/>
        <pt x="-401" y="-513" on="0"/>
        <pt x="-362" y="-489" on="0"/>
        <pt x="-348" y="-450" on="0"/>
        <pt x="-348" y="-413" on="1"/>
        <pt x="-348" y="0" on="1"/>
        <pt x="-183" y="0" on="1"/>
      </contour>
    </TTGlyph>
    <TTGlyph name="glyph00112" xMin="-751" yMin="-627" xMax="-142" yMax="0">
      <contour>
        <pt x="-175" y="-278" on="1"/>
        <pt x="-175" y="-395" on="1"/>
        <pt x="-434" y="-395" on="1"/>
        <pt x="-475" y="-395" on="0"/>
        <pt x="-507" y="-420" on="0"/>
        <pt x="-507" y="-442" on="1"/>
        <pt x="-507" y="-509" on="0"/>
        <pt x="-352" y="-509" on="1"/>
        <pt x="-263" y="-509" on="0"/>
        <pt x="-176" y="-487" on="1"/>
        <pt x="-142" y="-599" on="1"/>
        <pt x="-236" y="-627" on="0"/>
        <pt x="-375" y="-627" on="1"/>
        <pt x="-507" y="-627" on="0"/>
        <pt x="-642" y="-541" on="0"/>
        <pt x="-642" y="-463" on="1"/>
        <pt x="-642" y="-413" on="0"/>
        <pt x="-613" y="-380" on="1"/>
        <pt x="-682" y="-362" on="0"/>
        <pt x="-751" y="-279" on="0"/>
        <pt x="-751" y="-214" on="1"/>
        <pt x="-751" y="-160" on="0"/>
        <pt x="-691" y="-86" on="0"/>
        <pt x="-592" y="-59" on="0"/>
        <pt x="-501" y="-59" on="1"/>
        <pt x="-348" y="-59" on="1"/>
        <pt x="-348" y="0" on="1"/>
        <pt x="-183" y="0" on="1"/>
        <pt x="-183" y="-127" on="1"/>
        <pt x="-232" y="-176" on="1"/>
        <pt x="-531" y="-176" on="1"/>
        <pt x="-571" y="-176" on="0"/>
        <pt x="-596" y="-184" on="0"/>
        <pt x="-615" y="-204" on="0"/>
        <pt x="-615" y="-223" on="1"/>
        <pt x="-615" y="-249" on="0"/>
        <pt x="-573" y="-278" on="0"/>
        <pt x="-494" y="-278" on="1"/>
      </contour>
    </TTGlyph>
    <TTGlyph name="glyph00113" xMin="-15" yMin="-503" xMax="1538" yMax="1274">
      <component glyphName="uni0A15" x="0" y="0" flags="0x200"/>
      <component glyphName="uni0A4D" x="1342" y="0" flags="0x4"/>
    </TTGlyph>
    <TTGlyph name="glyph00114" xMin="-15" yMin="-503" xMax="1420" yMax="1274">
      <component glyphName="uni0A16" x="0" y="0" flags="0x200"/>
      <component glyphName="uni0A4D" x="1224" y="0" flags="0x4"/>
    </TTGlyph>
    <TTGlyph name="glyph00115" xMin="-15" yMin="-503" xMax="1732" yMax="1274">
      <component glyphName="uni0A17" x="0" y="0" flags="0x204"/>
      <component glyphName="uni0A4D" x="1536" y="0" flags="0x4"/>
    </TTGlyph>
    <TTGlyph name="glyph00116" xMin="-15" yMin="-503" xMax="1746" yMax="1274">
      <component glyphName="uni0A18" x="0" y="0" flags="0x204"/>
      <component glyphName="uni0A4D" x="1550" y="0" flags="0x4"/>
    </TTGlyph>
    <TTGlyph name="glyph00117" xMin="-15" yMin="-503" xMax="1396" yMax="1274">
      <component glyphName="uni0A19" x="0" y="0" flags="0x200"/>
      <component glyphName="uni0A4D" x="1200" y="0" flags="0x4"/>
    </TTGlyph>
    <TTGlyph name="glyph00118" xMin="-15" yMin="-503" xMax="1432" yMax="1274">
      <component glyphName="uni0A1A" x="0" y="0" flags="0x200"/>
      <component glyphName="uni0A4D" x="1236" y="0" flags="0x4"/>
    </TTGlyph>
    <TTGlyph name="glyph00119" xMin="-15" yMin="-503" xMax="1375" yMax="1274">
      <component glyphName="uni0A1B" x="0" y="0" flags="0x200"/>
      <component glyphName="uni0A4D" x="1179" y="0" flags="0x4"/>
    </TTGlyph>
    <TTGlyph name="glyph00120" xMin="-15" yMin="-503" xMax="1449" yMax="1274">
      <component glyphName="uni0A1C" x="0" y="0" flags="0x204"/>
      <component glyphName="uni0A4D" x="1253" y="0" flags="0x4"/>
    </TTGlyph>
    <TTGlyph name="glyph00121" xMin="-15" yMin="-503" xMax="1231" yMax="1274">
      <component glyphName="uni0A1D" x="0" y="0" flags="0x200"/>
      <component glyphName="uni0A4D" x="1020" y="0" flags="0x4"/>
    </TTGlyph>
    <TTGlyph name="glyph00122" xMin="-15" yMin="-503" xMax="1210" yMax="1274">
      <component glyphName="uni0A1E" x="0" y="0" flags="0x204"/>
      <component glyphName="uni0A4D" x="1014" y="0" flags="0x4"/>
    </TTGlyph>
    <TTGlyph name="glyph00123" xMin="-15" yMin="-503" xMax="1235" yMax="1274">
      <component glyphName="uni0A1F" x="0" y="0" flags="0x204"/>
      <component glyphName="uni0A4D" x="1039" y="0" flags="0x4"/>
    </TTGlyph>
    <TTGlyph name="glyph00124" xMin="-15" yMin="-503" xMax="1367" yMax="1274">
      <component glyphName="uni0A20" x="0" y="0" flags="0x204"/>
      <component glyphName="uni0A4D" x="1062" y="0" flags="0x4"/>
    </TTGlyph>
    <TTGlyph name="glyph00125" xMin="-15" yMin="-503" xMax="1238" yMax="1274">
      <component glyphName="uni0A21" x="0" y="0" flags="0x204"/>
      <component glyphName="uni0A4D" x="942" y="0" flags="0x4"/>
    </TTGlyph>
    <TTGlyph name="glyph00126" xMin="-15" yMin="-503" xMax="1412" yMax="1274">
      <component glyphName="uni0A22" x="0" y="0" flags="0x204"/>
      <component glyphName="uni0A4D" x="1216" y="0" flags="0x4"/>
    </TTGlyph>
    <TTGlyph name="glyph00127" xMin="-15" yMin="-503" xMax="1312" yMax="1274">
      <component glyphName="uni0A23" x="0" y="0" flags="0x204"/>
      <component glyphName="uni0A4D" x="1116" y="0" flags="0x4"/>
    </TTGlyph>
    <TTGlyph name="glyph00128" xMin="-15" yMin="-503" xMax="1125" yMax="1274">
      <component glyphName="uni0A24" x="0" y="0" flags="0x204"/>
      <component glyphName="uni0A4D" x="846" y="0" flags="0x4"/>
    </TTGlyph>
    <TTGlyph name="glyph00129" xMin="-15" yMin="-503" xMax="1420" yMax="1274">
      <component glyphName="uni0A25" x="0" y="0" flags="0x204"/>
      <component glyphName="uni0A4D" x="1224" y="0" flags="0x4"/>
    </TTGlyph>
    <TTGlyph name="glyph00130" xMin="-15" yMin="-503" xMax="1278" yMax="1274">
      <component glyphName="uni0A26" x="0" y="0" flags="0x204"/>
      <component glyphName="uni0A4D" x="1078" y="0" flags="0x4"/>
    </TTGlyph>
    <TTGlyph name="glyph00131" xMin="-15" yMin="-503" xMax="1410" yMax="1274">
      <component glyphName="uni0A27" x="0" y="0" flags="0x204"/>
      <component glyphName="uni0A4D" x="1214" y="0" flags="0x4"/>
    </TTGlyph>
    <TTGlyph name="glyph00132" xMin="-15" yMin="-503" xMax="1343" yMax="1274">
      <component glyphName="uni0A28" x="0" y="0" flags="0x200"/>
      <component glyphName="uni0A4D" x="1041" y="0" flags="0x4"/>
    </TTGlyph>
    <TTGlyph name="glyph00133" xMin="-15" yMin="-503" xMax="1410" yMax="1274">
      <component glyphName="uni0A2A" x="0" y="0" flags="0x204"/>
      <component glyphName="uni0A4D" x="1214" y="0" flags="0x4"/>
    </TTGlyph>
    <TTGlyph name="glyph00134" xMin="-15" yMin="-503" xMax="1270" yMax="1274">
      <component glyphName="uni0A2B" x="0" y="0" flags="0x204"/>
      <component glyphName="uni0A4D" x="1074" y="0" flags="0x4"/>
    </TTGlyph>
    <TTGlyph name="glyph00135" xMin="-15" yMin="-503" xMax="1442" yMax="1274">
      <component glyphName="uni0A2C" x="0" y="0" flags="0x204"/>
      <component glyphName="uni0A4D" x="1246" y="0" flags="0x4"/>
    </TTGlyph>
    <TTGlyph name="glyph00136" xMin="-15" yMin="-503" xMax="1197" yMax="1274">
      <component glyphName="uni0A2D" x="0" y="0" flags="0x204"/>
      <component glyphName="uni0A4D" x="926" y="0" flags="0x4"/>
    </TTGlyph>
    <TTGlyph name="glyph00137" xMin="-15" yMin="-503" xMax="1416" yMax="1274">
      <component glyphName="uni0A2E" x="0" y="0" flags="0x204"/>
      <component glyphName="uni0A4D" x="1220" y="0" flags="0x4"/>
    </TTGlyph>
    <TTGlyph name="glyph00138" xMin="-15" yMin="-503" xMax="1620" yMax="1274">
      <component glyphName="uni0A2F" x="0" y="0" flags="0x204"/>
      <component glyphName="uni0A4D" x="1424" y="0" flags="0x4"/>
    </TTGlyph>
    <TTGlyph name="glyph00139" xMin="-15" yMin="-503" xMax="1272" yMax="1274">
      <component glyphName="uni0A30" x="0" y="0" flags="0x204"/>
      <component glyphName="uni0A4D" x="1076" y="0" flags="0x4"/>
    </TTGlyph>
    <TTGlyph name="glyph00140" xMin="-15" yMin="-503" xMax="1395" yMax="1274">
      <component glyphName="uni0A32" x="0" y="0" flags="0x204"/>
      <component glyphName="uni0A4D" x="1082" y="0" flags="0x4"/>
    </TTGlyph>
    <TTGlyph name="glyph00141" xMin="-15" yMin="-503" xMax="1210" yMax="1274">
      <component glyphName="uni0A35" x="0" y="0" flags="0x204"/>
      <component glyphName="uni0A4D" x="1014" y="0" flags="0x4"/>
    </TTGlyph>
    <TTGlyph name="glyph00142" xMin="-15" yMin="-503" xMax="1416" yMax="1274">
      <component glyphName="uni0A38" x="0" y="0" flags="0x204"/>
      <component glyphName="uni0A4D" x="1220" y="0" flags="0x4"/>
    </TTGlyph>
    <TTGlyph name="glyph00143" xMin="-15" yMin="-503" xMax="1267" yMax="1274">
      <component glyphName="uni0A39" x="0" y="0" flags="0x204"/>
      <component glyphName="uni0A4D" x="1071" y="0" flags="0x4"/>
    </TTGlyph>
    <TTGlyph name="glyph00144" xMin="-15" yMin="-503" xMax="1538" yMax="1274">
      <component glyphName="uni0A15" x="0" y="0" flags="0x200"/>
      <component glyphName="uni0A4D" x="1342" y="0" flags="0x4"/>
      <component glyphName="uni0A3C" x="795" y="305" flags="0x4"/>
    </TTGlyph>
    <TTGlyph name="glyph00145" xMin="-15" yMin="-503" xMax="1420" yMax="1274">
      <component glyphName="uni0A16" x="0" y="0" flags="0x200"/>
      <component glyphName="uni0A4D" x="1224" y="0" flags="0x4"/>
      <component glyphName="glyph00289" x="919" y="374" flags="0x4"/>
    </TTGlyph>
    <TTGlyph name="glyph00146" xMin="-15" yMin="-503" xMax="1732" yMax="1274">
      <component glyphName="uni0A17" x="0" y="0" flags="0x204"/>
      <component glyphName="uni0A4D" x="1536" y="0" flags="0x4"/>
      <component glyphName="uni0A3C" x="837" y="112" flags="0x4"/>
    </TTGlyph>
    <TTGlyph name="glyph00147" xMin="-15" yMin="-503" xMax="1746" yMax="1274">
      <component glyphName="uni0A18" x="0" y="0" flags="0x204"/>
      <component glyphName="uni0A4D" x="1550" y="0" flags="0x4"/>
      <component glyphName="uni0A3C" x="965" y="292" flags="0x4"/>
    </TTGlyph>
    <TTGlyph name="glyph00148" xMin="-15" yMin="-503" xMax="1396" yMax="1274">
      <component glyphName="uni0A19" x="0" y="0" flags="0x200"/>
      <component glyphName="uni0A4D" x="1200" y="0" flags="0x4"/>
      <component glyphName="uni0A3C" x="809" y="171" flags="0x4"/>
    </TTGlyph>
    <TTGlyph name="glyph00149" xMin="-15" yMin="-503" xMax="1432" yMax="1274">
      <component glyphName="uni0A1A" x="0" y="0" flags="0x200"/>
      <component glyphName="uni0A4D" x="1236" y="0" flags="0x4"/>
      <component glyphName="uni0A3C" x="813" y="303" flags="0x4"/>
    </TTGlyph>
    <TTGlyph name="glyph00150" xMin="-15" yMin="-503" xMax="1375" yMax="1274">
      <component glyphName="uni0A1B" x="0" y="0" flags="0x200"/>
      <component glyphName="uni0A4D" x="1179" y="0" flags="0x4"/>
      <component glyphName="uni0A3C" x="869" y="106" flags="0x4"/>
    </TTGlyph>
    <TTGlyph name="glyph00151" xMin="-15" yMin="-503" xMax="1479" yMax="1274">
      <component glyphName="uni0A5B" x="0" y="0" flags="0x204"/>
      <component glyphName="uni0A4D" x="1283" y="0" flags="0x4"/>
    </TTGlyph>
    <TTGlyph name="glyph00152" xMin="-15" yMin="-503" xMax="1231" yMax="1274">
      <component glyphName="uni0A1D" x="0" y="0" flags="0x200"/>
      <component glyphName="uni0A4D" x="1020" y="0" flags="0x4"/>
      <component glyphName="uni0A3C" x="893" y="221" flags="0x4"/>
    </TTGlyph>
    <TTGlyph name="glyph00153" xMin="-15" yMin="-503" xMax="1210" yMax="1274">
      <component glyphName="uni0A1E" x="0" y="0" flags="0x204"/>
      <component glyphName="uni0A4D" x="1014" y="0" flags="0x4"/>
      <component glyphName="uni0A3C" x="830" y="153" flags="0x4"/>
    </TTGlyph>
    <TTGlyph name="glyph00154" xMin="-15" yMin="-503" xMax="1235" yMax="1274">
      <component glyphName="uni0A1F" x="0" y="0" flags="0x204"/>
      <component glyphName="uni0A4D" x="1039" y="0" flags="0x4"/>
      <component glyphName="uni0A3C" x="833" y="141" flags="0x4"/>
    </TTGlyph>
    <TTGlyph name="glyph00155" xMin="-15" yMin="-503" xMax="1367" yMax="1274">
      <component glyphName="uni0A20" x="0" y="0" flags="0x204"/>
      <component glyphName="uni0A4D" x="1062" y="0" flags="0x4"/>
      <component glyphName="uni0A3C" x="827" y="78" flags="0x4"/>
    </TTGlyph>
    <TTGlyph name="glyph00156" xMin="-15" yMin="-503" xMax="1251" yMax="1274">
      <component glyphName="uni0A5C" x="0" y="0" flags="0x204"/>
      <component glyphName="uni0A4D" x="1055" y="0" flags="0x4"/>
    </TTGlyph>
    <TTGlyph name="glyph00157" xMin="-15" yMin="-503" xMax="1412" yMax="1274">
      <component glyphName="uni0A22" x="0" y="0" flags="0x204"/>
      <component glyphName="uni0A4D" x="1216" y="0" flags="0x4"/>
      <component glyphName="uni0A3C" x="831" y="255" flags="0x4"/>
    </TTGlyph>
    <TTGlyph name="glyph00158" xMin="-15" yMin="-503" xMax="1312" yMax="1274">
      <component glyphName="uni0A23" x="0" y="0" flags="0x204"/>
      <component glyphName="uni0A4D" x="1116" y="0" flags="0x4"/>
      <component glyphName="uni0A3C" x="833" y="141" flags="0x4"/>
    </TTGlyph>
    <TTGlyph name="glyph00159" xMin="-15" yMin="-503" xMax="1125" yMax="1274">
      <component glyphName="uni0A24" x="0" y="0" flags="0x204"/>
      <component glyphName="uni0A4D" x="846" y="0" flags="0x4"/>
      <component glyphName="uni0A3C" x="798" y="107" flags="0x4"/>
    </TTGlyph>
    <TTGlyph name="glyph00160" xMin="-15" yMin="-503" xMax="1420" yMax="1274">
      <component glyphName="uni0A25" x="0" y="0" flags="0x204"/>
      <component glyphName="uni0A4D" x="1224" y="0" flags="0x4"/>
      <component glyphName="glyph00289" x="919" y="374" flags="0x4"/>
    </TTGlyph>
    <TTGlyph name="glyph00161" xMin="-15" yMin="-503" xMax="1278" yMax="1274">
      <component glyphName="uni0A26" x="0" y="0" flags="0x204"/>
      <component glyphName="uni0A4D" x="1078" y="0" flags="0x4"/>
      <component glyphName="uni0A3C" x="820" y="242" flags="0x4"/>
    </TTGlyph>
    <TTGlyph name="glyph00162" xMin="-15" yMin="-503" xMax="1410" yMax="1274">
      <component glyphName="uni0A27" x="0" y="0" flags="0x204"/>
      <component glyphName="uni0A4D" x="1214" y="0" flags="0x4"/>
      <component glyphName="glyph00289" x="919" y="374" flags="0x4"/>
    </TTGlyph>
    <TTGlyph name="glyph00163" xMin="-15" yMin="-503" xMax="1343" yMax="1274">
      <component glyphName="uni0A28" x="0" y="0" flags="0x200"/>
      <component glyphName="uni0A4D" x="1041" y="0" flags="0x4"/>
      <component glyphName="uni0A3C" x="827" y="78" flags="0x4"/>
    </TTGlyph>
    <TTGlyph name="glyph00164" xMin="-15" yMin="-503" xMax="1410" yMax="1274">
      <component glyphName="uni0A2A" x="0" y="0" flags="0x204"/>
      <component glyphName="uni0A4D" x="1214" y="0" flags="0x4"/>
      <component glyphName="glyph00289" x="919" y="374" flags="0x4"/>
    </TTGlyph>
    <TTGlyph name="glyph00165" xMin="-15" yMin="-503" xMax="1270" yMax="1274">
      <component glyphName="uni0A2B" x="0" y="0" flags="0x204"/>
      <component glyphName="uni0A4D" x="1074" y="0" flags="0x4"/>
      <component glyphName="uni0A3C" x="788" y="194" flags="0x4"/>
    </TTGlyph>
    <TTGlyph name="glyph00166" xMin="-15" yMin="-503" xMax="1442" yMax="1274">
      <component glyphName="uni0A2C" x="0" y="0" flags="0x204"/>
      <component glyphName="uni0A4D" x="1246" y="0" flags="0x4"/>
      <component glyphName="uni0A3C" x="835" y="303" flags="0x4"/>
    </TTGlyph>
    <TTGlyph name="glyph00167" xMin="-15" yMin="-503" xMax="1197" yMax="1274">
      <component glyphName="uni0A2D" x="0" y="0" flags="0x204"/>
      <component glyphName="uni0A4D" x="926" y="0" flags="0x4"/>
      <component glyphName="uni0A3C" x="798" y="107" flags="0x4"/>
    </TTGlyph>
    <TTGlyph name="glyph00168" xMin="-15" yMin="-503" xMax="1416" yMax="1274">
      <component glyphName="uni0A2E" x="0" y="0" flags="0x204"/>
      <component glyphName="uni0A4D" x="1220" y="0" flags="0x4"/>
      <component glyphName="glyph00289" x="1141" y="374" flags="0x4"/>
    </TTGlyph>
    <TTGlyph name="glyph00169" xMin="-15" yMin="-503" xMax="1620" yMax="1274">
      <component glyphName="uni0A2F" x="0" y="0" flags="0x204"/>
      <component glyphName="uni0A4D" x="1424" y="0" flags="0x4"/>
      <component glyphName="uni0A3C" x="919" y="351" flags="0x4"/>
    </TTGlyph>
    <TTGlyph name="glyph00170" xMin="-15" yMin="-503" xMax="1272" yMax="1274">
      <component glyphName="uni0A30" x="0" y="0" flags="0x204"/>
      <component glyphName="uni0A4D" x="1076" y="0" flags="0x4"/>
      <component glyphName="uni0A3C" x="802" y="173" flags="0x4"/>
    </TTGlyph>
    <TTGlyph name="glyph00171" xMin="-15" yMin="-503" xMax="1395" yMax="1274">
      <component glyphName="uni0A32" x="0" y="0" flags="0x204"/>
      <component glyphName="uni0A4D" x="1082" y="0" flags="0x4"/>
      <component glyphName="uni0A3C" x="827" y="78" flags="0x4"/>
    </TTGlyph>
    <TTGlyph name="glyph00172" xMin="-15" yMin="-503" xMax="1210" yMax="1274">
      <component glyphName="uni0A35" x="0" y="0" flags="0x204"/>
      <component glyphName="uni0A4D" x="1014" y="0" flags="0x4"/>
      <component glyphName="uni0A3C" x="830" y="153" flags="0x4"/>
    </TTGlyph>
    <TTGlyph name="glyph00173" xMin="-15" yMin="-503" xMax="1431" yMax="1274">
      <component glyphName="uni0A36" x="0" y="0" flags="0x204"/>
      <component glyphName="uni0A4D" x="1235" y="0" flags="0x4"/>
    </TTGlyph>
    <TTGlyph name="glyph00174" xMin="-15" yMin="-503" xMax="1267" yMax="1274">
      <component glyphName="uni0A39" x="0" y="0" flags="0x204"/>
      <component glyphName="uni0A4D" x="1071" y="0" flags="0x4"/>
      <component glyphName="uni0A3C" x="802" y="173" flags="0x4"/>
    </TTGlyph>
    <TTGlyph name="glyph00175" xMin="-15" yMin="0" xMax="1378" yMax="1274">
      <contour>
        <pt x="1015" y="613" on="1"/>
        <pt x="749" y="613" on="1"/>
        <pt x="749" y="279" on="1"/>
        <pt x="652" y="246" on="0"/>
        <pt x="537" y="246" on="1"/>
        <pt x="370" y="246" on="0"/>
        <pt x="140" y="431" on="0"/>
        <pt x="28" y="655" on="1"/>
        <pt x="174" y="724" on="1"/>
        <pt x="245" y="577" on="0"/>
        <pt x="360" y="441" on="0"/>
        <pt x="468" y="396" on="0"/>
        <pt x="542" y="396" on="1"/>
        <pt x="560" y="396" on="0"/>
        <pt x="584" y="400" on="1"/>
        <pt x="584" y="759" on="1"/>
        <pt x="1015" y="759" on="1"/>
        <pt x="1015" y="1128" on="1"/>
        <pt x="-15" y="1128" on="1"/>
        <pt x="-15" y="1274" on="1"/>
        <pt x="1378" y="1274" on="1"/>
        <pt x="1378" y="1128" on="1"/>
        <pt x="1180" y="1128" on="1"/>
        <pt x="1180" y="0" on="1"/>
        <pt x="1015" y="0" on="1"/>
      </contour>
    </TTGlyph>
    <TTGlyph name="glyph00176" xMin="-651" yMin="-806" xMax="169" yMax="0">
      <contour>
        <pt x="-29" y="-487" on="1"/>
        <pt x="-144" y="-322" on="0"/>
        <pt x="-276" y="-255" on="1"/>
        <pt x="-354" y="-335" on="0"/>
        <pt x="-466" y="-335" on="1"/>
        <pt x="-556" y="-335" on="0"/>
        <pt x="-651" y="-270" on="0"/>
        <pt x="-651" y="-207" on="1"/>
        <pt x="-651" y="-146" on="0"/>
        <pt x="-553" y="-83" on="0"/>
        <pt x="-462" y="-83" on="1"/>
        <pt x="-413" y="-83" on="0"/>
        <pt x="-351" y="-94" on="1"/>
        <pt x="-348" y="-74" on="0"/>
        <pt x="-348" y="-53" on="1"/>
        <pt x="-348" y="0" on="1"/>
        <pt x="-183" y="0" on="1"/>
        <pt x="-183" y="-3" on="1"/>
        <pt x="-183" y="-75" on="0"/>
        <pt x="-204" y="-138" on="1"/>
        <pt x="-55" y="-206" on="0"/>
        <pt x="93" y="-407" on="1"/>
      </contour>
      <contour>
        <pt x="32" y="-806" on="1"/>
        <pt x="-30" y="-692" on="0"/>
        <pt x="-230" y="-578" on="0"/>
        <pt x="-388" y="-578" on="1"/>
        <pt x="-425" y="-578" on="1"/>
        <pt x="-437" y="-578" on="0"/>
        <pt x="-445" y="-579" on="1"/>
        <pt x="-454" y="-424" on="1"/>
        <pt x="-436" y="-422" on="0"/>
        <pt x="-403" y="-422" on="1"/>
        <pt x="-196" y="-422" on="0"/>
        <pt x="89" y="-590" on="0"/>
        <pt x="169" y="-759" on="1"/>
      </contour>
      <contour>
        <pt x="71" y="-341" on="1"/>
      </contour>
      <contour>
        <pt x="-284" y="-284" on="1"/>
      </contour>
    </TTGlyph>
    <TTGlyph name="glyph00177" xMin="-789" yMin="-806" xMax="361" yMax="0">
      <contour>
        <pt x="-183" y="-337" on="1"/>
        <pt x="-183" y="-443" on="0"/>
        <pt x="-240" y="-539" on="0"/>
        <pt x="-338" y="-588" on="0"/>
        <pt x="-425" y="-588" on="1"/>
        <pt x="-579" y="-588" on="0"/>
        <pt x="-789" y="-404" on="0"/>
        <pt x="-789" y="-280" on="1"/>
        <pt x="-789" y="-229" on="0"/>
        <pt x="-727" y="-146" on="0"/>
        <pt x="-608" y="-101" on="0"/>
        <pt x="-482" y="-101" on="1"/>
        <pt x="-487" y="-231" on="1"/>
        <pt x="-554" y="-231" on="0"/>
        <pt x="-606" y="-242" on="0"/>
        <pt x="-638" y="-274" on="0"/>
        <pt x="-638" y="-303" on="1"/>
        <pt x="-638" y="-357" on="0"/>
        <pt x="-516" y="-463" on="0"/>
        <pt x="-444" y="-463" on="1"/>
        <pt x="-401" y="-463" on="0"/>
        <pt x="-362" y="-439" on="0"/>
        <pt x="-348" y="-400" on="0"/>
        <pt x="-348" y="-363" on="1"/>
        <pt x="-348" y="0" on="1"/>
        <pt x="-183" y="0" on="1"/>
      </contour>
      <contour>
        <pt x="219" y="-806" on="1"/>
        <pt x="182" y="-726" on="0"/>
        <pt x="83" y="-635" on="0"/>
        <pt x="-37" y="-598" on="0"/>
        <pt x="-123" y="-598" on="1"/>
        <pt x="-158" y="-598" on="1"/>
        <pt x="-174" y="-598" on="0"/>
        <pt x="-181" y="-599" on="1"/>
        <pt x="-190" y="-444" on="1"/>
        <pt x="-172" y="-442" on="0"/>
        <pt x="-141" y="-442" on="1"/>
        <pt x="53" y="-442" on="0"/>
        <pt x="293" y="-602" on="0"/>
        <pt x="361" y="-763" on="1"/>
      </contour>
    </TTGlyph>
    <TTGlyph name="glyph00178" xMin="-831" yMin="-806" xMax="324" yMax="-20">
      <contour>
        <pt x="-295" y="-278" on="1"/>
        <pt x="-295" y="-395" on="1"/>
        <pt x="-485" y="-395" on="1"/>
        <pt x="-531" y="-395" on="0"/>
        <pt x="-565" y="-400" on="0"/>
        <pt x="-587" y="-424" on="0"/>
        <pt x="-587" y="-442" on="1"/>
        <pt x="-587" y="-509" on="0"/>
        <pt x="-451" y="-509" on="1"/>
        <pt x="-373" y="-509" on="0"/>
        <pt x="-296" y="-487" on="1"/>
        <pt x="-262" y="-599" on="1"/>
        <pt x="-352" y="-627" on="0"/>
        <pt x="-476" y="-627" on="1"/>
        <pt x="-598" y="-627" on="0"/>
        <pt x="-722" y="-541" on="0"/>
        <pt x="-722" y="-463" on="1"/>
        <pt x="-722" y="-413" on="0"/>
        <pt x="-693" y="-380" on="1"/>
        <pt x="-762" y="-362" on="0"/>
        <pt x="-831" y="-279" on="0"/>
        <pt x="-831" y="-214" on="1"/>
        <pt x="-831" y="-160" on="0"/>
        <pt x="-771" y="-86" on="0"/>
        <pt x="-672" y="-59" on="0"/>
        <pt x="-581" y="-59" on="1"/>
        <pt x="-468" y="-59" on="1"/>
        <pt x="-468" y="-20" on="1"/>
        <pt x="-303" y="-20" on="1"/>
        <pt x="-303" y="-127" on="1"/>
        <pt x="-352" y="-176" on="1"/>
        <pt x="-611" y="-176" on="1"/>
        <pt x="-651" y="-176" on="0"/>
        <pt x="-676" y="-184" on="0"/>
        <pt x="-695" y="-204" on="0"/>
        <pt x="-695" y="-223" on="1"/>
        <pt x="-695" y="-249" on="0"/>
        <pt x="-653" y="-278" on="0"/>
        <pt x="-574" y="-278" on="1"/>
      </contour>
      <contour>
        <pt x="182" y="-806" on="1"/>
        <pt x="145" y="-726" on="0"/>
        <pt x="46" y="-635" on="0"/>
        <pt x="-74" y="-598" on="0"/>
        <pt x="-160" y="-598" on="1"/>
        <pt x="-195" y="-598" on="1"/>
        <pt x="-211" y="-598" on="0"/>
        <pt x="-218" y="-599" on="1"/>
        <pt x="-227" y="-444" on="1"/>
        <pt x="-209" y="-442" on="0"/>
        <pt x="-178" y="-442" on="1"/>
        <pt x="16" y="-442" on="0"/>
        <pt x="256" y="-602" on="0"/>
        <pt x="324" y="-763" on="1"/>
      </contour>
    </TTGlyph>
    <TTGlyph name="glyph00179" xMin="-363" yMin="-806" xMax="188" yMax="-59">
      <contour>
        <pt x="-202" y="-59" on="1"/>
        <pt x="-146" y="-200" on="0"/>
        <pt x="-5" y="-335" on="0"/>
        <pt x="148" y="-351" on="1"/>
        <pt x="113" y="-498" on="1"/>
        <pt x="-2" y="-478" on="0"/>
        <pt x="-158" y="-405" on="0"/>
        <pt x="-292" y="-246" on="0"/>
        <pt x="-343" y="-105" on="1"/>
      </contour>
      <contour>
        <pt x="46" y="-806" on="1"/>
        <pt x="9" y="-726" on="0"/>
        <pt x="-90" y="-635" on="0"/>
        <pt x="-210" y="-598" on="0"/>
        <pt x="-296" y="-598" on="1"/>
        <pt x="-331" y="-598" on="1"/>
        <pt x="-347" y="-598" on="0"/>
        <pt x="-354" y="-599" on="1"/>
        <pt x="-363" y="-444" on="1"/>
        <pt x="-345" y="-442" on="0"/>
        <pt x="-314" y="-442" on="1"/>
        <pt x="-118" y="-442" on="0"/>
        <pt x="122" y="-605" on="0"/>
        <pt x="188" y="-763" on="1"/>
      </contour>
    </TTGlyph>
    <TTGlyph name="glyph00180" xMin="-533" yMin="-806" xMax="378" yMax="-52">
      <contour>
        <pt x="-367" y="-69" on="1"/>
        <pt x="-377" y="-120" on="0"/>
        <pt x="-377" y="-202" on="1"/>
        <pt x="-377" y="-288" on="0"/>
        <pt x="-323" y="-362" on="0"/>
        <pt x="-267" y="-362" on="1"/>
        <pt x="-224" y="-362" on="0"/>
        <pt x="-168" y="-310" on="0"/>
        <pt x="-142" y="-251" on="1"/>
        <pt x="-26" y="-312" on="1"/>
        <pt x="-70" y="-403" on="0"/>
        <pt x="-117" y="-442" on="1"/>
        <pt x="75" y="-443" on="0"/>
        <pt x="312" y="-606" on="0"/>
        <pt x="378" y="-763" on="1"/>
        <pt x="236" y="-806" on="1"/>
        <pt x="199" y="-726" on="0"/>
        <pt x="100" y="-635" on="0"/>
        <pt x="-20" y="-598" on="0"/>
        <pt x="-106" y="-598" on="1"/>
        <pt x="-141" y="-598" on="1"/>
        <pt x="-157" y="-598" on="0"/>
        <pt x="-164" y="-599" on="1"/>
        <pt x="-171" y="-477" on="1"/>
        <pt x="-221" y="-500" on="0"/>
        <pt x="-284" y="-500" on="1"/>
        <pt x="-401" y="-500" on="0"/>
        <pt x="-533" y="-356" on="0"/>
        <pt x="-533" y="-216" on="1"/>
        <pt x="-533" y="-135" on="0"/>
        <pt x="-518" y="-52" on="1"/>
      </contour>
    </TTGlyph>
    <TTGlyph name="glyph00181" xMin="-1017" yMin="-806" xMax="93" yMax="0">
      <contour>
        <pt x="-29" y="-548" on="1"/>
        <pt x="-144" y="-383" on="0"/>
        <pt x="-276" y="-316" on="1"/>
        <pt x="-354" y="-396" on="0"/>
        <pt x="-466" y="-396" on="1"/>
        <pt x="-556" y="-396" on="0"/>
        <pt x="-651" y="-331" on="0"/>
        <pt x="-651" y="-268" on="1"/>
        <pt x="-651" y="-207" on="0"/>
        <pt x="-553" y="-144" on="0"/>
        <pt x="-462" y="-144" on="1"/>
        <pt x="-413" y="-144" on="0"/>
        <pt x="-351" y="-155" on="1"/>
        <pt x="-348" y="-135" on="0"/>
        <pt x="-348" y="-114" on="1"/>
        <pt x="-348" y="0" on="1"/>
        <pt x="-183" y="0" on="1"/>
        <pt x="-183" y="-64" on="1"/>
        <pt x="-183" y="-136" on="0"/>
        <pt x="-204" y="-199" on="1"/>
        <pt x="-55" y="-267" on="0"/>
        <pt x="93" y="-468" on="1"/>
      </contour>
      <contour>
        <pt x="-1017" y="-582" on="1"/>
        <pt x="-988" y="-444" on="1"/>
        <pt x="-899" y="-495" on="0"/>
        <pt x="-724" y="-541" on="0"/>
        <pt x="-625" y="-541" on="1"/>
        <pt x="-526" y="-541" on="0"/>
        <pt x="-351" y="-495" on="0"/>
        <pt x="-261" y="-444" on="1"/>
        <pt x="-232" y="-582" on="1"/>
        <pt x="-314" y="-633" on="0"/>
        <pt x="-519" y="-687" on="0"/>
        <pt x="-625" y="-687" on="1"/>
        <pt x="-731" y="-687" on="0"/>
        <pt x="-934" y="-633" on="0"/>
      </contour>
      <contour>
        <pt x="-348" y="-806" on="1"/>
      </contour>
      <contour>
        <pt x="71" y="-402" on="1"/>
      </contour>
      <contour>
        <pt x="-274" y="-345" on="1"/>
      </contour>
    </TTGlyph>
    <TTGlyph name="glyph00182" xMin="-1017" yMin="-806" xMax="-183" yMax="0">
      <contour>
        <pt x="-183" y="-337" on="1"/>
        <pt x="-183" y="-443" on="0"/>
        <pt x="-240" y="-539" on="0"/>
        <pt x="-338" y="-588" on="0"/>
        <pt x="-425" y="-588" on="1"/>
        <pt x="-579" y="-588" on="0"/>
        <pt x="-789" y="-404" on="0"/>
        <pt x="-789" y="-280" on="1"/>
        <pt x="-789" y="-229" on="0"/>
        <pt x="-727" y="-146" on="0"/>
        <pt x="-608" y="-101" on="0"/>
        <pt x="-482" y="-101" on="1"/>
        <pt x="-487" y="-231" on="1"/>
        <pt x="-554" y="-231" on="0"/>
        <pt x="-606" y="-242" on="0"/>
        <pt x="-638" y="-274" on="0"/>
        <pt x="-638" y="-303" on="1"/>
        <pt x="-638" y="-357" on="0"/>
        <pt x="-516" y="-463" on="0"/>
        <pt x="-444" y="-463" on="1"/>
        <pt x="-401" y="-463" on="0"/>
        <pt x="-362" y="-439" on="0"/>
        <pt x="-348" y="-400" on="0"/>
        <pt x="-348" y="-363" on="1"/>
        <pt x="-348" y="0" on="1"/>
        <pt x="-183" y="0" on="1"/>
      </contour>
      <contour>
        <pt x="-1017" y="-701" on="1"/>
        <pt x="-988" y="-563" on="1"/>
        <pt x="-899" y="-614" on="0"/>
        <pt x="-724" y="-660" on="0"/>
        <pt x="-625" y="-660" on="1"/>
        <pt x="-526" y="-660" on="0"/>
        <pt x="-351" y="-614" on="0"/>
        <pt x="-261" y="-563" on="1"/>
        <pt x="-232" y="-701" on="1"/>
        <pt x="-314" y="-752" on="0"/>
        <pt x="-519" y="-806" on="0"/>
        <pt x="-625" y="-806" on="1"/>
        <pt x="-731" y="-806" on="0"/>
        <pt x="-934" y="-752" on="0"/>
      </contour>
    </TTGlyph>
    <TTGlyph name="glyph00183" xMin="-1057" yMin="-806" xMax="-142" yMax="0">
      <contour>
        <pt x="-175" y="-278" on="1"/>
        <pt x="-175" y="-395" on="1"/>
        <pt x="-434" y="-395" on="1"/>
        <pt x="-475" y="-395" on="0"/>
        <pt x="-507" y="-420" on="0"/>
        <pt x="-507" y="-442" on="1"/>
        <pt x="-507" y="-509" on="0"/>
        <pt x="-352" y="-509" on="1"/>
        <pt x="-263" y="-509" on="0"/>
        <pt x="-176" y="-487" on="1"/>
        <pt x="-142" y="-599" on="1"/>
        <pt x="-216" y="-621" on="0"/>
        <pt x="-313" y="-625" on="1"/>
        <pt x="-297" y="-701" on="1"/>
        <pt x="-463" y="-806" on="0"/>
        <pt x="-677" y="-806" on="1"/>
        <pt x="-891" y="-806" on="0"/>
        <pt x="-1057" y="-701" on="1"/>
        <pt x="-1028" y="-563" on="1"/>
        <pt x="-935" y="-618" on="0"/>
        <pt x="-774" y="-660" on="0"/>
        <pt x="-677" y="-660" on="1"/>
        <pt x="-552" y="-660" on="0"/>
        <pt x="-449" y="-623" on="1"/>
        <pt x="-542" y="-612" on="0"/>
        <pt x="-642" y="-530" on="0"/>
        <pt x="-642" y="-463" on="1"/>
        <pt x="-642" y="-413" on="0"/>
        <pt x="-613" y="-380" on="1"/>
        <pt x="-682" y="-362" on="0"/>
        <pt x="-751" y="-279" on="0"/>
        <pt x="-751" y="-214" on="1"/>
        <pt x="-751" y="-160" on="0"/>
        <pt x="-691" y="-86" on="0"/>
        <pt x="-592" y="-59" on="0"/>
        <pt x="-501" y="-59" on="1"/>
        <pt x="-348" y="-59" on="1"/>
        <pt x="-348" y="0" on="1"/>
        <pt x="-183" y="0" on="1"/>
        <pt x="-183" y="-127" on="1"/>
        <pt x="-232" y="-176" on="1"/>
        <pt x="-531" y="-176" on="1"/>
        <pt x="-571" y="-176" on="0"/>
        <pt x="-596" y="-184" on="0"/>
        <pt x="-615" y="-204" on="0"/>
        <pt x="-615" y="-223" on="1"/>
        <pt x="-615" y="-249" on="0"/>
        <pt x="-573" y="-278" on="0"/>
        <pt x="-494" y="-278" on="1"/>
      </contour>
      <contour>
        <pt x="-375" y="-627" on="1"/>
      </contour>
    </TTGlyph>
    <TTGlyph name="glyph00184" xMin="-1017" yMin="-806" xMax="241" yMax="-61">
      <contour>
        <pt x="-200" y="-61" on="1"/>
        <pt x="-150" y="-272" on="0"/>
        <pt x="44" y="-482" on="0"/>
        <pt x="208" y="-482" on="1"/>
        <pt x="225" y="-482" on="1"/>
        <pt x="232" y="-482" on="0"/>
        <pt x="241" y="-481" on="1"/>
        <pt x="223" y="-638" on="1"/>
        <pt x="-1" y="-638" on="0"/>
        <pt x="-281" y="-374" on="0"/>
        <pt x="-347" y="-106" on="1"/>
      </contour>
      <contour>
        <pt x="-1017" y="-581" on="1"/>
        <pt x="-988" y="-443" on="1"/>
        <pt x="-899" y="-494" on="0"/>
        <pt x="-724" y="-540" on="0"/>
        <pt x="-625" y="-540" on="1"/>
        <pt x="-526" y="-540" on="0"/>
        <pt x="-351" y="-494" on="0"/>
        <pt x="-261" y="-443" on="1"/>
        <pt x="-232" y="-581" on="1"/>
        <pt x="-314" y="-632" on="0"/>
        <pt x="-519" y="-686" on="0"/>
        <pt x="-625" y="-686" on="1"/>
        <pt x="-731" y="-686" on="0"/>
        <pt x="-934" y="-632" on="0"/>
      </contour>
      <contour>
        <pt x="-700" y="-806" on="1"/>
      </contour>
    </TTGlyph>
    <TTGlyph name="glyph00185" xMin="-1017" yMin="-806" xMax="-6" yMax="-52">
      <contour>
        <pt x="-347" y="-69" on="1"/>
        <pt x="-357" y="-128" on="0"/>
        <pt x="-357" y="-224" on="1"/>
        <pt x="-357" y="-325" on="0"/>
        <pt x="-304" y="-410" on="0"/>
        <pt x="-247" y="-410" on="1"/>
        <pt x="-203" y="-410" on="0"/>
        <pt x="-150" y="-360" on="0"/>
        <pt x="-122" y="-299" on="1"/>
        <pt x="-6" y="-360" on="1"/>
        <pt x="-55" y="-462" on="0"/>
        <pt x="-178" y="-548" on="0"/>
        <pt x="-264" y="-548" on="1"/>
        <pt x="-381" y="-548" on="0"/>
        <pt x="-513" y="-388" on="0"/>
        <pt x="-513" y="-234" on="1"/>
        <pt x="-513" y="-143" on="0"/>
        <pt x="-498" y="-52" on="1"/>
      </contour>
      <contour>
        <pt x="-232" y="-701" on="1"/>
        <pt x="-314" y="-752" on="0"/>
        <pt x="-519" y="-806" on="0"/>
        <pt x="-625" y="-806" on="1"/>
        <pt x="-731" y="-806" on="0"/>
        <pt x="-934" y="-752" on="0"/>
        <pt x="-1017" y="-701" on="1"/>
        <pt x="-988" y="-563" on="1"/>
        <pt x="-899" y="-614" on="0"/>
        <pt x="-724" y="-660" on="0"/>
        <pt x="-625" y="-660" on="1"/>
        <pt x="-526" y="-660" on="0"/>
        <pt x="-351" y="-614" on="0"/>
        <pt x="-261" y="-563" on="1"/>
      </contour>
    </TTGlyph>
    <TTGlyph name="glyph00186" xMin="-1017" yMin="-806" xMax="93" yMax="0">
      <contour>
        <pt x="-29" y="-487" on="1"/>
        <pt x="-144" y="-322" on="0"/>
        <pt x="-276" y="-255" on="1"/>
        <pt x="-354" y="-335" on="0"/>
        <pt x="-466" y="-335" on="1"/>
        <pt x="-556" y="-335" on="0"/>
        <pt x="-651" y="-270" on="0"/>
        <pt x="-651" y="-207" on="1"/>
        <pt x="-651" y="-146" on="0"/>
        <pt x="-553" y="-83" on="0"/>
        <pt x="-462" y="-83" on="1"/>
        <pt x="-413" y="-83" on="0"/>
        <pt x="-351" y="-94" on="1"/>
        <pt x="-348" y="-74" on="0"/>
        <pt x="-348" y="-53" on="1"/>
        <pt x="-348" y="0" on="1"/>
        <pt x="-183" y="0" on="1"/>
        <pt x="-183" y="-10" on="1"/>
        <pt x="-183" y="-75" on="0"/>
        <pt x="-204" y="-138" on="1"/>
        <pt x="-55" y="-206" on="0"/>
        <pt x="93" y="-407" on="1"/>
      </contour>
      <contour>
        <pt x="-232" y="-465" on="1"/>
        <pt x="-314" y="-516" on="0"/>
        <pt x="-519" y="-570" on="0"/>
        <pt x="-625" y="-570" on="1"/>
        <pt x="-731" y="-570" on="0"/>
        <pt x="-935" y="-516" on="0"/>
        <pt x="-1017" y="-465" on="1"/>
        <pt x="-988" y="-340" on="1"/>
        <pt x="-898" y="-392" on="0"/>
        <pt x="-724" y="-437" on="0"/>
        <pt x="-625" y="-437" on="1"/>
        <pt x="-525" y="-437" on="0"/>
        <pt x="-352" y="-392" on="0"/>
        <pt x="-261" y="-340" on="1"/>
      </contour>
      <contour>
        <pt x="-232" y="-701" on="1"/>
        <pt x="-315" y="-752" on="0"/>
        <pt x="-519" y="-806" on="0"/>
        <pt x="-625" y="-806" on="1"/>
        <pt x="-731" y="-806" on="0"/>
        <pt x="-934" y="-752" on="0"/>
        <pt x="-1017" y="-701" on="1"/>
        <pt x="-988" y="-575" on="1"/>
        <pt x="-898" y="-627" on="0"/>
        <pt x="-724" y="-672" on="0"/>
        <pt x="-625" y="-672" on="1"/>
        <pt x="-525" y="-672" on="0"/>
        <pt x="-353" y="-627" on="0"/>
        <pt x="-261" y="-575" on="1"/>
      </contour>
      <contour>
        <pt x="71" y="-341" on="1"/>
      </contour>
      <contour>
        <pt x="-274" y="-284" on="1"/>
      </contour>
    </TTGlyph>
    <TTGlyph name="glyph00187" xMin="-1075" yMin="-806" xMax="-183" yMax="0">
      <contour>
        <pt x="-1075" y="-465" on="1"/>
        <pt x="-1046" y="-340" on="1"/>
        <pt x="-878" y="-437" on="0"/>
        <pt x="-693" y="-437" on="1"/>
        <pt x="-711" y="-420" on="1"/>
        <pt x="-743" y="-389" on="0"/>
        <pt x="-789" y="-289" on="0"/>
        <pt x="-789" y="-230" on="1"/>
        <pt x="-789" y="-179" on="0"/>
        <pt x="-727" y="-96" on="0"/>
        <pt x="-608" y="-51" on="0"/>
        <pt x="-482" y="-51" on="1"/>
        <pt x="-487" y="-181" on="1"/>
        <pt x="-554" y="-181" on="0"/>
        <pt x="-606" y="-192" on="0"/>
        <pt x="-638" y="-224" on="0"/>
        <pt x="-638" y="-253" on="1"/>
        <pt x="-638" y="-307" on="0"/>
        <pt x="-516" y="-413" on="0"/>
        <pt x="-444" y="-413" on="1"/>
        <pt x="-401" y="-413" on="0"/>
        <pt x="-362" y="-389" on="0"/>
        <pt x="-348" y="-350" on="0"/>
        <pt x="-348" y="-313" on="1"/>
        <pt x="-348" y="0" on="1"/>
        <pt x="-183" y="0" on="1"/>
        <pt x="-183" y="-287" on="1"/>
        <pt x="-183" y="-393" on="0"/>
        <pt x="-240" y="-489" on="0"/>
        <pt x="-338" y="-538" on="0"/>
        <pt x="-425" y="-538" on="1"/>
        <pt x="-432" y="-538" on="0"/>
        <pt x="-439" y="-537" on="1"/>
        <pt x="-454" y="-537" on="1"/>
        <pt x="-565" y="-570" on="0"/>
        <pt x="-683" y="-570" on="1"/>
        <pt x="-789" y="-570" on="0"/>
        <pt x="-993" y="-516" on="0"/>
      </contour>
      <contour>
        <pt x="-1075" y="-701" on="1"/>
        <pt x="-1046" y="-575" on="1"/>
        <pt x="-956" y="-627" on="0"/>
        <pt x="-782" y="-672" on="0"/>
        <pt x="-683" y="-672" on="1"/>
        <pt x="-583" y="-672" on="0"/>
        <pt x="-411" y="-627" on="0"/>
        <pt x="-319" y="-575" on="1"/>
        <pt x="-290" y="-701" on="1"/>
        <pt x="-373" y="-752" on="0"/>
        <pt x="-577" y="-806" on="0"/>
        <pt x="-683" y="-806" on="1"/>
        <pt x="-789" y="-806" on="0"/>
        <pt x="-992" y="-752" on="0"/>
      </contour>
    </TTGlyph>
    <TTGlyph name="glyph00188" xMin="-1083" yMin="-806" xMax="-142" yMax="0">
      <contour>
        <pt x="-1083" y="-465" on="1"/>
        <pt x="-1054" y="-340" on="1"/>
        <pt x="-964" y="-392" on="0"/>
        <pt x="-790" y="-437" on="0"/>
        <pt x="-691" y="-437" on="1"/>
        <pt x="-641" y="-437" on="0"/>
        <pt x="-599" y="-432" on="1"/>
        <pt x="-591" y="-402" on="0"/>
        <pt x="-573" y="-380" on="1"/>
        <pt x="-642" y="-362" on="0"/>
        <pt x="-711" y="-279" on="0"/>
        <pt x="-711" y="-214" on="1"/>
        <pt x="-711" y="-160" on="0"/>
        <pt x="-651" y="-86" on="0"/>
        <pt x="-552" y="-59" on="0"/>
        <pt x="-461" y="-59" on="1"/>
        <pt x="-348" y="-59" on="1"/>
        <pt x="-348" y="0" on="1"/>
        <pt x="-183" y="0" on="1"/>
        <pt x="-183" y="-127" on="1"/>
        <pt x="-232" y="-176" on="1"/>
        <pt x="-491" y="-176" on="1"/>
        <pt x="-531" y="-176" on="0"/>
        <pt x="-556" y="-184" on="0"/>
        <pt x="-575" y="-204" on="0"/>
        <pt x="-575" y="-223" on="1"/>
        <pt x="-575" y="-249" on="0"/>
        <pt x="-533" y="-278" on="0"/>
        <pt x="-454" y="-278" on="1"/>
        <pt x="-175" y="-278" on="1"/>
        <pt x="-175" y="-395" on="1"/>
        <pt x="-394" y="-395" on="1"/>
        <pt x="-435" y="-395" on="0"/>
        <pt x="-467" y="-420" on="0"/>
        <pt x="-467" y="-442" on="1"/>
        <pt x="-467" y="-509" on="0"/>
        <pt x="-331" y="-509" on="1"/>
        <pt x="-253" y="-509" on="0"/>
        <pt x="-176" y="-487" on="1"/>
        <pt x="-142" y="-599" on="1"/>
        <pt x="-210" y="-622" on="0"/>
        <pt x="-315" y="-626" on="1"/>
        <pt x="-298" y="-701" on="1"/>
        <pt x="-381" y="-752" on="0"/>
        <pt x="-585" y="-806" on="0"/>
        <pt x="-691" y="-806" on="1"/>
        <pt x="-797" y="-806" on="0"/>
        <pt x="-1000" y="-752" on="0"/>
        <pt x="-1083" y="-701" on="1"/>
        <pt x="-1054" y="-575" on="1"/>
        <pt x="-964" y="-627" on="0"/>
        <pt x="-790" y="-672" on="0"/>
        <pt x="-691" y="-672" on="1"/>
        <pt x="-544" y="-672" on="0"/>
        <pt x="-424" y="-623" on="1"/>
        <pt x="-516" y="-611" on="0"/>
        <pt x="-565" y="-560" on="1"/>
        <pt x="-632" y="-570" on="0"/>
        <pt x="-691" y="-570" on="1"/>
        <pt x="-797" y="-570" on="0"/>
        <pt x="-1001" y="-516" on="0"/>
      </contour>
      <contour>
        <pt x="-366" y="-627" on="1"/>
      </contour>
    </TTGlyph>
    <TTGlyph name="glyph00189" xMin="-975" yMin="-806" xMax="148" yMax="-59">
      <contour>
        <pt x="-202" y="-59" on="1"/>
        <pt x="-145" y="-201" on="0"/>
        <pt x="-4" y="-336" on="0"/>
        <pt x="148" y="-351" on="1"/>
        <pt x="113" y="-498" on="1"/>
        <pt x="-30" y="-473" on="0"/>
        <pt x="-191" y="-378" on="0"/>
        <pt x="-305" y="-214" on="0"/>
        <pt x="-343" y="-105" on="1"/>
      </contour>
      <contour>
        <pt x="-975" y="-465" on="1"/>
        <pt x="-946" y="-340" on="1"/>
        <pt x="-856" y="-392" on="0"/>
        <pt x="-682" y="-437" on="0"/>
        <pt x="-583" y="-437" on="1"/>
        <pt x="-483" y="-437" on="0"/>
        <pt x="-310" y="-392" on="0"/>
        <pt x="-219" y="-340" on="1"/>
        <pt x="-190" y="-465" on="1"/>
        <pt x="-272" y="-516" on="0"/>
        <pt x="-477" y="-570" on="0"/>
        <pt x="-583" y="-570" on="1"/>
        <pt x="-689" y="-570" on="0"/>
        <pt x="-893" y="-516" on="0"/>
      </contour>
      <contour>
        <pt x="-975" y="-701" on="1"/>
        <pt x="-946" y="-575" on="1"/>
        <pt x="-856" y="-627" on="0"/>
        <pt x="-682" y="-672" on="0"/>
        <pt x="-583" y="-672" on="1"/>
        <pt x="-483" y="-672" on="0"/>
        <pt x="-311" y="-627" on="0"/>
        <pt x="-219" y="-575" on="1"/>
        <pt x="-190" y="-701" on="1"/>
        <pt x="-273" y="-752" on="0"/>
        <pt x="-477" y="-806" on="0"/>
        <pt x="-583" y="-806" on="1"/>
        <pt x="-689" y="-806" on="0"/>
        <pt x="-892" y="-752" on="0"/>
      </contour>
    </TTGlyph>
    <TTGlyph name="glyph00190" xMin="-1080" yMin="-806" xMax="44" yMax="-52">
      <contour>
        <pt x="-1080" y="-465" on="1"/>
        <pt x="-1051" y="-340" on="1"/>
        <pt x="-961" y="-392" on="0"/>
        <pt x="-787" y="-437" on="0"/>
        <pt x="-688" y="-437" on="1"/>
        <pt x="-547" y="-437" on="0"/>
        <pt x="-425" y="-389" on="1"/>
        <pt x="-463" y="-321" on="0"/>
        <pt x="-463" y="-216" on="1"/>
        <pt x="-463" y="-135" on="0"/>
        <pt x="-448" y="-52" on="1"/>
        <pt x="-297" y="-69" on="1"/>
        <pt x="-307" y="-120" on="0"/>
        <pt x="-307" y="-202" on="1"/>
        <pt x="-307" y="-288" on="0"/>
        <pt x="-253" y="-362" on="0"/>
        <pt x="-197" y="-362" on="1"/>
        <pt x="-154" y="-362" on="0"/>
        <pt x="-98" y="-310" on="0"/>
        <pt x="-72" y="-251" on="1"/>
        <pt x="44" y="-312" on="1"/>
        <pt x="-5" y="-414" on="0"/>
        <pt x="-128" y="-500" on="0"/>
        <pt x="-214" y="-500" on="1"/>
        <pt x="-271" y="-500" on="0"/>
        <pt x="-321" y="-480" on="1"/>
        <pt x="-398" y="-523" on="0"/>
        <pt x="-589" y="-570" on="0"/>
        <pt x="-688" y="-570" on="1"/>
        <pt x="-794" y="-570" on="0"/>
        <pt x="-998" y="-516" on="0"/>
      </contour>
      <contour>
        <pt x="-1080" y="-701" on="1"/>
        <pt x="-1051" y="-575" on="1"/>
        <pt x="-961" y="-627" on="0"/>
        <pt x="-787" y="-672" on="0"/>
        <pt x="-688" y="-672" on="1"/>
        <pt x="-588" y="-672" on="0"/>
        <pt x="-416" y="-627" on="0"/>
        <pt x="-324" y="-575" on="1"/>
        <pt x="-295" y="-701" on="1"/>
        <pt x="-378" y="-752" on="0"/>
        <pt x="-582" y="-806" on="0"/>
        <pt x="-688" y="-806" on="1"/>
        <pt x="-794" y="-806" on="0"/>
        <pt x="-997" y="-752" on="0"/>
      </contour>
    </TTGlyph>
    <TTGlyph name="glyph00191" xMin="-15" yMin="-548" xMax="1441" yMax="1274">
      <contour>
        <pt x="1000" y="0" on="1"/>
        <pt x="1000" y="37" on="0"/>
        <pt x="961" y="293" on="0"/>
        <pt x="916" y="411" on="1"/>
        <pt x="831" y="302" on="0"/>
        <pt x="604" y="193" on="0"/>
        <pt x="470" y="193" on="1"/>
        <pt x="285" y="193" on="0"/>
        <pt x="72" y="383" on="0"/>
        <pt x="72" y="548" on="1"/>
        <pt x="72" y="711" on="0"/>
        <pt x="296" y="904" on="0"/>
        <pt x="472" y="904" on="1"/>
        <pt x="607" y="904" on="0"/>
        <pt x="819" y="809" on="0"/>
        <pt x="905" y="710" on="1"/>
        <pt x="931" y="804" on="0"/>
        <pt x="931" y="938" on="1"/>
        <pt x="931" y="1029" on="0"/>
        <pt x="911" y="1128" on="1"/>
        <pt x="-15" y="1128" on="1"/>
        <pt x="-15" y="1274" on="1"/>
        <pt x="1288" y="1274" on="1"/>
        <pt x="1288" y="1128" on="1"/>
        <pt x="1077" y="1128" on="1"/>
        <pt x="1083" y="1100" on="0"/>
        <pt x="1096" y="979" on="0"/>
        <pt x="1096" y="939" on="1"/>
        <pt x="1096" y="725" on="0"/>
        <pt x="1011" y="561" on="1"/>
        <pt x="1073" y="453" on="0"/>
        <pt x="1150" y="173" on="0"/>
        <pt x="1164" y="0" on="1"/>
        <pt x="1164" y="-32" on="1"/>
        <pt x="1164" y="-141" on="0"/>
        <pt x="1144" y="-199" on="1"/>
        <pt x="1293" y="-267" on="0"/>
        <pt x="1441" y="-468" on="1"/>
        <pt x="1319" y="-548" on="1"/>
        <pt x="1204" y="-383" on="0"/>
        <pt x="1072" y="-316" on="1"/>
        <pt x="1033" y="-356" on="0"/>
        <pt x="938" y="-396" on="0"/>
        <pt x="882" y="-396" on="1"/>
        <pt x="792" y="-396" on="0"/>
        <pt x="697" y="-331" on="0"/>
        <pt x="697" y="-268" on="1"/>
        <pt x="697" y="-207" on="0"/>
        <pt x="795" y="-144" on="0"/>
        <pt x="886" y="-144" on="1"/>
        <pt x="935" y="-144" on="0"/>
        <pt x="997" y="-155" on="1"/>
        <pt x="1000" y="-135" on="0"/>
        <pt x="1000" y="-114" on="1"/>
      </contour>
      <contour>
        <pt x="848" y="555" on="1"/>
        <pt x="774" y="656" on="0"/>
        <pt x="593" y="758" on="0"/>
        <pt x="485" y="758" on="1"/>
        <pt x="370" y="758" on="0"/>
        <pt x="240" y="647" on="0"/>
        <pt x="240" y="547" on="1"/>
        <pt x="240" y="450" on="0"/>
        <pt x="364" y="339" on="0"/>
        <pt x="471" y="339" on="1"/>
        <pt x="591" y="339" on="0"/>
        <pt x="779" y="447" on="0"/>
      </contour>
      <contour>
        <pt x="1050" y="1274" on="1"/>
      </contour>
      <contour>
        <pt x="1084" y="-345" on="1"/>
      </contour>
      <contour>
        <pt x="1419" y="-402" on="1"/>
      </contour>
    </TTGlyph>
    <TTGlyph name="glyph00192" xMin="-651" yMin="-548" xMax="101" yMax="146">
      <contour>
        <pt x="-29" y="-548" on="1"/>
        <pt x="-144" y="-383" on="0"/>
        <pt x="-276" y="-316" on="1"/>
        <pt x="-315" y="-356" on="0"/>
        <pt x="-410" y="-396" on="0"/>
        <pt x="-466" y="-396" on="1"/>
        <pt x="-556" y="-396" on="0"/>
        <pt x="-651" y="-331" on="0"/>
        <pt x="-651" y="-268" on="1"/>
        <pt x="-651" y="-207" on="0"/>
        <pt x="-553" y="-144" on="0"/>
        <pt x="-462" y="-144" on="1"/>
        <pt x="-413" y="-144" on="0"/>
        <pt x="-351" y="-155" on="1"/>
        <pt x="-348" y="-135" on="0"/>
        <pt x="-348" y="-114" on="1"/>
        <pt x="-348" y="90" on="1"/>
        <pt x="-188" y="130" on="1"/>
        <pt x="-188" y="-35" on="1"/>
        <pt x="-188" y="-146" on="0"/>
        <pt x="-204" y="-199" on="1"/>
        <pt x="-55" y="-267" on="0"/>
        <pt x="93" y="-468" on="1"/>
      </contour>
      <contour>
        <pt x="-348" y="0" on="1"/>
      </contour>
      <contour>
        <pt x="101" y="-402" on="1"/>
      </contour>
      <contour>
        <pt x="-348" y="146" on="1"/>
      </contour>
      <contour>
        <pt x="-254" y="-345" on="1"/>
      </contour>
    </TTGlyph>
    <TTGlyph name="glyph00193" xMin="-789" yMin="-638" xMax="-188" yMax="146">
      <contour>
        <pt x="-188" y="-387" on="1"/>
        <pt x="-188" y="-483" on="0"/>
        <pt x="-234" y="-580" on="0"/>
        <pt x="-334" y="-638" on="0"/>
        <pt x="-425" y="-638" on="1"/>
        <pt x="-579" y="-638" on="0"/>
        <pt x="-789" y="-454" on="0"/>
        <pt x="-789" y="-330" on="1"/>
        <pt x="-789" y="-279" on="0"/>
        <pt x="-727" y="-196" on="0"/>
        <pt x="-608" y="-151" on="0"/>
        <pt x="-482" y="-151" on="1"/>
        <pt x="-487" y="-281" on="1"/>
        <pt x="-554" y="-281" on="0"/>
        <pt x="-606" y="-292" on="0"/>
        <pt x="-638" y="-324" on="0"/>
        <pt x="-638" y="-353" on="1"/>
        <pt x="-638" y="-407" on="0"/>
        <pt x="-516" y="-513" on="0"/>
        <pt x="-444" y="-513" on="1"/>
        <pt x="-401" y="-513" on="0"/>
        <pt x="-362" y="-489" on="0"/>
        <pt x="-348" y="-450" on="0"/>
        <pt x="-348" y="-413" on="1"/>
        <pt x="-348" y="90" on="1"/>
        <pt x="-188" y="94" on="1"/>
      </contour>
      <contour>
        <pt x="-348" y="0" on="1"/>
      </contour>
      <contour>
        <pt x="-348" y="146" on="1"/>
      </contour>
    </TTGlyph>
    <TTGlyph name="glyph00194" xMin="-751" yMin="-627" xMax="-142" yMax="146">
      <contour>
        <pt x="-175" y="-278" on="1"/>
        <pt x="-175" y="-395" on="1"/>
        <pt x="-434" y="-395" on="1"/>
        <pt x="-475" y="-395" on="0"/>
        <pt x="-507" y="-420" on="0"/>
        <pt x="-507" y="-442" on="1"/>
        <pt x="-507" y="-509" on="0"/>
        <pt x="-352" y="-509" on="1"/>
        <pt x="-263" y="-509" on="0"/>
        <pt x="-176" y="-487" on="1"/>
        <pt x="-142" y="-599" on="1"/>
        <pt x="-236" y="-627" on="0"/>
        <pt x="-375" y="-627" on="1"/>
        <pt x="-507" y="-627" on="0"/>
        <pt x="-642" y="-541" on="0"/>
        <pt x="-642" y="-463" on="1"/>
        <pt x="-642" y="-413" on="0"/>
        <pt x="-613" y="-380" on="1"/>
        <pt x="-682" y="-362" on="0"/>
        <pt x="-751" y="-279" on="0"/>
        <pt x="-751" y="-214" on="1"/>
        <pt x="-751" y="-160" on="0"/>
        <pt x="-691" y="-86" on="0"/>
        <pt x="-592" y="-59" on="0"/>
        <pt x="-501" y="-59" on="1"/>
        <pt x="-343" y="-59" on="1"/>
        <pt x="-343" y="90" on="1"/>
        <pt x="-183" y="130" on="1"/>
        <pt x="-183" y="-127" on="1"/>
        <pt x="-232" y="-176" on="1"/>
        <pt x="-531" y="-176" on="1"/>
        <pt x="-571" y="-176" on="0"/>
        <pt x="-596" y="-184" on="0"/>
        <pt x="-615" y="-204" on="0"/>
        <pt x="-615" y="-223" on="1"/>
        <pt x="-615" y="-249" on="0"/>
        <pt x="-573" y="-278" on="0"/>
        <pt x="-494" y="-278" on="1"/>
      </contour>
      <contour>
        <pt x="-348" y="0" on="1"/>
      </contour>
      <contour>
        <pt x="-348" y="146" on="1"/>
      </contour>
    </TTGlyph>
    <TTGlyph name="glyph00195" xMin="-15" yMin="-806" xMax="1343" yMax="1836">
      <contour>
        <pt x="664" y="775" on="1"/>
        <pt x="460" y="723" on="0"/>
        <pt x="244" y="527" on="0"/>
        <pt x="244" y="399" on="1"/>
        <pt x="244" y="277" on="0"/>
        <pt x="376" y="149" on="0"/>
        <pt x="501" y="149" on="1"/>
        <pt x="491" y="0" on="1"/>
        <pt x="360" y="0" on="0"/>
        <pt x="176" y="102" on="0"/>
        <pt x="80" y="289" on="0"/>
        <pt x="80" y="397" on="1"/>
        <pt x="80" y="567" on="0"/>
        <pt x="341" y="834" on="0"/>
        <pt x="582" y="898" on="1"/>
        <pt x="582" y="1128" on="1"/>
        <pt x="-15" y="1128" on="1"/>
        <pt x="-15" y="1274" on="1"/>
        <pt x="1343" y="1274" on="1"/>
        <pt x="1343" y="1128" on="1"/>
        <pt x="746" y="1128" on="1"/>
        <pt x="746" y="898" on="1"/>
        <pt x="988" y="834" on="0"/>
        <pt x="1248" y="567" on="0"/>
        <pt x="1248" y="397" on="1"/>
        <pt x="1248" y="291" on="0"/>
        <pt x="1155" y="105" on="0"/>
        <pt x="970" y="0" on="0"/>
        <pt x="837" y="0" on="1"/>
        <pt x="827" y="149" on="1"/>
        <pt x="952" y="149" on="0"/>
        <pt x="1084" y="277" on="0"/>
        <pt x="1084" y="399" on="1"/>
        <pt x="1084" y="527" on="0"/>
        <pt x="868" y="723" on="0"/>
      </contour>
      <contour>
        <pt x="662" y="752" on="1"/>
      </contour>
      <contour>
        <pt x="788" y="1411" on="1"/>
        <pt x="814" y="1471" on="0"/>
        <pt x="814" y="1529" on="1"/>
        <pt x="814" y="1593" on="0"/>
        <pt x="736" y="1660" on="0"/>
        <pt x="663" y="1660" on="1"/>
        <pt x="590" y="1660" on="0"/>
        <pt x="513" y="1592" on="0"/>
        <pt x="513" y="1529" on="1"/>
        <pt x="513" y="1471" on="0"/>
        <pt x="539" y="1411" on="1"/>
        <pt x="399" y="1390" on="1"/>
        <pt x="366" y="1470" on="0"/>
        <pt x="366" y="1546" on="1"/>
        <pt x="366" y="1657" on="0"/>
        <pt x="530" y="1793" on="0"/>
        <pt x="662" y="1793" on="1"/>
        <pt x="798" y="1793" on="0"/>
        <pt x="961" y="1658" on="0"/>
        <pt x="961" y="1545" on="1"/>
        <pt x="961" y="1471" on="0"/>
        <pt x="928" y="1390" on="1"/>
      </contour>
      <contour>
        <pt x="765" y="1836" on="1"/>
      </contour>
      <contour>
        <pt x="271" y="-215" on="1"/>
        <pt x="300" y="-90" on="1"/>
        <pt x="390" y="-142" on="0"/>
        <pt x="564" y="-187" on="0"/>
        <pt x="663" y="-187" on="1"/>
        <pt x="763" y="-187" on="0"/>
        <pt x="936" y="-142" on="0"/>
        <pt x="1027" y="-90" on="1"/>
        <pt x="1056" y="-215" on="1"/>
        <pt x="974" y="-266" on="0"/>
        <pt x="769" y="-320" on="0"/>
        <pt x="663" y="-320" on="1"/>
        <pt x="557" y="-320" on="0"/>
        <pt x="353" y="-266" on="0"/>
      </contour>
      <contour>
        <pt x="271" y="-483" on="1"/>
        <pt x="300" y="-357" on="1"/>
        <pt x="390" y="-409" on="0"/>
        <pt x="564" y="-454" on="0"/>
        <pt x="663" y="-454" on="1"/>
        <pt x="763" y="-454" on="0"/>
        <pt x="935" y="-409" on="0"/>
        <pt x="1027" y="-357" on="1"/>
        <pt x="1056" y="-483" on="1"/>
        <pt x="973" y="-534" on="0"/>
        <pt x="769" y="-588" on="0"/>
        <pt x="663" y="-588" on="1"/>
        <pt x="557" y="-588" on="0"/>
        <pt x="354" y="-534" on="0"/>
      </contour>
      <contour>
        <pt x="678" y="-806" on="1"/>
      </contour>
    </TTGlyph>
    <TTGlyph name="glyph00196" xMin="-15" yMin="-548" xMax="1200" yMax="1274">
      <component glyphName="uni0A2B" x="0" y="0" flags="0x200"/>
      <component glyphName="glyph00273" x="1235" y="0" flags="0x4"/>
      <component glyphName="uni0A3C" x="788" y="194" flags="0x4"/>
    </TTGlyph>
    <TTGlyph name="glyph00197" xMin="-15" yMin="-726" xMax="1200" yMax="1274">
      <component glyphName="uni0A2B" x="0" y="0" flags="0x200"/>
      <component glyphName="glyph00214" x="1235" y="80" flags="0x4"/>
      <component glyphName="uni0A3C" x="788" y="194" flags="0x4"/>
    </TTGlyph>
    <TTGlyph name="glyph00198" xMin="-15" yMin="0" xMax="1727" yMax="1836">
      <component glyphName="uni0A08" x="0" y="0" flags="0x200"/>
      <component glyphName="glyph00290" x="1880" y="0" flags="0x4"/>
    </TTGlyph>
    <TTGlyph name="glyph00199" xMin="-15" yMin="-555" xMax="1438" yMax="1836">
      <component glyphName="uni0A73" x="0" y="0" flags="0x204"/>
      <component glyphName="uni0A41" x="1312" y="0" flags="0x4"/>
      <component glyphName="glyph00290" x="1591" y="0" flags="0x4"/>
    </TTGlyph>
    <TTGlyph name="glyph00200" xMin="-15" yMin="-806" xMax="1438" yMax="1836">
      <component glyphName="uni0A73" x="0" y="0" flags="0x204"/>
      <component glyphName="uni0A42" x="1312" y="0" flags="0x4"/>
      <component glyphName="glyph00290" x="1591" y="0" flags="0x4"/>
    </TTGlyph>
    <TTGlyph name="glyph00201" xMin="-15" yMin="0" xMax="1156" yMax="1836">
      <component glyphName="uni0A72" x="0" y="0" flags="0x200"/>
      <component glyphName="glyph00206" x="1141" y="0" flags="0x4"/>
    </TTGlyph>
    <TTGlyph name="glyph00202" xMin="-15" yMin="0" xMax="1535" yMax="1836">
      <component glyphName="uni0A05" x="0" y="0" flags="0x200"/>
      <component glyphName="glyph00207" x="1520" y="0" flags="0x4"/>
    </TTGlyph>
    <TTGlyph name="glyph00203" xMin="-15" yMin="0" xMax="1371" yMax="1836">
      <contour>
        <pt x="1286" y="1128" on="1"/>
        <pt x="1274" y="940" on="0"/>
        <pt x="1109" y="703" on="0"/>
        <pt x="957" y="654" on="1"/>
        <pt x="1051" y="609" on="0"/>
        <pt x="1153" y="452" on="0"/>
        <pt x="1153" y="359" on="1"/>
        <pt x="1153" y="187" on="0"/>
        <pt x="938" y="0" on="0"/>
        <pt x="736" y="0" on="1"/>
        <pt x="443" y="0" on="0"/>
        <pt x="135" y="438" on="0"/>
        <pt x="135" y="863" on="1"/>
        <pt x="135" y="901" on="1"/>
        <pt x="135" y="1025" on="0"/>
        <pt x="149" y="1128" on="1"/>
        <pt x="-15" y="1128" on="1"/>
        <pt x="-15" y="1274" on="1"/>
        <pt x="177" y="1274" on="1"/>
        <pt x="215" y="1413" on="0"/>
        <pt x="350" y="1591" on="0"/>
        <pt x="534" y="1691" on="0"/>
        <pt x="758" y="1727" on="0"/>
        <pt x="929" y="1727" on="1"/>
        <pt x="1067" y="1727" on="1"/>
        <pt x="1057" y="1581" on="1"/>
        <pt x="949" y="1581" on="1"/>
        <pt x="714" y="1581" on="0"/>
        <pt x="505" y="1518" on="0"/>
        <pt x="381" y="1381" on="0"/>
        <pt x="348" y="1274" on="1"/>
        <pt x="1371" y="1274" on="1"/>
        <pt x="1371" y="1128" on="1"/>
      </contour>
      <contour>
        <pt x="1122" y="1128" on="1"/>
        <pt x="317" y="1128" on="1"/>
        <pt x="303" y="1031" on="0"/>
        <pt x="303" y="888" on="1"/>
        <pt x="303" y="869" on="1"/>
        <pt x="303" y="801" on="0"/>
        <pt x="306" y="741" on="1"/>
        <pt x="575" y="741" on="1"/>
        <pt x="762" y="741" on="0"/>
        <pt x="935" y="781" on="0"/>
        <pt x="1053" y="869" on="0"/>
        <pt x="1118" y="1014" on="0"/>
      </contour>
      <contour>
        <pt x="322" y="595" on="1"/>
        <pt x="356" y="372" on="0"/>
        <pt x="559" y="149" on="0"/>
        <pt x="727" y="149" on="1"/>
        <pt x="859" y="149" on="0"/>
        <pt x="985" y="251" on="0"/>
        <pt x="985" y="361" on="1"/>
        <pt x="985" y="407" on="0"/>
        <pt x="956" y="482" on="0"/>
        <pt x="906" y="531" on="0"/>
        <pt x="815" y="577" on="0"/>
        <pt x="670" y="595" on="0"/>
        <pt x="542" y="595" on="1"/>
      </contour>
      <contour>
        <pt x="1209" y="1610" on="1"/>
        <pt x="1258" y="1610" on="0"/>
        <pt x="1322" y="1545" on="0"/>
        <pt x="1322" y="1493" on="1"/>
        <pt x="1322" y="1440" on="0"/>
        <pt x="1260" y="1376" on="0"/>
        <pt x="1209" y="1376" on="1"/>
        <pt x="1159" y="1376" on="0"/>
        <pt x="1096" y="1441" on="0"/>
        <pt x="1096" y="1493" on="1"/>
        <pt x="1096" y="1545" on="0"/>
        <pt x="1160" y="1610" on="0"/>
      </contour>
      <contour>
        <pt x="684" y="0" on="1"/>
      </contour>
      <contour>
        <pt x="836" y="1836" on="1"/>
      </contour>
    </TTGlyph>
    <TTGlyph name="glyph00204" xMin="-15" yMin="0" xMax="1671" yMax="1836">
      <component glyphName="uni0A05" x="0" y="0" flags="0x200"/>
      <component glyphName="glyph00209" x="1520" y="0" flags="0x4"/>
    </TTGlyph>
    <TTGlyph name="glyph00205" xMin="-372" yMin="0" xMax="586" yMax="1836">
      <component glyphName="uni0A40" x="0" y="0" flags="0x200"/>
      <component glyphName="glyph00290" x="739" y="0" flags="0x4"/>
    </TTGlyph>
    <TTGlyph name="glyph00206" xMin="-815" yMin="1259" xMax="-65" yMax="1836">
      <contour>
        <pt x="-341" y="1259" on="1"/>
        <pt x="-390" y="1467" on="0"/>
        <pt x="-584" y="1680" on="0"/>
        <pt x="-749" y="1680" on="1"/>
        <pt x="-786" y="1680" on="1"/>
        <pt x="-798" y="1680" on="0"/>
        <pt x="-806" y="1679" on="1"/>
        <pt x="-815" y="1834" on="1"/>
        <pt x="-797" y="1836" on="0"/>
        <pt x="-764" y="1836" on="1"/>
        <pt x="-531" y="1836" on="0"/>
        <pt x="-247" y="1550" on="0"/>
        <pt x="-184" y="1259" on="1"/>
      </contour>
      <contour>
        <pt x="-178" y="1836" on="1"/>
        <pt x="-129" y="1836" on="0"/>
        <pt x="-65" y="1771" on="0"/>
        <pt x="-65" y="1719" on="1"/>
        <pt x="-65" y="1666" on="0"/>
        <pt x="-127" y="1602" on="0"/>
        <pt x="-178" y="1602" on="1"/>
        <pt x="-228" y="1602" on="0"/>
        <pt x="-291" y="1667" on="0"/>
        <pt x="-291" y="1719" on="1"/>
        <pt x="-291" y="1771" on="0"/>
        <pt x="-227" y="1836" on="0"/>
      </contour>
      <contour>
        <pt x="-183" y="1274" on="1"/>
      </contour>
    </TTGlyph>
    <TTGlyph name="glyph00207" xMin="-815" yMin="1182" xMax="-41" yMax="1836">
      <contour>
        <pt x="-325" y="1182" on="1"/>
        <pt x="-393" y="1295" on="0"/>
        <pt x="-598" y="1405" on="0"/>
        <pt x="-765" y="1405" on="1"/>
        <pt x="-785" y="1405" on="1"/>
        <pt x="-796" y="1405" on="0"/>
        <pt x="-805" y="1404" on="1"/>
        <pt x="-815" y="1554" on="1"/>
        <pt x="-795" y="1556" on="0"/>
        <pt x="-773" y="1556" on="1"/>
        <pt x="-627" y="1556" on="0"/>
        <pt x="-402" y="1455" on="0"/>
        <pt x="-323" y="1355" on="1"/>
        <pt x="-379" y="1523" on="0"/>
        <pt x="-572" y="1684" on="0"/>
        <pt x="-736" y="1684" on="1"/>
        <pt x="-751" y="1684" on="1"/>
        <pt x="-759" y="1684" on="0"/>
        <pt x="-766" y="1683" on="1"/>
        <pt x="-775" y="1834" on="1"/>
        <pt x="-757" y="1836" on="0"/>
        <pt x="-736" y="1836" on="1"/>
        <pt x="-498" y="1836" on="0"/>
        <pt x="-227" y="1554" on="0"/>
        <pt x="-170" y="1259" on="1"/>
        <pt x="-255" y="1252" on="1"/>
        <pt x="-247" y="1238" on="0"/>
        <pt x="-240" y="1224" on="1"/>
      </contour>
      <contour>
        <pt x="-154" y="1836" on="1"/>
        <pt x="-105" y="1836" on="0"/>
        <pt x="-41" y="1771" on="0"/>
        <pt x="-41" y="1719" on="1"/>
        <pt x="-41" y="1666" on="0"/>
        <pt x="-103" y="1602" on="0"/>
        <pt x="-154" y="1602" on="1"/>
        <pt x="-204" y="1602" on="0"/>
        <pt x="-267" y="1667" on="0"/>
        <pt x="-267" y="1719" on="1"/>
        <pt x="-267" y="1771" on="0"/>
        <pt x="-203" y="1836" on="0"/>
      </contour>
      <contour>
        <pt x="-183" y="1274" on="1"/>
      </contour>
    </TTGlyph>
    <TTGlyph name="glyph00208" xMin="-966" yMin="1259" xMax="-75" yMax="1836">
      <contour>
        <pt x="-345" y="1259" on="1"/>
        <pt x="-356" y="1386" on="0"/>
        <pt x="-427" y="1494" on="0"/>
        <pt x="-504" y="1494" on="1"/>
        <pt x="-524" y="1494" on="0"/>
        <pt x="-577" y="1489" on="1"/>
        <pt x="-630" y="1483" on="0"/>
        <pt x="-656" y="1483" on="1"/>
        <pt x="-782" y="1483" on="0"/>
        <pt x="-925" y="1639" on="0"/>
        <pt x="-966" y="1797" on="1"/>
        <pt x="-820" y="1836" on="1"/>
        <pt x="-778" y="1702" on="0"/>
        <pt x="-705" y="1629" on="0"/>
        <pt x="-640" y="1629" on="1"/>
        <pt x="-614" y="1629" on="0"/>
        <pt x="-564" y="1634" on="1"/>
        <pt x="-515" y="1639" on="0"/>
        <pt x="-488" y="1639" on="1"/>
        <pt x="-345" y="1639" on="0"/>
        <pt x="-200" y="1452" on="0"/>
        <pt x="-195" y="1259" on="1"/>
      </contour>
      <contour>
        <pt x="-188" y="1836" on="1"/>
        <pt x="-139" y="1836" on="0"/>
        <pt x="-75" y="1771" on="0"/>
        <pt x="-75" y="1719" on="1"/>
        <pt x="-75" y="1666" on="0"/>
        <pt x="-137" y="1602" on="0"/>
        <pt x="-188" y="1602" on="1"/>
        <pt x="-238" y="1602" on="0"/>
        <pt x="-301" y="1667" on="0"/>
        <pt x="-301" y="1719" on="1"/>
        <pt x="-301" y="1771" on="0"/>
        <pt x="-237" y="1836" on="0"/>
      </contour>
      <contour>
        <pt x="-183" y="1274" on="1"/>
      </contour>
    </TTGlyph>
    <TTGlyph name="glyph00209" xMin="-1013" yMin="1274" xMax="151" yMax="1836">
      <contour>
        <pt x="-275" y="1411" on="1"/>
        <pt x="-249" y="1471" on="0"/>
        <pt x="-249" y="1529" on="1"/>
        <pt x="-249" y="1593" on="0"/>
        <pt x="-321" y="1660" on="0"/>
        <pt x="-388" y="1660" on="1"/>
        <pt x="-455" y="1660" on="0"/>
        <pt x="-526" y="1591" on="0"/>
        <pt x="-526" y="1529" on="1"/>
        <pt x="-526" y="1471" on="0"/>
        <pt x="-500" y="1411" on="1"/>
        <pt x="-640" y="1390" on="1"/>
        <pt x="-673" y="1470" on="0"/>
        <pt x="-673" y="1546" on="1"/>
        <pt x="-673" y="1557" on="0"/>
        <pt x="-672" y="1568" on="1"/>
        <pt x="-693" y="1564" on="0"/>
        <pt x="-715" y="1564" on="1"/>
        <pt x="-843" y="1564" on="0"/>
        <pt x="-985" y="1686" on="0"/>
        <pt x="-1013" y="1797" on="1"/>
        <pt x="-867" y="1836" on="1"/>
        <pt x="-844" y="1761" on="0"/>
        <pt x="-779" y="1697" on="0"/>
        <pt x="-707" y="1697" on="1"/>
        <pt x="-671" y="1697" on="0"/>
        <pt x="-621" y="1709" on="0"/>
        <pt x="-586" y="1731" on="1"/>
        <pt x="-507" y="1793" on="0"/>
        <pt x="-389" y="1793" on="1"/>
        <pt x="-259" y="1793" on="0"/>
        <pt x="-102" y="1659" on="0"/>
        <pt x="-102" y="1545" on="1"/>
        <pt x="-102" y="1471" on="0"/>
        <pt x="-135" y="1390" on="1"/>
      </contour>
      <contour>
        <pt x="38" y="1836" on="1"/>
        <pt x="87" y="1836" on="0"/>
        <pt x="151" y="1771" on="0"/>
        <pt x="151" y="1719" on="1"/>
        <pt x="151" y="1666" on="0"/>
        <pt x="89" y="1602" on="0"/>
        <pt x="38" y="1602" on="1"/>
        <pt x="-12" y="1602" on="0"/>
        <pt x="-75" y="1667" on="0"/>
        <pt x="-75" y="1719" on="1"/>
        <pt x="-75" y="1771" on="0"/>
        <pt x="-11" y="1836" on="0"/>
      </contour>
      <contour>
        <pt x="-183" y="1274" on="1"/>
      </contour>
    </TTGlyph>
    <TTGlyph name="glyph00210" xMin="-15" yMin="-555" xMax="1438" yMax="1836">
      <component glyphName="uni0A73" x="0" y="0" flags="0x204"/>
      <component glyphName="uni0A41" x="1362" y="0" flags="0x4"/>
      <component glyphName="uni0A3C" x="770" y="255" flags="0x4"/>
      <component glyphName="glyph00290" x="1591" y="0" flags="0x4"/>
    </TTGlyph>
    <TTGlyph name="glyph00211" xMin="-15" yMin="-806" xMax="1438" yMax="1836">
      <component glyphName="uni0A73" x="0" y="0" flags="0x204"/>
      <component glyphName="uni0A42" x="1372" y="0" flags="0x4"/>
      <component glyphName="uni0A3C" x="770" y="255" flags="0x4"/>
      <component glyphName="glyph00290" x="1591" y="0" flags="0x4"/>
    </TTGlyph>
    <TTGlyph name="glyph00212" xMin="-15" yMin="1128" xMax="672" yMax="1836">
      <contour>
        <pt x="672" y="1768" on="1"/>
        <pt x="666" y="1585" on="0"/>
        <pt x="515" y="1403" on="0"/>
        <pt x="370" y="1403" on="1"/>
        <pt x="222" y="1403" on="0"/>
        <pt x="70" y="1585" on="0"/>
        <pt x="65" y="1768" on="1"/>
        <pt x="219" y="1777" on="1"/>
        <pt x="219" y="1651" on="0"/>
        <pt x="284" y="1541" on="0"/>
        <pt x="368" y="1541" on="1"/>
        <pt x="453" y="1541" on="0"/>
        <pt x="518" y="1654" on="0"/>
        <pt x="518" y="1777" on="1"/>
      </contour>
      <contour>
        <pt x="-15" y="1128" on="1"/>
        <pt x="-15" y="1274" on="1"/>
        <pt x="459" y="1274" on="1"/>
        <pt x="459" y="1128" on="1"/>
      </contour>
      <contour>
        <pt x="356" y="1836" on="1"/>
      </contour>
    </TTGlyph>
    <TTGlyph name="glyph00213" xMin="-1017" yMin="-806" xMax="-232" yMax="-344">
      <contour>
        <pt x="-1017" y="-482" on="1"/>
        <pt x="-988" y="-344" on="1"/>
        <pt x="-899" y="-395" on="0"/>
        <pt x="-724" y="-441" on="0"/>
        <pt x="-625" y="-441" on="1"/>
        <pt x="-526" y="-441" on="0"/>
        <pt x="-351" y="-395" on="0"/>
        <pt x="-261" y="-344" on="1"/>
        <pt x="-232" y="-482" on="1"/>
        <pt x="-314" y="-533" on="0"/>
        <pt x="-519" y="-587" on="0"/>
        <pt x="-625" y="-587" on="1"/>
        <pt x="-731" y="-587" on="0"/>
        <pt x="-934" y="-533" on="0"/>
      </contour>
      <contour>
        <pt x="-640" y="-806" on="1"/>
      </contour>
    </TTGlyph>
    <TTGlyph name="glyph00214" xMin="-1017" yMin="-806" xMax="-232" yMax="-308">
      <contour>
        <pt x="-1017" y="-433" on="1"/>
        <pt x="-988" y="-308" on="1"/>
        <pt x="-898" y="-360" on="0"/>
        <pt x="-724" y="-405" on="0"/>
        <pt x="-625" y="-405" on="1"/>
        <pt x="-525" y="-405" on="0"/>
        <pt x="-352" y="-360" on="0"/>
        <pt x="-261" y="-308" on="1"/>
        <pt x="-232" y="-433" on="1"/>
        <pt x="-314" y="-484" on="0"/>
        <pt x="-519" y="-538" on="0"/>
        <pt x="-625" y="-538" on="1"/>
        <pt x="-731" y="-538" on="0"/>
        <pt x="-935" y="-484" on="0"/>
      </contour>
      <contour>
        <pt x="-1017" y="-701" on="1"/>
        <pt x="-988" y="-575" on="1"/>
        <pt x="-898" y="-627" on="0"/>
        <pt x="-724" y="-672" on="0"/>
        <pt x="-625" y="-672" on="1"/>
        <pt x="-525" y="-672" on="0"/>
        <pt x="-353" y="-627" on="0"/>
        <pt x="-261" y="-575" on="1"/>
        <pt x="-232" y="-701" on="1"/>
        <pt x="-315" y="-752" on="0"/>
        <pt x="-519" y="-806" on="0"/>
        <pt x="-625" y="-806" on="1"/>
        <pt x="-731" y="-806" on="0"/>
        <pt x="-934" y="-752" on="0"/>
      </contour>
    </TTGlyph>
    <TTGlyph name="glyph00215" xMin="-896" yMin="1259" xMax="-183" yMax="1836">
      <contour>
        <pt x="-345" y="1259" on="1"/>
        <pt x="-361" y="1393" on="0"/>
        <pt x="-422" y="1494" on="0"/>
        <pt x="-489" y="1494" on="1"/>
        <pt x="-505" y="1494" on="0"/>
        <pt x="-550" y="1489" on="1"/>
        <pt x="-594" y="1483" on="0"/>
        <pt x="-622" y="1483" on="1"/>
        <pt x="-729" y="1483" on="0"/>
        <pt x="-857" y="1643" on="0"/>
        <pt x="-896" y="1797" on="1"/>
        <pt x="-750" y="1836" on="1"/>
        <pt x="-720" y="1722" on="0"/>
        <pt x="-659" y="1629" on="0"/>
        <pt x="-608" y="1629" on="1"/>
        <pt x="-570" y="1629" on="0"/>
        <pt x="-526" y="1634" on="1"/>
        <pt x="-482" y="1639" on="0"/>
        <pt x="-465" y="1639" on="1"/>
        <pt x="-339" y="1639" on="0"/>
        <pt x="-204" y="1449" on="0"/>
        <pt x="-195" y="1259" on="1"/>
      </contour>
      <contour>
        <pt x="-183" y="1274" on="1"/>
      </contour>
    </TTGlyph>
    <TTGlyph name="glyph00216" xMin="-896" yMin="1259" xMax="-75" yMax="1836">
      <contour>
        <pt x="-345" y="1259" on="1"/>
        <pt x="-361" y="1393" on="0"/>
        <pt x="-422" y="1494" on="0"/>
        <pt x="-489" y="1494" on="1"/>
        <pt x="-505" y="1494" on="0"/>
        <pt x="-550" y="1489" on="1"/>
        <pt x="-594" y="1483" on="0"/>
        <pt x="-622" y="1483" on="1"/>
        <pt x="-729" y="1483" on="0"/>
        <pt x="-857" y="1643" on="0"/>
        <pt x="-896" y="1797" on="1"/>
        <pt x="-750" y="1836" on="1"/>
        <pt x="-720" y="1722" on="0"/>
        <pt x="-659" y="1629" on="0"/>
        <pt x="-608" y="1629" on="1"/>
        <pt x="-570" y="1629" on="0"/>
        <pt x="-526" y="1634" on="1"/>
        <pt x="-482" y="1639" on="0"/>
        <pt x="-465" y="1639" on="1"/>
        <pt x="-339" y="1639" on="0"/>
        <pt x="-204" y="1449" on="0"/>
        <pt x="-195" y="1259" on="1"/>
      </contour>
      <contour>
        <pt x="-188" y="1836" on="1"/>
        <pt x="-139" y="1836" on="0"/>
        <pt x="-75" y="1771" on="0"/>
        <pt x="-75" y="1719" on="1"/>
        <pt x="-75" y="1666" on="0"/>
        <pt x="-137" y="1602" on="0"/>
        <pt x="-188" y="1602" on="1"/>
        <pt x="-238" y="1602" on="0"/>
        <pt x="-301" y="1667" on="0"/>
        <pt x="-301" y="1719" on="1"/>
        <pt x="-301" y="1771" on="0"/>
        <pt x="-237" y="1836" on="0"/>
      </contour>
      <contour>
        <pt x="-183" y="1274" on="1"/>
      </contour>
    </TTGlyph>
    <TTGlyph name="glyph00273" xMin="-1017" yMin="-548" xMax="-232" yMax="-244">
      <contour>
        <pt x="-1017" y="-382" on="1"/>
        <pt x="-988" y="-244" on="1"/>
        <pt x="-899" y="-295" on="0"/>
        <pt x="-724" y="-341" on="0"/>
        <pt x="-625" y="-341" on="1"/>
        <pt x="-526" y="-341" on="0"/>
        <pt x="-351" y="-295" on="0"/>
        <pt x="-261" y="-244" on="1"/>
        <pt x="-232" y="-382" on="1"/>
        <pt x="-314" y="-433" on="0"/>
        <pt x="-519" y="-487" on="0"/>
        <pt x="-625" y="-487" on="1"/>
        <pt x="-731" y="-487" on="0"/>
        <pt x="-934" y="-433" on="0"/>
      </contour>
      <contour>
        <pt x="-633" y="-548" on="1"/>
      </contour>
    </TTGlyph>
    <TTGlyph name="glyph00274" xMin="-15" yMin="0" xMax="1929" yMax="1836">
      <contour>
        <pt x="1488" y="0" on="1"/>
        <pt x="1323" y="0" on="1"/>
        <pt x="1323" y="1128" on="1"/>
        <pt x="970" y="1128" on="1"/>
        <pt x="970" y="656" on="1"/>
        <pt x="910" y="596" on="1"/>
        <pt x="630" y="596" on="1"/>
        <pt x="535" y="596" on="0"/>
        <pt x="348" y="499" on="0"/>
        <pt x="267" y="398" on="1"/>
        <pt x="345" y="265" on="0"/>
        <pt x="515" y="150" on="0"/>
        <pt x="635" y="150" on="1"/>
        <pt x="728" y="150" on="0"/>
        <pt x="885" y="189" on="0"/>
        <pt x="989" y="239" on="1"/>
        <pt x="1046" y="94" on="1"/>
        <pt x="856" y="0" on="0"/>
        <pt x="632" y="0" on="1"/>
        <pt x="447" y="0" on="0"/>
        <pt x="174" y="197" on="0"/>
        <pt x="74" y="409" on="1"/>
        <pt x="126" y="490" on="0"/>
        <pt x="270" y="614" on="0"/>
        <pt x="362" y="657" on="1"/>
        <pt x="236" y="713" on="0"/>
        <pt x="110" y="948" on="0"/>
        <pt x="110" y="1128" on="1"/>
        <pt x="-15" y="1128" on="1"/>
        <pt x="-15" y="1274" on="1"/>
        <pt x="1323" y="1274" on="1"/>
        <pt x="1323" y="1339" on="1"/>
        <pt x="1323" y="1487" on="0"/>
        <pt x="1289" y="1619" on="0"/>
        <pt x="1202" y="1692" on="0"/>
        <pt x="1128" y="1692" on="1"/>
        <pt x="1028" y="1692" on="0"/>
        <pt x="931" y="1584" on="0"/>
        <pt x="931" y="1470" on="1"/>
        <pt x="931" y="1425" on="0"/>
        <pt x="943" y="1357" on="1"/>
        <pt x="781" y="1341" on="1"/>
        <pt x="767" y="1438" on="0"/>
        <pt x="767" y="1477" on="1"/>
        <pt x="767" y="1648" on="0"/>
        <pt x="960" y="1836" on="0"/>
        <pt x="1133" y="1836" on="1"/>
        <pt x="1198" y="1836" on="0"/>
        <pt x="1300" y="1808" on="0"/>
        <pt x="1346" y="1772" on="1"/>
        <pt x="1342" y="1808" on="0"/>
        <pt x="1342" y="1827" on="1"/>
        <pt x="1496" y="1836" on="1"/>
        <pt x="1496" y="1712" on="0"/>
        <pt x="1556" y="1600" on="0"/>
        <pt x="1635" y="1600" on="1"/>
        <pt x="1715" y="1600" on="0"/>
        <pt x="1775" y="1713" on="0"/>
        <pt x="1775" y="1836" on="1"/>
        <pt x="1929" y="1827" on="1"/>
        <pt x="1923" y="1644" on="0"/>
        <pt x="1777" y="1462" on="0"/>
        <pt x="1637" y="1462" on="1"/>
        <pt x="1542" y="1462" on="0"/>
        <pt x="1482" y="1503" on="1"/>
        <pt x="1488" y="1454" on="0"/>
        <pt x="1488" y="1394" on="1"/>
        <pt x="1488" y="1274" on="1"/>
        <pt x="1686" y="1274" on="1"/>
        <pt x="1686" y="1128" on="1"/>
        <pt x="1488" y="1128" on="1"/>
      </contour>
      <contour>
        <pt x="805" y="1128" on="1"/>
        <pt x="278" y="1128" on="1"/>
        <pt x="278" y="1004" on="0"/>
        <pt x="340" y="832" on="0"/>
        <pt x="473" y="741" on="0"/>
        <pt x="602" y="741" on="1"/>
        <pt x="805" y="741" on="1"/>
      </contour>
      <contour>
        <pt x="570" y="0" on="1"/>
      </contour>
    </TTGlyph>
    <TTGlyph name="glyph00275" xMin="-15" yMin="-555" xMax="1705" yMax="1836">
      <component glyphName="glyph00288" x="0" y="0" flags="0x204"/>
      <component glyphName="uni0A41" x="1312" y="0" flags="0x4"/>
    </TTGlyph>
    <TTGlyph name="glyph00276" xMin="-15" yMin="-806" xMax="1705" yMax="1836">
      <component glyphName="glyph00288" x="0" y="0" flags="0x204"/>
      <component glyphName="uni0A42" x="1312" y="0" flags="0x4"/>
    </TTGlyph>
    <TTGlyph name="glyph00277" xMin="-15" yMin="0" xMax="1399" yMax="1836">
      <component glyphName="uni0A72" x="0" y="0" flags="0x200"/>
      <component glyphName="glyph00282" x="1141" y="0" flags="0x4"/>
    </TTGlyph>
    <TTGlyph name="glyph00278" xMin="-15" yMin="0" xMax="1828" yMax="1836">
      <component glyphName="uni0A05" x="0" y="0" flags="0x200"/>
      <component glyphName="glyph00283" x="1570" y="0" flags="0x4"/>
    </TTGlyph>
    <TTGlyph name="glyph00279" xMin="-15" yMin="0" xMax="1614" yMax="1836">
      <contour>
        <pt x="1286" y="1128" on="1"/>
        <pt x="1274" y="940" on="0"/>
        <pt x="1109" y="703" on="0"/>
        <pt x="957" y="654" on="1"/>
        <pt x="1051" y="609" on="0"/>
        <pt x="1153" y="452" on="0"/>
        <pt x="1153" y="359" on="1"/>
        <pt x="1153" y="187" on="0"/>
        <pt x="938" y="0" on="0"/>
        <pt x="736" y="0" on="1"/>
        <pt x="443" y="0" on="0"/>
        <pt x="135" y="438" on="0"/>
        <pt x="135" y="863" on="1"/>
        <pt x="135" y="901" on="1"/>
        <pt x="135" y="1025" on="0"/>
        <pt x="149" y="1128" on="1"/>
        <pt x="-15" y="1128" on="1"/>
        <pt x="-15" y="1274" on="1"/>
        <pt x="177" y="1274" on="1"/>
        <pt x="215" y="1413" on="0"/>
        <pt x="350" y="1591" on="0"/>
        <pt x="534" y="1691" on="0"/>
        <pt x="758" y="1727" on="0"/>
        <pt x="929" y="1727" on="1"/>
        <pt x="1029" y="1727" on="1"/>
        <pt x="1027" y="1747" on="0"/>
        <pt x="1027" y="1768" on="1"/>
        <pt x="1181" y="1777" on="1"/>
        <pt x="1181" y="1653" on="0"/>
        <pt x="1241" y="1541" on="0"/>
        <pt x="1320" y="1541" on="1"/>
        <pt x="1400" y="1541" on="0"/>
        <pt x="1460" y="1654" on="0"/>
        <pt x="1460" y="1777" on="1"/>
        <pt x="1614" y="1768" on="1"/>
        <pt x="1608" y="1585" on="0"/>
        <pt x="1462" y="1403" on="0"/>
        <pt x="1322" y="1403" on="1"/>
        <pt x="1222" y="1403" on="0"/>
        <pt x="1090" y="1492" on="0"/>
        <pt x="1058" y="1581" on="1"/>
        <pt x="949" y="1581" on="1"/>
        <pt x="714" y="1581" on="0"/>
        <pt x="505" y="1518" on="0"/>
        <pt x="381" y="1381" on="0"/>
        <pt x="348" y="1274" on="1"/>
        <pt x="1371" y="1274" on="1"/>
        <pt x="1371" y="1128" on="1"/>
      </contour>
      <contour>
        <pt x="1122" y="1128" on="1"/>
        <pt x="317" y="1128" on="1"/>
        <pt x="303" y="1031" on="0"/>
        <pt x="303" y="888" on="1"/>
        <pt x="303" y="869" on="1"/>
        <pt x="303" y="801" on="0"/>
        <pt x="306" y="741" on="1"/>
        <pt x="575" y="741" on="1"/>
        <pt x="762" y="741" on="0"/>
        <pt x="935" y="781" on="0"/>
        <pt x="1053" y="869" on="0"/>
        <pt x="1118" y="1014" on="0"/>
      </contour>
      <contour>
        <pt x="322" y="595" on="1"/>
        <pt x="356" y="372" on="0"/>
        <pt x="559" y="149" on="0"/>
        <pt x="727" y="149" on="1"/>
        <pt x="859" y="149" on="0"/>
        <pt x="985" y="251" on="0"/>
        <pt x="985" y="361" on="1"/>
        <pt x="985" y="407" on="0"/>
        <pt x="956" y="482" on="0"/>
        <pt x="906" y="531" on="0"/>
        <pt x="815" y="577" on="0"/>
        <pt x="670" y="595" on="0"/>
        <pt x="542" y="595" on="1"/>
      </contour>
      <contour>
        <pt x="684" y="0" on="1"/>
      </contour>
      <contour>
        <pt x="836" y="1836" on="1"/>
      </contour>
    </TTGlyph>
    <TTGlyph name="glyph00280" xMin="-15" yMin="0" xMax="1888" yMax="1836">
      <component glyphName="uni0A05" x="0" y="0" flags="0x200"/>
      <component glyphName="glyph00285" x="1520" y="0" flags="0x4"/>
    </TTGlyph>
    <TTGlyph name="glyph00281" xMin="-372" yMin="0" xMax="788" yMax="1836">
      <contour>
        <pt x="788" y="1827" on="1"/>
        <pt x="782" y="1644" on="0"/>
        <pt x="636" y="1462" on="0"/>
        <pt x="496" y="1462" on="1"/>
        <pt x="402" y="1462" on="0"/>
        <pt x="340" y="1504" on="1"/>
        <pt x="347" y="1453" on="0"/>
        <pt x="347" y="1368" on="1"/>
        <pt x="347" y="1274" on="1"/>
        <pt x="545" y="1274" on="1"/>
        <pt x="545" y="1128" on="1"/>
        <pt x="347" y="1128" on="1"/>
        <pt x="347" y="0" on="1"/>
        <pt x="182" y="0" on="1"/>
        <pt x="182" y="1128" on="1"/>
        <pt x="-15" y="1128" on="1"/>
        <pt x="-15" y="1274" on="1"/>
        <pt x="182" y="1274" on="1"/>
        <pt x="182" y="1339" on="1"/>
        <pt x="182" y="1487" on="0"/>
        <pt x="148" y="1619" on="0"/>
        <pt x="61" y="1692" on="0"/>
        <pt x="-13" y="1692" on="1"/>
        <pt x="-112" y="1692" on="0"/>
        <pt x="-210" y="1586" on="0"/>
        <pt x="-210" y="1476" on="1"/>
        <pt x="-210" y="1425" on="0"/>
        <pt x="-198" y="1357" on="1"/>
        <pt x="-360" y="1341" on="1"/>
        <pt x="-372" y="1428" on="0"/>
        <pt x="-372" y="1477" on="1"/>
        <pt x="-372" y="1644" on="0"/>
        <pt x="-176" y="1836" on="0"/>
        <pt x="-8" y="1836" on="1"/>
        <pt x="57" y="1836" on="0"/>
        <pt x="159" y="1808" on="0"/>
        <pt x="205" y="1772" on="1"/>
        <pt x="201" y="1808" on="0"/>
        <pt x="201" y="1827" on="1"/>
        <pt x="355" y="1836" on="1"/>
        <pt x="355" y="1712" on="0"/>
        <pt x="415" y="1600" on="0"/>
        <pt x="494" y="1600" on="1"/>
        <pt x="574" y="1600" on="0"/>
        <pt x="634" y="1713" on="0"/>
        <pt x="634" y="1836" on="1"/>
      </contour>
    </TTGlyph>
    <TTGlyph name="glyph00282" xMin="-835" yMin="1259" xMax="258" yMax="1836">
      <contour>
        <pt x="-341" y="1259" on="1"/>
        <pt x="-401" y="1468" on="0"/>
        <pt x="-597" y="1680" on="0"/>
        <pt x="-769" y="1680" on="1"/>
        <pt x="-806" y="1680" on="1"/>
        <pt x="-818" y="1680" on="0"/>
        <pt x="-826" y="1679" on="1"/>
        <pt x="-835" y="1834" on="1"/>
        <pt x="-817" y="1836" on="0"/>
        <pt x="-784" y="1836" on="1"/>
        <pt x="-539" y="1836" on="0"/>
        <pt x="-267" y="1559" on="0"/>
        <pt x="-184" y="1259" on="1"/>
      </contour>
      <contour>
        <pt x="258" y="1768" on="1"/>
        <pt x="252" y="1585" on="0"/>
        <pt x="106" y="1403" on="0"/>
        <pt x="-34" y="1403" on="1"/>
        <pt x="-176" y="1403" on="0"/>
        <pt x="-324" y="1585" on="0"/>
        <pt x="-329" y="1768" on="1"/>
        <pt x="-175" y="1777" on="1"/>
        <pt x="-175" y="1653" on="0"/>
        <pt x="-115" y="1541" on="0"/>
        <pt x="-36" y="1541" on="1"/>
        <pt x="44" y="1541" on="0"/>
        <pt x="104" y="1654" on="0"/>
        <pt x="104" y="1777" on="1"/>
      </contour>
      <contour>
        <pt x="-183" y="1274" on="1"/>
      </contour>
    </TTGlyph>
    <TTGlyph name="glyph00283" xMin="-837" yMin="1182" xMax="258" yMax="1836">
      <contour>
        <pt x="-325" y="1182" on="1"/>
        <pt x="-401" y="1297" on="0"/>
        <pt x="-618" y="1405" on="0"/>
        <pt x="-787" y="1405" on="1"/>
        <pt x="-807" y="1405" on="1"/>
        <pt x="-818" y="1405" on="0"/>
        <pt x="-827" y="1404" on="1"/>
        <pt x="-837" y="1554" on="1"/>
        <pt x="-817" y="1556" on="0"/>
        <pt x="-795" y="1556" on="1"/>
        <pt x="-492" y="1556" on="0"/>
        <pt x="-329" y="1353" on="1"/>
        <pt x="-396" y="1522" on="0"/>
        <pt x="-602" y="1684" on="0"/>
        <pt x="-758" y="1684" on="1"/>
        <pt x="-773" y="1684" on="1"/>
        <pt x="-781" y="1684" on="0"/>
        <pt x="-788" y="1683" on="1"/>
        <pt x="-797" y="1834" on="1"/>
        <pt x="-779" y="1836" on="0"/>
        <pt x="-758" y="1836" on="1"/>
        <pt x="-588" y="1836" on="0"/>
        <pt x="-391" y="1718" on="0"/>
        <pt x="-245" y="1471" on="0"/>
        <pt x="-170" y="1259" on="1"/>
        <pt x="-262" y="1251" on="1"/>
        <pt x="-251" y="1230" on="1"/>
      </contour>
      <contour>
        <pt x="258" y="1768" on="1"/>
        <pt x="252" y="1585" on="0"/>
        <pt x="106" y="1403" on="0"/>
        <pt x="-34" y="1403" on="1"/>
        <pt x="-176" y="1403" on="0"/>
        <pt x="-324" y="1585" on="0"/>
        <pt x="-329" y="1768" on="1"/>
        <pt x="-175" y="1777" on="1"/>
        <pt x="-175" y="1653" on="0"/>
        <pt x="-115" y="1541" on="0"/>
        <pt x="-36" y="1541" on="1"/>
        <pt x="44" y="1541" on="0"/>
        <pt x="104" y="1654" on="0"/>
        <pt x="104" y="1777" on="1"/>
      </contour>
      <contour>
        <pt x="-183" y="1274" on="1"/>
      </contour>
    </TTGlyph>
    <TTGlyph name="glyph00284" xMin="-986" yMin="1259" xMax="258" yMax="1836">
      <contour>
        <pt x="-345" y="1259" on="1"/>
        <pt x="-360" y="1381" on="0"/>
        <pt x="-439" y="1494" on="0"/>
        <pt x="-524" y="1494" on="1"/>
        <pt x="-544" y="1494" on="0"/>
        <pt x="-597" y="1489" on="1"/>
        <pt x="-650" y="1483" on="0"/>
        <pt x="-676" y="1483" on="1"/>
        <pt x="-802" y="1483" on="0"/>
        <pt x="-945" y="1639" on="0"/>
        <pt x="-986" y="1797" on="1"/>
        <pt x="-840" y="1836" on="1"/>
        <pt x="-798" y="1702" on="0"/>
        <pt x="-725" y="1629" on="0"/>
        <pt x="-660" y="1629" on="1"/>
        <pt x="-634" y="1629" on="0"/>
        <pt x="-584" y="1634" on="1"/>
        <pt x="-535" y="1639" on="0"/>
        <pt x="-508" y="1639" on="1"/>
        <pt x="-358" y="1639" on="0"/>
        <pt x="-216" y="1444" on="0"/>
        <pt x="-195" y="1259" on="1"/>
      </contour>
      <contour>
        <pt x="258" y="1768" on="1"/>
        <pt x="252" y="1585" on="0"/>
        <pt x="106" y="1403" on="0"/>
        <pt x="-34" y="1403" on="1"/>
        <pt x="-164" y="1403" on="0"/>
        <pt x="-323" y="1594" on="0"/>
        <pt x="-329" y="1768" on="1"/>
        <pt x="-175" y="1777" on="1"/>
        <pt x="-175" y="1653" on="0"/>
        <pt x="-115" y="1541" on="0"/>
        <pt x="-36" y="1541" on="1"/>
        <pt x="44" y="1541" on="0"/>
        <pt x="104" y="1654" on="0"/>
        <pt x="104" y="1777" on="1"/>
      </contour>
      <contour>
        <pt x="-183" y="1274" on="1"/>
      </contour>
    </TTGlyph>
    <TTGlyph name="glyph00285" xMin="-1001" yMin="1274" xMax="368" yMax="1836">
      <contour>
        <pt x="-303" y="1411" on="1"/>
        <pt x="-277" y="1471" on="0"/>
        <pt x="-277" y="1529" on="1"/>
        <pt x="-277" y="1593" on="0"/>
        <pt x="-343" y="1660" on="0"/>
        <pt x="-406" y="1660" on="1"/>
        <pt x="-468" y="1660" on="0"/>
        <pt x="-534" y="1592" on="0"/>
        <pt x="-534" y="1529" on="1"/>
        <pt x="-534" y="1471" on="0"/>
        <pt x="-508" y="1411" on="1"/>
        <pt x="-648" y="1390" on="1"/>
        <pt x="-681" y="1470" on="0"/>
        <pt x="-681" y="1546" on="1"/>
        <pt x="-681" y="1552" on="0"/>
        <pt x="-680" y="1557" on="1"/>
        <pt x="-680" y="1566" on="1"/>
        <pt x="-690" y="1564" on="0"/>
        <pt x="-715" y="1564" on="1"/>
        <pt x="-837" y="1564" on="0"/>
        <pt x="-973" y="1684" on="0"/>
        <pt x="-1001" y="1797" on="1"/>
        <pt x="-855" y="1836" on="1"/>
        <pt x="-832" y="1760" on="0"/>
        <pt x="-771" y="1697" on="0"/>
        <pt x="-705" y="1697" on="1"/>
        <pt x="-645" y="1697" on="0"/>
        <pt x="-610" y="1719" on="1"/>
        <pt x="-532" y="1793" on="0"/>
        <pt x="-407" y="1793" on="1"/>
        <pt x="-351" y="1793" on="0"/>
        <pt x="-263" y="1767" on="0"/>
        <pt x="-231" y="1741" on="1"/>
        <pt x="-237" y="1780" on="0"/>
        <pt x="-239" y="1827" on="1"/>
        <pt x="-85" y="1836" on="1"/>
        <pt x="-85" y="1710" on="0"/>
        <pt x="-20" y="1600" on="0"/>
        <pt x="64" y="1600" on="1"/>
        <pt x="149" y="1600" on="0"/>
        <pt x="214" y="1713" on="0"/>
        <pt x="214" y="1836" on="1"/>
        <pt x="368" y="1827" on="1"/>
        <pt x="362" y="1644" on="0"/>
        <pt x="211" y="1462" on="0"/>
        <pt x="66" y="1462" on="1"/>
        <pt x="3" y="1462" on="0"/>
        <pt x="-99" y="1502" on="0"/>
        <pt x="-138" y="1542" on="1"/>
        <pt x="-138" y="1446" on="0"/>
        <pt x="-163" y="1390" on="1"/>
      </contour>
      <contour>
        <pt x="-183" y="1274" on="1"/>
      </contour>
    </TTGlyph>
    <TTGlyph name="glyph00286" xMin="-15" yMin="-555" xMax="1705" yMax="1836">
      <component glyphName="glyph00288" x="0" y="0" flags="0x204"/>
      <component glyphName="uni0A41" x="1362" y="0" flags="0x4"/>
      <component glyphName="uni0A3C" x="770" y="255" flags="0x4"/>
    </TTGlyph>
    <TTGlyph name="glyph00287" xMin="-15" yMin="-806" xMax="1705" yMax="1836">
      <component glyphName="glyph00288" x="0" y="0" flags="0x204"/>
      <component glyphName="uni0A42" x="1372" y="0" flags="0x4"/>
      <component glyphName="uni0A3C" x="770" y="255" flags="0x4"/>
    </TTGlyph>
    <TTGlyph name="glyph00288" xMin="-15" yMin="0" xMax="1705" yMax="1836">
      <contour>
        <pt x="1287" y="1128" on="1"/>
        <pt x="1281" y="948" on="0"/>
        <pt x="1116" y="704" on="0"/>
        <pt x="958" y="654" on="1"/>
        <pt x="1051" y="609" on="0"/>
        <pt x="1153" y="451" on="0"/>
        <pt x="1153" y="359" on="1"/>
        <pt x="1153" y="187" on="0"/>
        <pt x="938" y="0" on="0"/>
        <pt x="736" y="0" on="1"/>
        <pt x="443" y="0" on="0"/>
        <pt x="135" y="438" on="0"/>
        <pt x="135" y="863" on="1"/>
        <pt x="135" y="901" on="1"/>
        <pt x="135" y="1024" on="0"/>
        <pt x="149" y="1128" on="1"/>
        <pt x="-15" y="1128" on="1"/>
        <pt x="-15" y="1274" on="1"/>
        <pt x="176" y="1274" on="1"/>
        <pt x="241" y="1513" on="0"/>
        <pt x="549" y="1751" on="0"/>
        <pt x="772" y="1751" on="1"/>
        <pt x="882" y="1751" on="0"/>
        <pt x="1057" y="1683" on="0"/>
        <pt x="1122" y="1615" on="1"/>
        <pt x="1100" y="1682" on="0"/>
        <pt x="1098" y="1768" on="1"/>
        <pt x="1252" y="1777" on="1"/>
        <pt x="1252" y="1651" on="0"/>
        <pt x="1317" y="1541" on="0"/>
        <pt x="1401" y="1541" on="1"/>
        <pt x="1486" y="1541" on="0"/>
        <pt x="1551" y="1654" on="0"/>
        <pt x="1551" y="1777" on="1"/>
        <pt x="1705" y="1768" on="1"/>
        <pt x="1699" y="1585" on="0"/>
        <pt x="1548" y="1403" on="0"/>
        <pt x="1403" y="1403" on="1"/>
        <pt x="1294" y="1403" on="0"/>
        <pt x="1231" y="1451" on="1"/>
        <pt x="1266" y="1372" on="0"/>
        <pt x="1280" y="1274" on="1"/>
        <pt x="1371" y="1274" on="1"/>
        <pt x="1371" y="1128" on="1"/>
      </contour>
      <contour>
        <pt x="349" y="1274" on="1"/>
        <pt x="1116" y="1274" on="1"/>
        <pt x="1094" y="1432" on="0"/>
        <pt x="911" y="1601" on="0"/>
        <pt x="759" y="1601" on="1"/>
        <pt x="606" y="1601" on="0"/>
        <pt x="398" y="1435" on="0"/>
      </contour>
      <contour>
        <pt x="303" y="869" on="1"/>
        <pt x="303" y="801" on="0"/>
        <pt x="306" y="741" on="1"/>
        <pt x="575" y="741" on="1"/>
        <pt x="722" y="741" on="0"/>
        <pt x="916" y="769" on="0"/>
        <pt x="1050" y="858" on="0"/>
        <pt x="1121" y="1006" on="0"/>
        <pt x="1123" y="1128" on="1"/>
        <pt x="319" y="1128" on="1"/>
        <pt x="303" y="1029" on="0"/>
        <pt x="303" y="888" on="1"/>
      </contour>
      <contour>
        <pt x="322" y="595" on="1"/>
        <pt x="356" y="372" on="0"/>
        <pt x="559" y="149" on="0"/>
        <pt x="727" y="149" on="1"/>
        <pt x="859" y="149" on="0"/>
        <pt x="985" y="251" on="0"/>
        <pt x="985" y="361" on="1"/>
        <pt x="985" y="407" on="0"/>
        <pt x="956" y="482" on="0"/>
        <pt x="906" y="531" on="0"/>
        <pt x="815" y="577" on="0"/>
        <pt x="670" y="595" on="0"/>
        <pt x="542" y="595" on="1"/>
      </contour>
      <contour>
        <pt x="836" y="1836" on="1"/>
      </contour>
    </TTGlyph>
    <TTGlyph name="glyph00289" xMin="-692" yMin="-392" xMax="-466" yMax="-158">
      <contour>
        <pt x="-579" y="-158" on="1"/>
        <pt x="-530" y="-158" on="0"/>
        <pt x="-466" y="-223" on="0"/>
        <pt x="-466" y="-275" on="1"/>
        <pt x="-466" y="-328" on="0"/>
        <pt x="-528" y="-392" on="0"/>
        <pt x="-579" y="-392" on="1"/>
        <pt x="-629" y="-392" on="0"/>
        <pt x="-692" y="-327" on="0"/>
        <pt x="-692" y="-275" on="1"/>
        <pt x="-692" y="-223" on="0"/>
        <pt x="-628" y="-158" on="0"/>
      </contour>
    </TTGlyph>
    <TTGlyph name="glyph00290" xMin="-379" yMin="1602" xMax="-153" yMax="1836">
      <contour>
        <pt x="-266" y="1836" on="1"/>
        <pt x="-217" y="1836" on="0"/>
        <pt x="-153" y="1771" on="0"/>
        <pt x="-153" y="1719" on="1"/>
        <pt x="-153" y="1666" on="0"/>
        <pt x="-215" y="1602" on="0"/>
        <pt x="-266" y="1602" on="1"/>
        <pt x="-316" y="1602" on="0"/>
        <pt x="-379" y="1667" on="0"/>
        <pt x="-379" y="1719" on="1"/>
        <pt x="-379" y="1771" on="0"/>
        <pt x="-315" y="1836" on="0"/>
      </contour>
    </TTGlyph>
    <TTGlyph name="greater" xMin="102" yMin="157" xMax="1026" yMax="1274">
      <contour>
        <pt x="102" y="318" on="1"/>
        <pt x="838" y="640" on="1"/>
        <pt x="102" y="1004" on="1"/>
        <pt x="102" y="1164" on="1"/>
        <pt x="1026" y="683" on="1"/>
        <pt x="1026" y="581" on="1"/>
        <pt x="102" y="157" on="1"/>
      </contour>
      <contour>
        <pt x="453" y="1274" on="1"/>
      </contour>
    </TTGlyph>
    <TTGlyph name="hyphen" xMin="100" yMin="524" xMax="596" yMax="1274">
      <contour>
        <pt x="100" y="524" on="1"/>
        <pt x="100" y="692" on="1"/>
        <pt x="596" y="692" on="1"/>
        <pt x="596" y="524" on="1"/>
      </contour>
      <contour>
        <pt x="453" y="1274" on="1"/>
      </contour>
    </TTGlyph>
    <TTGlyph name="less" xMin="102" yMin="157" xMax="1026" yMax="1274">
      <contour>
        <pt x="1026" y="157" on="1"/>
        <pt x="102" y="581" on="1"/>
        <pt x="102" y="683" on="1"/>
        <pt x="1026" y="1164" on="1"/>
        <pt x="1026" y="1004" on="1"/>
        <pt x="291" y="640" on="1"/>
        <pt x="1026" y="318" on="1"/>
      </contour>
      <contour>
        <pt x="453" y="1274" on="1"/>
      </contour>
    </TTGlyph>
    <TTGlyph name="minus" xMin="102" yMin="585" xMax="1026" yMax="1274">
      <contour>
        <pt x="102" y="585" on="1"/>
        <pt x="102" y="735" on="1"/>
        <pt x="1026" y="735" on="1"/>
        <pt x="1026" y="585" on="1"/>
      </contour>
      <contour>
        <pt x="453" y="1274" on="1"/>
      </contour>
    </TTGlyph>
    <TTGlyph name="multiply" xMin="141" yMin="236" xMax="989" yMax="1274">
      <contour>
        <pt x="459" y="658" on="1"/>
        <pt x="141" y="977" on="1"/>
        <pt x="246" y="1082" on="1"/>
        <pt x="563" y="764" on="1"/>
        <pt x="885" y="1082" on="1"/>
        <pt x="989" y="979" on="1"/>
        <pt x="668" y="658" on="1"/>
        <pt x="987" y="338" on="1"/>
        <pt x="885" y="236" on="1"/>
        <pt x="563" y="553" on="1"/>
        <pt x="246" y="238" on="1"/>
        <pt x="143" y="341" on="1"/>
      </contour>
      <contour>
        <pt x="453" y="1274" on="1"/>
      </contour>
    </TTGlyph>
    <TTGlyph name="nine" xMin="106" yMin="-20" xMax="1028" yMax="1483">
      <contour>
        <pt x="217" y="-2" on="1"/>
        <pt x="217" y="154" on="1"/>
        <pt x="284" y="129" on="0"/>
        <pt x="383" y="129" on="1"/>
        <pt x="550" y="129" on="0"/>
        <pt x="748" y="278" on="0"/>
        <pt x="833" y="524" on="0"/>
        <pt x="842" y="717" on="1"/>
        <pt x="829" y="717" on="1"/>
        <pt x="734" y="547" on="0"/>
        <pt x="522" y="547" on="1"/>
        <pt x="327" y="547" on="0"/>
        <pt x="106" y="785" on="0"/>
        <pt x="106" y="991" on="1"/>
        <pt x="106" y="1217" on="0"/>
        <pt x="345" y="1483" on="0"/>
        <pt x="551" y="1483" on="1"/>
        <pt x="771" y="1483" on="0"/>
        <pt x="1028" y="1141" on="0"/>
        <pt x="1028" y="838" on="1"/>
        <pt x="1028" y="401" on="0"/>
        <pt x="708" y="-20" on="0"/>
        <pt x="389" y="-20" on="1"/>
        <pt x="338" y="-20" on="0"/>
        <pt x="235" y="-8" on="0"/>
      </contour>
      <contour>
        <pt x="283" y="991" on="1"/>
        <pt x="283" y="846" on="0"/>
        <pt x="420" y="690" on="0"/>
        <pt x="547" y="690" on="1"/>
        <pt x="635" y="690" on="0"/>
        <pt x="775" y="772" on="0"/>
        <pt x="846" y="894" on="0"/>
        <pt x="846" y="956" on="1"/>
        <pt x="846" y="1046" on="0"/>
        <pt x="781" y="1218" on="0"/>
        <pt x="646" y="1329" on="0"/>
        <pt x="553" y="1329" on="1"/>
        <pt x="425" y="1329" on="0"/>
        <pt x="283" y="1155" on="0"/>
      </contour>
    </TTGlyph>
    <TTGlyph name="numbersign" xMin="70" yMin="0" xMax="1267" yMax="1295">
      <contour>
        <pt x="983" y="807" on="1"/>
        <pt x="924" y="496" on="1"/>
        <pt x="1196" y="496" on="1"/>
        <pt x="1196" y="361" on="1"/>
        <pt x="897" y="361" on="1"/>
        <pt x="828" y="0" on="1"/>
        <pt x="684" y="0" on="1"/>
        <pt x="755" y="361" on="1"/>
        <pt x="470" y="361" on="1"/>
        <pt x="400" y="0" on="1"/>
        <pt x="259" y="0" on="1"/>
        <pt x="325" y="361" on="1"/>
        <pt x="70" y="361" on="1"/>
        <pt x="70" y="496" on="1"/>
        <pt x="351" y="496" on="1"/>
        <pt x="413" y="807" on="1"/>
        <pt x="144" y="807" on="1"/>
        <pt x="144" y="941" on="1"/>
        <pt x="437" y="941" on="1"/>
        <pt x="505" y="1295" on="1"/>
        <pt x="649" y="1295" on="1"/>
        <pt x="582" y="941" on="1"/>
        <pt x="869" y="941" on="1"/>
        <pt x="938" y="1295" on="1"/>
        <pt x="1079" y="1295" on="1"/>
        <pt x="1010" y="941" on="1"/>
        <pt x="1267" y="941" on="1"/>
        <pt x="1267" y="807" on="1"/>
      </contour>
      <contour>
        <pt x="495" y="496" on="1"/>
        <pt x="781" y="496" on="1"/>
        <pt x="841" y="807" on="1"/>
        <pt x="556" y="807" on="1"/>
      </contour>
    </TTGlyph>
    <TTGlyph name="one" xMin="178" yMin="0" xMax="711" yMax="1462">
      <contour>
        <pt x="711" y="0" on="1"/>
        <pt x="535" y="0" on="1"/>
        <pt x="535" y="913" on="1"/>
        <pt x="535" y="1036" on="0"/>
        <pt x="543" y="1274" on="1"/>
        <pt x="504" y="1231" on="0"/>
        <pt x="422" y="1161" on="1"/>
        <pt x="274" y="1040" on="1"/>
        <pt x="178" y="1163" on="1"/>
        <pt x="561" y="1462" on="1"/>
        <pt x="711" y="1462" on="1"/>
      </contour>
    </TTGlyph>
    <TTGlyph name="parenleft" xMin="140" yMin="-555" xMax="691" yMax="1836">
      <contour>
        <pt x="436" y="1703" on="1"/>
        <pt x="602" y="1703" on="1"/>
        <pt x="315" y="1247" on="0"/>
        <pt x="315" y="689" on="1"/>
        <pt x="315" y="410" on="0"/>
        <pt x="461" y="-117" on="0"/>
        <pt x="604" y="-338" on="1"/>
        <pt x="436" y="-338" on="1"/>
        <pt x="293" y="-141" on="0"/>
        <pt x="140" y="389" on="0"/>
        <pt x="140" y="691" on="1"/>
        <pt x="140" y="995" on="0"/>
        <pt x="293" y="1510" on="0"/>
      </contour>
      <contour>
        <pt x="506" y="1274" on="1"/>
      </contour>
      <contour>
        <pt x="691" y="1836" on="1"/>
      </contour>
      <contour>
        <pt x="500" y="-555" on="1"/>
      </contour>
    </TTGlyph>
    <TTGlyph name="parenright" xMin="120" yMin="-555" xMax="584" yMax="1836">
      <contour>
        <pt x="288" y="-338" on="1"/>
        <pt x="122" y="-338" on="1"/>
        <pt x="409" y="118" on="0"/>
        <pt x="409" y="676" on="1"/>
        <pt x="409" y="955" on="0"/>
        <pt x="263" y="1482" on="0"/>
        <pt x="120" y="1703" on="1"/>
        <pt x="288" y="1703" on="1"/>
        <pt x="431" y="1506" on="0"/>
        <pt x="584" y="976" on="0"/>
        <pt x="584" y="674" on="1"/>
        <pt x="584" y="370" on="0"/>
        <pt x="431" y="-145" on="0"/>
      </contour>
      <contour>
        <pt x="215" y="1836" on="1"/>
      </contour>
      <contour>
        <pt x="221" y="1274" on="1"/>
      </contour>
      <contour>
        <pt x="350" y="-555" on="1"/>
      </contour>
    </TTGlyph>
    <TTGlyph name="percent" xMin="117" yMin="-20" xMax="1578" yMax="1294">
      <contour>
        <pt x="413" y="554" on="1"/>
        <pt x="271" y="554" on="0"/>
        <pt x="117" y="745" on="0"/>
        <pt x="117" y="925" on="1"/>
        <pt x="117" y="1109" on="0"/>
        <pt x="265" y="1294" on="0"/>
        <pt x="413" y="1294" on="1"/>
        <pt x="558" y="1294" on="0"/>
        <pt x="714" y="1104" on="0"/>
        <pt x="714" y="925" on="1"/>
        <pt x="714" y="741" on="0"/>
        <pt x="563" y="554" on="0"/>
      </contour>
      <contour>
        <pt x="413" y="685" on="1"/>
        <pt x="489" y="685" on="0"/>
        <pt x="566" y="805" on="0"/>
        <pt x="566" y="925" on="1"/>
        <pt x="566" y="1045" on="0"/>
        <pt x="489" y="1165" on="0"/>
        <pt x="413" y="1165" on="1"/>
        <pt x="335" y="1165" on="0"/>
        <pt x="265" y="1045" on="0"/>
        <pt x="265" y="925" on="1"/>
        <pt x="265" y="805" on="0"/>
        <pt x="335" y="685" on="0"/>
      </contour>
      <contour>
        <pt x="1324" y="1274" on="1"/>
        <pt x="535" y="0" on="1"/>
        <pt x="375" y="0" on="1"/>
        <pt x="1166" y="1274" on="1"/>
      </contour>
      <contour>
        <pt x="1278" y="-20" on="1"/>
        <pt x="1135" y="-20" on="0"/>
        <pt x="982" y="174" on="0"/>
        <pt x="982" y="351" on="1"/>
        <pt x="982" y="535" on="0"/>
        <pt x="1130" y="720" on="0"/>
        <pt x="1278" y="720" on="1"/>
        <pt x="1424" y="720" on="0"/>
        <pt x="1578" y="530" on="0"/>
        <pt x="1578" y="351" on="1"/>
        <pt x="1578" y="164" on="0"/>
        <pt x="1425" y="-20" on="0"/>
      </contour>
      <contour>
        <pt x="1278" y="112" on="1"/>
        <pt x="1354" y="112" on="0"/>
        <pt x="1431" y="231" on="0"/>
        <pt x="1431" y="351" on="1"/>
        <pt x="1431" y="471" on="0"/>
        <pt x="1354" y="591" on="0"/>
        <pt x="1278" y="591" on="1"/>
        <pt x="1200" y="591" on="0"/>
        <pt x="1130" y="472" on="0"/>
        <pt x="1130" y="351" on="1"/>
        <pt x="1130" y="231" on="0"/>
        <pt x="1200" y="112" on="0"/>
      </contour>
    </TTGlyph>
    <TTGlyph name="period" xMin="147" yMin="-29" xMax="401" yMax="250">
      <contour>
        <pt x="274" y="250" on="1"/>
        <pt x="335" y="250" on="0"/>
        <pt x="401" y="179" on="0"/>
        <pt x="401" y="111" on="1"/>
        <pt x="401" y="44" on="0"/>
        <pt x="334" y="-29" on="0"/>
        <pt x="274" y="-29" on="1"/>
        <pt x="214" y="-29" on="0"/>
        <pt x="147" y="45" on="0"/>
        <pt x="147" y="111" on="1"/>
        <pt x="147" y="178" on="0"/>
        <pt x="213" y="250" on="0"/>
      </contour>
    </TTGlyph>
    <TTGlyph name="plus" xMin="102" yMin="199" xMax="1026" yMax="1274">
      <contour>
        <pt x="489" y="585" on="1"/>
        <pt x="102" y="585" on="1"/>
        <pt x="102" y="735" on="1"/>
        <pt x="489" y="735" on="1"/>
        <pt x="489" y="1123" on="1"/>
        <pt x="639" y="1123" on="1"/>
        <pt x="639" y="735" on="1"/>
        <pt x="1026" y="735" on="1"/>
        <pt x="1026" y="585" on="1"/>
        <pt x="639" y="585" on="1"/>
        <pt x="639" y="199" on="1"/>
        <pt x="489" y="199" on="1"/>
      </contour>
      <contour>
        <pt x="453" y="1274" on="1"/>
      </contour>
    </TTGlyph>
    <TTGlyph name="question" xMin="146" yMin="-29" xMax="914" yMax="1483">
      <contour>
        <pt x="390" y="414" on="1"/>
        <pt x="390" y="451" on="1"/>
        <pt x="390" y="580" on="0"/>
        <pt x="469" y="723" on="0"/>
        <pt x="560" y="799" on="1"/>
        <pt x="641" y="868" on="0"/>
        <pt x="708" y="950" on="0"/>
        <pt x="740" y="1044" on="0"/>
        <pt x="740" y="1108" on="1"/>
        <pt x="740" y="1205" on="0"/>
        <pt x="621" y="1323" on="0"/>
        <pt x="512" y="1323" on="1"/>
        <pt x="429" y="1323" on="0"/>
        <pt x="279" y="1271" on="0"/>
        <pt x="209" y="1237" on="1"/>
        <pt x="146" y="1382" on="1"/>
        <pt x="345" y="1483" on="0"/>
        <pt x="512" y="1483" on="1"/>
        <pt x="699" y="1483" on="0"/>
        <pt x="914" y="1283" on="0"/>
        <pt x="914" y="1110" on="1"/>
        <pt x="914" y="1002" on="0"/>
        <pt x="835" y="835" on="0"/>
        <pt x="699" y="717" on="1"/>
        <pt x="590" y="623" on="0"/>
        <pt x="529" y="518" on="0"/>
        <pt x="529" y="432" on="1"/>
        <pt x="529" y="414" on="1"/>
      </contour>
      <contour>
        <pt x="469" y="250" on="1"/>
        <pt x="530" y="250" on="0"/>
        <pt x="596" y="179" on="0"/>
        <pt x="596" y="111" on="1"/>
        <pt x="596" y="44" on="0"/>
        <pt x="529" y="-29" on="0"/>
        <pt x="469" y="-29" on="1"/>
        <pt x="409" y="-29" on="0"/>
        <pt x="342" y="45" on="0"/>
        <pt x="342" y="111" on="1"/>
        <pt x="342" y="178" on="0"/>
        <pt x="408" y="250" on="0"/>
      </contour>
    </TTGlyph>
    <TTGlyph name="quotedbl" xMin="235" yMin="965" xMax="822" yMax="1836">
      <contour>
        <pt x="462" y="1493" on="1"/>
        <pt x="411" y="965" on="1"/>
        <pt x="286" y="965" on="1"/>
        <pt x="235" y="1493" on="1"/>
      </contour>
      <contour>
        <pt x="822" y="1493" on="1"/>
        <pt x="771" y="965" on="1"/>
        <pt x="647" y="965" on="1"/>
        <pt x="596" y="1493" on="1"/>
      </contour>
      <contour>
        <pt x="510" y="1274" on="1"/>
      </contour>
      <contour>
        <pt x="556" y="1836" on="1"/>
      </contour>
    </TTGlyph>
    <TTGlyph name="quotedblleft" xMin="169" yMin="992" xMax="867" yMax="1836">
      <contour>
        <pt x="568" y="992" on="1"/>
        <pt x="554" y="1014" on="1"/>
        <pt x="608" y="1222" on="0"/>
        <pt x="730" y="1493" on="1"/>
        <pt x="867" y="1493" on="1"/>
        <pt x="805" y="1238" on="0"/>
        <pt x="767" y="992" on="1"/>
      </contour>
      <contour>
        <pt x="183" y="992" on="1"/>
        <pt x="169" y="1014" on="1"/>
        <pt x="223" y="1222" on="0"/>
        <pt x="345" y="1493" on="1"/>
        <pt x="482" y="1493" on="1"/>
        <pt x="420" y="1238" on="0"/>
        <pt x="382" y="992" on="1"/>
      </contour>
      <contour>
        <pt x="453" y="1274" on="1"/>
      </contour>
      <contour>
        <pt x="448" y="1836" on="1"/>
      </contour>
    </TTGlyph>
    <TTGlyph name="quotedblright" xMin="166" yMin="992" xMax="864" yMax="1836">
      <contour>
        <pt x="465" y="1493" on="1"/>
        <pt x="479" y="1471" on="1"/>
        <pt x="429" y="1274" on="0"/>
        <pt x="303" y="992" on="1"/>
        <pt x="166" y="992" on="1"/>
        <pt x="236" y="1295" on="0"/>
        <pt x="266" y="1493" on="1"/>
      </contour>
      <contour>
        <pt x="850" y="1493" on="1"/>
        <pt x="864" y="1471" on="1"/>
        <pt x="814" y="1274" on="0"/>
        <pt x="688" y="992" on="1"/>
        <pt x="551" y="992" on="1"/>
        <pt x="621" y="1295" on="0"/>
        <pt x="651" y="1493" on="1"/>
      </contour>
      <contour>
        <pt x="453" y="1274" on="1"/>
      </contour>
      <contour>
        <pt x="448" y="1836" on="1"/>
      </contour>
    </TTGlyph>
    <TTGlyph name="quoteleft" xMin="168" yMin="992" xMax="481" yMax="1836">
      <contour>
        <pt x="182" y="992" on="1"/>
        <pt x="168" y="1014" on="1"/>
        <pt x="222" y="1222" on="0"/>
        <pt x="344" y="1493" on="1"/>
        <pt x="481" y="1493" on="1"/>
        <pt x="419" y="1238" on="0"/>
        <pt x="381" y="992" on="1"/>
      </contour>
      <contour>
        <pt x="453" y="1274" on="1"/>
      </contour>
      <contour>
        <pt x="448" y="1836" on="1"/>
      </contour>
    </TTGlyph>
    <TTGlyph name="quoteright" xMin="166" yMin="992" xMax="479" yMax="1836">
      <contour>
        <pt x="465" y="1493" on="1"/>
        <pt x="479" y="1471" on="1"/>
        <pt x="429" y="1274" on="0"/>
        <pt x="303" y="992" on="1"/>
        <pt x="166" y="992" on="1"/>
        <pt x="236" y="1295" on="0"/>
        <pt x="266" y="1493" on="1"/>
      </contour>
      <contour>
        <pt x="453" y="1274" on="1"/>
      </contour>
      <contour>
        <pt x="448" y="1836" on="1"/>
      </contour>
    </TTGlyph>
    <TTGlyph name="quotesingle" xMin="235" yMin="965" xMax="487" yMax="1836">
      <contour>
        <pt x="462" y="1493" on="1"/>
        <pt x="411" y="965" on="1"/>
        <pt x="286" y="965" on="1"/>
        <pt x="235" y="1493" on="1"/>
      </contour>
      <contour>
        <pt x="487" y="1274" on="1"/>
      </contour>
      <contour>
        <pt x="480" y="1836" on="1"/>
      </contour>
    </TTGlyph>
    <TTGlyph name="semicolon" xMin="91" yMin="-264" xMax="434" yMax="1274">
      <contour>
        <pt x="302" y="1126" on="1"/>
        <pt x="365" y="1126" on="0"/>
        <pt x="429" y="1054" on="0"/>
        <pt x="429" y="987" on="1"/>
        <pt x="429" y="921" on="0"/>
        <pt x="361" y="848" on="0"/>
        <pt x="302" y="848" on="1"/>
        <pt x="242" y="848" on="0"/>
        <pt x="175" y="921" on="0"/>
        <pt x="175" y="987" on="1"/>
        <pt x="175" y="1054" on="0"/>
        <pt x="238" y="1126" on="0"/>
      </contour>
      <contour>
        <pt x="390" y="238" on="1"/>
        <pt x="405" y="215" on="1"/>
        <pt x="354" y="18" on="0"/>
        <pt x="229" y="-264" on="1"/>
        <pt x="91" y="-264" on="1"/>
        <pt x="158" y="15" on="0"/>
        <pt x="192" y="238" on="1"/>
      </contour>
      <contour>
        <pt x="302" y="1274" on="1"/>
      </contour>
      <contour>
        <pt x="434" y="250" on="1"/>
      </contour>
      <contour>
        <pt x="434" y="-29" on="1"/>
      </contour>
    </TTGlyph>
    <TTGlyph name="seven" xMin="90" yMin="0" xMax="1030" yMax="1462">
      <contour>
        <pt x="281" y="0" on="1"/>
        <pt x="844" y="1296" on="1"/>
        <pt x="90" y="1296" on="1"/>
        <pt x="90" y="1462" on="1"/>
        <pt x="1030" y="1462" on="1"/>
        <pt x="1030" y="1317" on="1"/>
        <pt x="475" y="0" on="1"/>
      </contour>
    </TTGlyph>
    <TTGlyph name="six" xMin="113" yMin="-20" xMax="1034" yMax="1483">
      <contour>
        <pt x="924" y="1464" on="1"/>
        <pt x="924" y="1309" on="1"/>
        <pt x="853" y="1333" on="0"/>
        <pt x="758" y="1333" on="1"/>
        <pt x="534" y="1333" on="0"/>
        <pt x="309" y="1051" on="0"/>
        <pt x="299" y="745" on="1"/>
        <pt x="311" y="745" on="1"/>
        <pt x="359" y="831" on="0"/>
        <pt x="516" y="915" on="0"/>
        <pt x="618" y="915" on="1"/>
        <pt x="813" y="915" on="0"/>
        <pt x="1034" y="677" on="0"/>
        <pt x="1034" y="471" on="1"/>
        <pt x="1034" y="243" on="0"/>
        <pt x="793" y="-20" on="0"/>
        <pt x="590" y="-20" on="1"/>
        <pt x="457" y="-20" on="0"/>
        <pt x="242" y="116" on="0"/>
        <pt x="113" y="410" on="0"/>
        <pt x="113" y="625" on="1"/>
        <pt x="113" y="1061" on="0"/>
        <pt x="433" y="1483" on="0"/>
        <pt x="752" y="1483" on="1"/>
        <pt x="856" y="1483" on="0"/>
      </contour>
      <contour>
        <pt x="858" y="471" on="1"/>
        <pt x="858" y="616" on="0"/>
        <pt x="721" y="772" on="0"/>
        <pt x="594" y="772" on="1"/>
        <pt x="508" y="772" on="0"/>
        <pt x="367" y="692" on="0"/>
        <pt x="295" y="569" on="0"/>
        <pt x="295" y="506" on="1"/>
        <pt x="295" y="418" on="0"/>
        <pt x="358" y="248" on="0"/>
        <pt x="494" y="133" on="0"/>
        <pt x="588" y="133" on="1"/>
        <pt x="714" y="133" on="0"/>
        <pt x="858" y="305" on="0"/>
      </contour>
    </TTGlyph>
    <TTGlyph name="slash" xMin="86" yMin="-548" xMax="793" yMax="1836">
      <contour>
        <pt x="793" y="1705" on="1"/>
        <pt x="256" y="-339" on="1"/>
        <pt x="86" y="-339" on="1"/>
        <pt x="625" y="1705" on="1"/>
      </contour>
      <contour>
        <pt x="453" y="1274" on="1"/>
      </contour>
      <contour>
        <pt x="448" y="1836" on="1"/>
      </contour>
      <contour>
        <pt x="479" y="-548" on="1"/>
      </contour>
    </TTGlyph>
    <TTGlyph name="three" xMin="82" yMin="-20" xMax="1006" yMax="1483">
      <contour>
        <pt x="645" y="770" on="1"/>
        <pt x="645" y="764" on="1"/>
        <pt x="822" y="742" on="0"/>
        <pt x="1006" y="561" on="0"/>
        <pt x="1006" y="416" on="1"/>
        <pt x="1006" y="213" on="0"/>
        <pt x="730" y="-20" on="0"/>
        <pt x="469" y="-20" on="1"/>
        <pt x="227" y="-20" on="0"/>
        <pt x="82" y="59" on="1"/>
        <pt x="82" y="229" on="1"/>
        <pt x="169" y="183" on="0"/>
        <pt x="372" y="133" on="0"/>
        <pt x="465" y="133" on="1"/>
        <pt x="638" y="133" on="0"/>
        <pt x="819" y="277" on="0"/>
        <pt x="819" y="422" on="1"/>
        <pt x="819" y="549" on="0"/>
        <pt x="627" y="680" on="0"/>
        <pt x="438" y="680" on="1"/>
        <pt x="305" y="680" on="1"/>
        <pt x="305" y="831" on="1"/>
        <pt x="438" y="831" on="1"/>
        <pt x="598" y="831" on="0"/>
        <pt x="774" y="983" on="0"/>
        <pt x="774" y="1108" on="1"/>
        <pt x="774" y="1210" on="0"/>
        <pt x="638" y="1329" on="0"/>
        <pt x="524" y="1329" on="1"/>
        <pt x="417" y="1329" on="0"/>
        <pt x="254" y="1262" on="0"/>
        <pt x="180" y="1208" on="1"/>
        <pt x="88" y="1333" on="1"/>
        <pt x="177" y="1405" on="0"/>
        <pt x="402" y="1483" on="0"/>
        <pt x="524" y="1483" on="1"/>
        <pt x="730" y="1483" on="0"/>
        <pt x="961" y="1285" on="0"/>
        <pt x="961" y="1120" on="1"/>
        <pt x="961" y="982" on="0"/>
        <pt x="797" y="797" on="0"/>
      </contour>
    </TTGlyph>
    <TTGlyph name="two" xMin="96" yMin="0" xMax="1008" yMax="1483">
      <contour>
        <pt x="1008" y="0" on="1"/>
        <pt x="96" y="0" on="1"/>
        <pt x="96" y="156" on="1"/>
        <pt x="446" y="537" on="1"/>
        <pt x="564" y="665" on="0"/>
        <pt x="650" y="767" on="0"/>
        <pt x="714" y="869" on="0"/>
        <pt x="750" y="958" on="0"/>
        <pt x="766" y="1040" on="0"/>
        <pt x="766" y="1085" on="1"/>
        <pt x="766" y="1199" on="0"/>
        <pt x="638" y="1329" on="0"/>
        <pt x="530" y="1329" on="1"/>
        <pt x="435" y="1329" on="0"/>
        <pt x="282" y="1252" on="0"/>
        <pt x="213" y="1192" on="1"/>
        <pt x="111" y="1311" on="1"/>
        <pt x="302" y="1483" on="0"/>
        <pt x="532" y="1483" on="1"/>
        <pt x="726" y="1483" on="0"/>
        <pt x="950" y="1271" on="0"/>
        <pt x="950" y="1092" on="1"/>
        <pt x="950" y="996" on="0"/>
        <pt x="878" y="813" on="0"/>
        <pt x="750" y="635" on="0"/>
        <pt x="600" y="473" on="1"/>
        <pt x="319" y="174" on="1"/>
        <pt x="319" y="166" on="1"/>
        <pt x="1008" y="166" on="1"/>
      </contour>
    </TTGlyph>
    <TTGlyph name="underscore" xMin="-4" yMin="-324" xMax="846" yMax="-184">
      <contour>
        <pt x="846" y="-324" on="1"/>
        <pt x="-4" y="-324" on="1"/>
        <pt x="-4" y="-184" on="1"/>
        <pt x="846" y="-184" on="1"/>
      </contour>
    </TTGlyph>
    <TTGlyph name="uni00AD" xMin="100" yMin="524" xMax="596" yMax="1274">
      <component glyphName="hyphen" x="0" y="0" flags="0x204"/>
    </TTGlyph>
    <TTGlyph name="uni0964" xMin="398" yMin="0" xMax="563" yMax="1274">
      <contour>
        <pt x="398" y="0" on="1"/>
        <pt x="398" y="1274" on="1"/>
        <pt x="563" y="1274" on="1"/>
        <pt x="563" y="0" on="1"/>
      </contour>
    </TTGlyph>
    <TTGlyph name="uni0965" xMin="398" yMin="0" xMax="1013" yMax="1274">
      <contour>
        <pt x="848" y="0" on="1"/>
        <pt x="848" y="1274" on="1"/>
        <pt x="1013" y="1274" on="1"/>
        <pt x="1013" y="0" on="1"/>
      </contour>
      <contour>
        <pt x="398" y="0" on="1"/>
        <pt x="398" y="1274" on="1"/>
        <pt x="563" y="1274" on="1"/>
        <pt x="563" y="0" on="1"/>
      </contour>
    </TTGlyph>
    <TTGlyph name="uni0A01" xMin="-647" yMin="1274" xMax="116" yMax="1836">
      <contour>
        <pt x="-266" y="1836" on="1"/>
        <pt x="-219" y="1836" on="0"/>
        <pt x="-159" y="1775" on="0"/>
        <pt x="-159" y="1725" on="1"/>
        <pt x="-159" y="1674" on="0"/>
        <pt x="-218" y="1614" on="0"/>
        <pt x="-266" y="1614" on="1"/>
        <pt x="-312" y="1614" on="0"/>
        <pt x="-373" y="1675" on="0"/>
        <pt x="-373" y="1725" on="1"/>
        <pt x="-373" y="1775" on="0"/>
        <pt x="-313" y="1836" on="0"/>
      </contour>
      <contour>
        <pt x="116" y="1758" on="1"/>
        <pt x="94" y="1570" on="0"/>
        <pt x="-101" y="1374" on="0"/>
        <pt x="-264" y="1374" on="1"/>
        <pt x="-432" y="1374" on="0"/>
        <pt x="-631" y="1575" on="0"/>
        <pt x="-647" y="1758" on="1"/>
        <pt x="-499" y="1777" on="1"/>
        <pt x="-484" y="1641" on="0"/>
        <pt x="-372" y="1512" on="0"/>
        <pt x="-266" y="1512" on="1"/>
        <pt x="-159" y="1512" on="0"/>
        <pt x="-46" y="1641" on="0"/>
        <pt x="-32" y="1777" on="1"/>
      </contour>
      <contour>
        <pt x="-183" y="1274" on="1"/>
      </contour>
    </TTGlyph>
    <TTGlyph name="uni0A02" xMin="-379" yMin="1274" xMax="-153" yMax="1836">
      <contour>
        <pt x="-266" y="1710" on="1"/>
        <pt x="-217" y="1710" on="0"/>
        <pt x="-153" y="1645" on="0"/>
        <pt x="-153" y="1593" on="1"/>
        <pt x="-153" y="1540" on="0"/>
        <pt x="-215" y="1476" on="0"/>
        <pt x="-266" y="1476" on="1"/>
        <pt x="-316" y="1476" on="0"/>
        <pt x="-379" y="1541" on="0"/>
        <pt x="-379" y="1593" on="1"/>
        <pt x="-379" y="1645" on="0"/>
        <pt x="-315" y="1710" on="0"/>
      </contour>
      <contour>
        <pt x="-183" y="1274" on="1"/>
      </contour>
      <contour>
        <pt x="-266" y="1836" on="1"/>
      </contour>
    </TTGlyph>
    <TTGlyph name="uni0A03" xMin="126" yMin="0" xMax="704" yMax="1274">
      <contour>
        <pt x="415" y="1274" on="1"/>
        <pt x="547" y="1274" on="0"/>
        <pt x="704" y="1129" on="0"/>
        <pt x="704" y="1007" on="1"/>
        <pt x="704" y="884" on="0"/>
        <pt x="549" y="740" on="0"/>
        <pt x="415" y="740" on="1"/>
        <pt x="283" y="740" on="0"/>
        <pt x="126" y="884" on="0"/>
        <pt x="126" y="1007" on="1"/>
        <pt x="126" y="1126" on="0"/>
        <pt x="284" y="1274" on="0"/>
      </contour>
      <contour>
        <pt x="415" y="870" on="1"/>
        <pt x="480" y="870" on="0"/>
        <pt x="557" y="946" on="0"/>
        <pt x="557" y="1007" on="1"/>
        <pt x="557" y="1068" on="0"/>
        <pt x="480" y="1144" on="0"/>
        <pt x="415" y="1144" on="1"/>
        <pt x="350" y="1144" on="0"/>
        <pt x="273" y="1069" on="0"/>
        <pt x="273" y="1007" on="1"/>
        <pt x="273" y="945" on="0"/>
        <pt x="349" y="870" on="0"/>
      </contour>
      <contour>
        <pt x="415" y="534" on="1"/>
        <pt x="547" y="534" on="0"/>
        <pt x="704" y="389" on="0"/>
        <pt x="704" y="267" on="1"/>
        <pt x="704" y="144" on="0"/>
        <pt x="549" y="0" on="0"/>
        <pt x="415" y="0" on="1"/>
        <pt x="283" y="0" on="0"/>
        <pt x="126" y="144" on="0"/>
        <pt x="126" y="267" on="1"/>
        <pt x="126" y="386" on="0"/>
        <pt x="284" y="534" on="0"/>
      </contour>
      <contour>
        <pt x="415" y="130" on="1"/>
        <pt x="480" y="130" on="0"/>
        <pt x="557" y="206" on="0"/>
        <pt x="557" y="267" on="1"/>
        <pt x="557" y="328" on="0"/>
        <pt x="480" y="404" on="0"/>
        <pt x="415" y="404" on="1"/>
        <pt x="350" y="404" on="0"/>
        <pt x="273" y="329" on="0"/>
        <pt x="273" y="267" on="1"/>
        <pt x="273" y="205" on="0"/>
        <pt x="349" y="130" on="0"/>
      </contour>
    </TTGlyph>
    <TTGlyph name="uni0A05" xMin="-15" yMin="0" xMax="1535" yMax="1274">
      <contour>
        <pt x="1172" y="723" on="1"/>
        <pt x="1087" y="701" on="0"/>
        <pt x="936" y="632" on="0"/>
        <pt x="870" y="584" on="1"/>
        <pt x="867" y="411" on="0"/>
        <pt x="775" y="222" on="0"/>
        <pt x="699" y="222" on="1"/>
        <pt x="599" y="222" on="0"/>
        <pt x="599" y="340" on="1"/>
        <pt x="599" y="414" on="0"/>
        <pt x="671" y="586" on="0"/>
        <pt x="729" y="649" on="1"/>
        <pt x="721" y="752" on="0"/>
        <pt x="688" y="904" on="0"/>
        <pt x="664" y="953" on="1"/>
        <pt x="505" y="894" on="0"/>
        <pt x="386" y="799" on="1"/>
        <pt x="381" y="624" on="0"/>
        <pt x="291" y="435" on="0"/>
        <pt x="212" y="435" on="1"/>
        <pt x="161" y="435" on="0"/>
        <pt x="114" y="494" on="0"/>
        <pt x="114" y="554" on="1"/>
        <pt x="114" y="628" on="0"/>
        <pt x="185" y="798" on="0"/>
        <pt x="242" y="859" on="1"/>
        <pt x="236" y="951" on="0"/>
        <pt x="201" y="1085" on="0"/>
        <pt x="171" y="1128" on="1"/>
        <pt x="-15" y="1128" on="1"/>
        <pt x="-15" y="1274" on="1"/>
        <pt x="295" y="1274" on="1"/>
        <pt x="334" y="1184" on="0"/>
        <pt x="374" y="1023" on="0"/>
        <pt x="374" y="953" on="1"/>
        <pt x="435" y="1006" on="0"/>
        <pt x="656" y="1110" on="0"/>
        <pt x="766" y="1134" on="1"/>
        <pt x="804" y="1071" on="0"/>
        <pt x="858" y="848" on="0"/>
        <pt x="863" y="746" on="1"/>
        <pt x="928" y="791" on="0"/>
        <pt x="1082" y="859" on="0"/>
        <pt x="1172" y="881" on="1"/>
        <pt x="1172" y="1274" on="1"/>
        <pt x="1535" y="1274" on="1"/>
        <pt x="1535" y="1128" on="1"/>
        <pt x="1337" y="1128" on="1"/>
        <pt x="1337" y="0" on="1"/>
        <pt x="1172" y="0" on="1"/>
      </contour>
      <contour>
        <pt x="603" y="0" on="1"/>
      </contour>
      <contour>
        <pt x="766" y="988" on="1"/>
      </contour>
      <contour>
        <pt x="863" y="600" on="1"/>
      </contour>
      <contour>
        <pt x="1172" y="735" on="1"/>
      </contour>
      <contour>
        <pt x="374" y="807" on="1"/>
      </contour>
    </TTGlyph>
    <TTGlyph name="uni0A06" xMin="-15" yMin="0" xMax="2016" yMax="1274">
      <contour>
        <pt x="1172" y="723" on="1"/>
        <pt x="1087" y="701" on="0"/>
        <pt x="936" y="632" on="0"/>
        <pt x="870" y="584" on="1"/>
        <pt x="867" y="411" on="0"/>
        <pt x="775" y="222" on="0"/>
        <pt x="699" y="222" on="1"/>
        <pt x="599" y="222" on="0"/>
        <pt x="599" y="340" on="1"/>
        <pt x="599" y="414" on="0"/>
        <pt x="671" y="586" on="0"/>
        <pt x="729" y="649" on="1"/>
        <pt x="721" y="752" on="0"/>
        <pt x="688" y="904" on="0"/>
        <pt x="664" y="953" on="1"/>
        <pt x="505" y="894" on="0"/>
        <pt x="386" y="799" on="1"/>
        <pt x="381" y="624" on="0"/>
        <pt x="291" y="435" on="0"/>
        <pt x="212" y="435" on="1"/>
        <pt x="161" y="435" on="0"/>
        <pt x="114" y="494" on="0"/>
        <pt x="114" y="554" on="1"/>
        <pt x="114" y="628" on="0"/>
        <pt x="185" y="798" on="0"/>
        <pt x="242" y="859" on="1"/>
        <pt x="236" y="951" on="0"/>
        <pt x="201" y="1085" on="0"/>
        <pt x="171" y="1128" on="1"/>
        <pt x="-15" y="1128" on="1"/>
        <pt x="-15" y="1274" on="1"/>
        <pt x="295" y="1274" on="1"/>
        <pt x="334" y="1184" on="0"/>
        <pt x="374" y="1023" on="0"/>
        <pt x="374" y="953" on="1"/>
        <pt x="435" y="1006" on="0"/>
        <pt x="656" y="1110" on="0"/>
        <pt x="766" y="1134" on="1"/>
        <pt x="804" y="1071" on="0"/>
        <pt x="858" y="848" on="0"/>
        <pt x="863" y="746" on="1"/>
        <pt x="928" y="791" on="0"/>
        <pt x="1082" y="859" on="0"/>
        <pt x="1172" y="881" on="1"/>
        <pt x="1172" y="1274" on="1"/>
        <pt x="2016" y="1274" on="1"/>
        <pt x="2016" y="1128" on="1"/>
        <pt x="1836" y="1128" on="1"/>
        <pt x="1836" y="535" on="1"/>
        <pt x="1671" y="535" on="1"/>
        <pt x="1671" y="1128" on="1"/>
        <pt x="1337" y="1128" on="1"/>
        <pt x="1337" y="0" on="1"/>
        <pt x="1172" y="0" on="1"/>
      </contour>
      <contour>
        <pt x="1836" y="1274" on="1"/>
      </contour>
      <contour>
        <pt x="603" y="0" on="1"/>
      </contour>
      <contour>
        <pt x="766" y="988" on="1"/>
      </contour>
      <contour>
        <pt x="863" y="600" on="1"/>
      </contour>
      <contour>
        <pt x="1172" y="735" on="1"/>
      </contour>
      <contour>
        <pt x="374" y="807" on="1"/>
      </contour>
    </TTGlyph>
    <TTGlyph name="uni0A07" xMin="-15" yMin="0" xMax="1686" yMax="1836">
      <contour>
        <pt x="182" y="1128" on="1"/>
        <pt x="-15" y="1128" on="1"/>
        <pt x="-15" y="1274" on="1"/>
        <pt x="182" y="1274" on="1"/>
        <pt x="182" y="1368" on="1"/>
        <pt x="182" y="1532" on="0"/>
        <pt x="257" y="1723" on="0"/>
        <pt x="425" y="1836" on="0"/>
        <pt x="556" y="1836" on="1"/>
        <pt x="716" y="1836" on="0"/>
        <pt x="900" y="1648" on="0"/>
        <pt x="900" y="1477" on="1"/>
        <pt x="900" y="1423" on="0"/>
        <pt x="887" y="1341" on="1"/>
        <pt x="727" y="1357" on="1"/>
        <pt x="738" y="1416" on="0"/>
        <pt x="738" y="1482" on="1"/>
        <pt x="738" y="1588" on="0"/>
        <pt x="647" y="1692" on="0"/>
        <pt x="554" y="1692" on="1"/>
        <pt x="477" y="1692" on="0"/>
        <pt x="380" y="1612" on="0"/>
        <pt x="347" y="1479" on="0"/>
        <pt x="347" y="1373" on="1"/>
        <pt x="347" y="1274" on="1"/>
        <pt x="1686" y="1274" on="1"/>
        <pt x="1686" y="1128" on="1"/>
        <pt x="1500" y="1128" on="1"/>
        <pt x="1500" y="656" on="1"/>
        <pt x="1440" y="596" on="1"/>
        <pt x="1160" y="596" on="1"/>
        <pt x="1065" y="596" on="0"/>
        <pt x="878" y="499" on="0"/>
        <pt x="797" y="398" on="1"/>
        <pt x="875" y="265" on="0"/>
        <pt x="1045" y="150" on="0"/>
        <pt x="1165" y="150" on="1"/>
        <pt x="1258" y="150" on="0"/>
        <pt x="1415" y="189" on="0"/>
        <pt x="1519" y="239" on="1"/>
        <pt x="1576" y="94" on="1"/>
        <pt x="1386" y="0" on="0"/>
        <pt x="1162" y="0" on="1"/>
        <pt x="977" y="0" on="0"/>
        <pt x="704" y="197" on="0"/>
        <pt x="604" y="409" on="1"/>
        <pt x="656" y="490" on="0"/>
        <pt x="800" y="614" on="0"/>
        <pt x="892" y="657" on="1"/>
        <pt x="766" y="713" on="0"/>
        <pt x="640" y="948" on="0"/>
        <pt x="640" y="1128" on="1"/>
        <pt x="347" y="1128" on="1"/>
        <pt x="347" y="0" on="1"/>
        <pt x="182" y="0" on="1"/>
      </contour>
      <contour>
        <pt x="1335" y="1128" on="1"/>
        <pt x="808" y="1128" on="1"/>
        <pt x="808" y="1004" on="0"/>
        <pt x="870" y="832" on="0"/>
        <pt x="1003" y="741" on="0"/>
        <pt x="1132" y="741" on="1"/>
        <pt x="1335" y="741" on="1"/>
      </contour>
      <contour>
        <pt x="1500" y="1274" on="1"/>
      </contour>
      <contour>
        <pt x="1100" y="0" on="1"/>
      </contour>
    </TTGlyph>
    <TTGlyph name="uni0A08" xMin="-15" yMin="0" xMax="1686" yMax="1836">
      <contour>
        <pt x="1488" y="0" on="1"/>
        <pt x="1323" y="0" on="1"/>
        <pt x="1323" y="1128" on="1"/>
        <pt x="970" y="1128" on="1"/>
        <pt x="970" y="656" on="1"/>
        <pt x="910" y="596" on="1"/>
        <pt x="630" y="596" on="1"/>
        <pt x="535" y="596" on="0"/>
        <pt x="348" y="499" on="0"/>
        <pt x="267" y="398" on="1"/>
        <pt x="345" y="265" on="0"/>
        <pt x="515" y="150" on="0"/>
        <pt x="635" y="150" on="1"/>
        <pt x="728" y="150" on="0"/>
        <pt x="885" y="189" on="0"/>
        <pt x="989" y="239" on="1"/>
        <pt x="1046" y="94" on="1"/>
        <pt x="856" y="0" on="0"/>
        <pt x="632" y="0" on="1"/>
        <pt x="447" y="0" on="0"/>
        <pt x="174" y="197" on="0"/>
        <pt x="74" y="409" on="1"/>
        <pt x="126" y="490" on="0"/>
        <pt x="270" y="614" on="0"/>
        <pt x="362" y="657" on="1"/>
        <pt x="236" y="713" on="0"/>
        <pt x="110" y="948" on="0"/>
        <pt x="110" y="1128" on="1"/>
        <pt x="-15" y="1128" on="1"/>
        <pt x="-15" y="1274" on="1"/>
        <pt x="1323" y="1274" on="1"/>
        <pt x="1323" y="1339" on="1"/>
        <pt x="1323" y="1487" on="0"/>
        <pt x="1289" y="1619" on="0"/>
        <pt x="1202" y="1692" on="0"/>
        <pt x="1128" y="1692" on="1"/>
        <pt x="1029" y="1692" on="0"/>
        <pt x="931" y="1586" on="0"/>
        <pt x="931" y="1476" on="1"/>
        <pt x="931" y="1425" on="0"/>
        <pt x="943" y="1357" on="1"/>
        <pt x="783" y="1341" on="1"/>
        <pt x="769" y="1438" on="0"/>
        <pt x="769" y="1478" on="1"/>
        <pt x="769" y="1644" on="0"/>
        <pt x="965" y="1836" on="0"/>
        <pt x="1133" y="1836" on="1"/>
        <pt x="1269" y="1836" on="0"/>
        <pt x="1430" y="1718" on="0"/>
        <pt x="1488" y="1531" on="0"/>
        <pt x="1488" y="1368" on="1"/>
        <pt x="1488" y="1274" on="1"/>
        <pt x="1686" y="1274" on="1"/>
        <pt x="1686" y="1128" on="1"/>
        <pt x="1488" y="1128" on="1"/>
      </contour>
      <contour>
        <pt x="805" y="1128" on="1"/>
        <pt x="278" y="1128" on="1"/>
        <pt x="278" y="1004" on="0"/>
        <pt x="340" y="832" on="0"/>
        <pt x="473" y="741" on="0"/>
        <pt x="602" y="741" on="1"/>
        <pt x="805" y="741" on="1"/>
      </contour>
      <contour>
        <pt x="570" y="0" on="1"/>
      </contour>
    </TTGlyph>
    <TTGlyph name="uni0A09" xMin="-15" yMin="-555" xMax="1371" yMax="1836">
      <component glyphName="uni0A73" x="0" y="0" flags="0x204"/>
      <component glyphName="uni0A41" x="1312" y="0" flags="0x4"/>
    </TTGlyph>
    <TTGlyph name="uni0A0A" xMin="-15" yMin="-806" xMax="1371" yMax="1836">
      <component glyphName="uni0A73" x="0" y="0" flags="0x204"/>
      <component glyphName="uni0A42" x="1312" y="0" flags="0x4"/>
    </TTGlyph>
    <TTGlyph name="uni0A0F" xMin="-15" yMin="0" xMax="1156" yMax="1836">
      <component glyphName="uni0A72" x="0" y="0" flags="0x200"/>
      <component glyphName="uni0A47" x="1141" y="0" flags="0x4"/>
    </TTGlyph>
    <TTGlyph name="uni0A10" xMin="-15" yMin="0" xMax="1535" yMax="1836">
      <component glyphName="uni0A05" x="0" y="0" flags="0x200"/>
      <component glyphName="uni0A48" x="1520" y="0" flags="0x4"/>
    </TTGlyph>
    <TTGlyph name="uni0A13" xMin="-15" yMin="0" xMax="1371" yMax="1836">
      <contour>
        <pt x="1286" y="1128" on="1"/>
        <pt x="1274" y="940" on="0"/>
        <pt x="1109" y="703" on="0"/>
        <pt x="957" y="654" on="1"/>
        <pt x="1051" y="609" on="0"/>
        <pt x="1153" y="452" on="0"/>
        <pt x="1153" y="359" on="1"/>
        <pt x="1153" y="187" on="0"/>
        <pt x="938" y="0" on="0"/>
        <pt x="736" y="0" on="1"/>
        <pt x="443" y="0" on="0"/>
        <pt x="135" y="438" on="0"/>
        <pt x="135" y="863" on="1"/>
        <pt x="135" y="901" on="1"/>
        <pt x="135" y="1025" on="0"/>
        <pt x="149" y="1128" on="1"/>
        <pt x="-15" y="1128" on="1"/>
        <pt x="-15" y="1274" on="1"/>
        <pt x="177" y="1274" on="1"/>
        <pt x="215" y="1413" on="0"/>
        <pt x="350" y="1591" on="0"/>
        <pt x="534" y="1691" on="0"/>
        <pt x="758" y="1727" on="0"/>
        <pt x="929" y="1727" on="1"/>
        <pt x="1244" y="1727" on="1"/>
        <pt x="1234" y="1581" on="1"/>
        <pt x="949" y="1581" on="1"/>
        <pt x="714" y="1581" on="0"/>
        <pt x="505" y="1518" on="0"/>
        <pt x="381" y="1381" on="0"/>
        <pt x="348" y="1274" on="1"/>
        <pt x="1371" y="1274" on="1"/>
        <pt x="1371" y="1128" on="1"/>
      </contour>
      <contour>
        <pt x="1122" y="1128" on="1"/>
        <pt x="317" y="1128" on="1"/>
        <pt x="303" y="1031" on="0"/>
        <pt x="303" y="888" on="1"/>
        <pt x="303" y="869" on="1"/>
        <pt x="303" y="801" on="0"/>
        <pt x="306" y="741" on="1"/>
        <pt x="575" y="741" on="1"/>
        <pt x="762" y="741" on="0"/>
        <pt x="935" y="781" on="0"/>
        <pt x="1053" y="869" on="0"/>
        <pt x="1118" y="1014" on="0"/>
      </contour>
      <contour>
        <pt x="322" y="595" on="1"/>
        <pt x="356" y="372" on="0"/>
        <pt x="559" y="149" on="0"/>
        <pt x="727" y="149" on="1"/>
        <pt x="859" y="149" on="0"/>
        <pt x="985" y="251" on="0"/>
        <pt x="985" y="361" on="1"/>
        <pt x="985" y="407" on="0"/>
        <pt x="956" y="482" on="0"/>
        <pt x="906" y="531" on="0"/>
        <pt x="815" y="577" on="0"/>
        <pt x="670" y="595" on="0"/>
        <pt x="542" y="595" on="1"/>
      </contour>
      <contour>
        <pt x="684" y="0" on="1"/>
      </contour>
      <contour>
        <pt x="836" y="1836" on="1"/>
      </contour>
    </TTGlyph>
    <TTGlyph name="uni0A14" xMin="-15" yMin="0" xMax="1540" yMax="1836">
      <component glyphName="uni0A05" x="0" y="0" flags="0x200"/>
      <component glyphName="uni0A4C" x="1520" y="0" flags="0x4"/>
    </TTGlyph>
    <TTGlyph name="uni0A15" xMin="-15" yMin="0" xMax="1288" yMax="1274">
      <contour>
        <pt x="1000" y="0" on="1"/>
        <pt x="991" y="119" on="0"/>
        <pt x="949" y="325" on="0"/>
        <pt x="916" y="411" on="1"/>
        <pt x="831" y="302" on="0"/>
        <pt x="604" y="193" on="0"/>
        <pt x="470" y="193" on="1"/>
        <pt x="285" y="193" on="0"/>
        <pt x="72" y="383" on="0"/>
        <pt x="72" y="548" on="1"/>
        <pt x="72" y="711" on="0"/>
        <pt x="296" y="904" on="0"/>
        <pt x="472" y="904" on="1"/>
        <pt x="607" y="904" on="0"/>
        <pt x="819" y="809" on="0"/>
        <pt x="905" y="710" on="1"/>
        <pt x="931" y="804" on="0"/>
        <pt x="931" y="938" on="1"/>
        <pt x="931" y="1029" on="0"/>
        <pt x="911" y="1128" on="1"/>
        <pt x="-15" y="1128" on="1"/>
        <pt x="-15" y="1274" on="1"/>
        <pt x="1288" y="1274" on="1"/>
        <pt x="1288" y="1128" on="1"/>
        <pt x="1077" y="1128" on="1"/>
        <pt x="1083" y="1100" on="0"/>
        <pt x="1096" y="979" on="0"/>
        <pt x="1096" y="939" on="1"/>
        <pt x="1096" y="725" on="0"/>
        <pt x="1011" y="561" on="1"/>
        <pt x="1069" y="462" on="0"/>
        <pt x="1146" y="182" on="0"/>
        <pt x="1166" y="0" on="1"/>
      </contour>
      <contour>
        <pt x="848" y="555" on="1"/>
        <pt x="774" y="656" on="0"/>
        <pt x="593" y="758" on="0"/>
        <pt x="485" y="758" on="1"/>
        <pt x="370" y="758" on="0"/>
        <pt x="240" y="647" on="0"/>
        <pt x="240" y="547" on="1"/>
        <pt x="240" y="450" on="0"/>
        <pt x="364" y="339" on="0"/>
        <pt x="471" y="339" on="1"/>
        <pt x="591" y="339" on="0"/>
        <pt x="779" y="447" on="0"/>
      </contour>
      <contour>
        <pt x="1050" y="1274" on="1"/>
      </contour>
    </TTGlyph>
    <TTGlyph name="uni0A16" xMin="-15" yMin="0" xMax="1239" yMax="1274">
      <contour>
        <pt x="876" y="337" on="1"/>
        <pt x="738" y="271" on="0"/>
        <pt x="581" y="271" on="1"/>
        <pt x="413" y="271" on="0"/>
        <pt x="161" y="476" on="0"/>
        <pt x="78" y="681" on="1"/>
        <pt x="154" y="745" on="0"/>
        <pt x="221" y="869" on="0"/>
        <pt x="221" y="941" on="1"/>
        <pt x="221" y="986" on="0"/>
        <pt x="195" y="1088" on="0"/>
        <pt x="172" y="1128" on="1"/>
        <pt x="-15" y="1128" on="1"/>
        <pt x="-15" y="1274" on="1"/>
        <pt x="290" y="1274" on="1"/>
        <pt x="334" y="1194" on="0"/>
        <pt x="384" y="1020" on="0"/>
        <pt x="384" y="942" on="1"/>
        <pt x="384" y="929" on="1"/>
        <pt x="876" y="929" on="1"/>
        <pt x="876" y="1274" on="1"/>
        <pt x="1239" y="1274" on="1"/>
        <pt x="1239" y="1128" on="1"/>
        <pt x="1041" y="1128" on="1"/>
        <pt x="1041" y="0" on="1"/>
        <pt x="876" y="0" on="1"/>
      </contour>
      <contour>
        <pt x="876" y="513" on="1"/>
        <pt x="876" y="788" on="1"/>
        <pt x="356" y="788" on="1"/>
        <pt x="329" y="722" on="0"/>
        <pt x="271" y="669" on="1"/>
        <pt x="335" y="537" on="0"/>
        <pt x="482" y="421" on="0"/>
        <pt x="582" y="421" on="1"/>
        <pt x="655" y="421" on="0"/>
        <pt x="791" y="461" on="0"/>
      </contour>
    </TTGlyph>
    <TTGlyph name="uni0A17" xMin="-15" yMin="0" xMax="1551" yMax="1274">
      <contour>
        <pt x="718" y="836" on="1"/>
        <pt x="718" y="1128" on="1"/>
        <pt x="-15" y="1128" on="1"/>
        <pt x="-15" y="1274" on="1"/>
        <pt x="1551" y="1274" on="1"/>
        <pt x="1551" y="1128" on="1"/>
        <pt x="1353" y="1128" on="1"/>
        <pt x="1353" y="0" on="1"/>
        <pt x="1188" y="0" on="1"/>
        <pt x="1188" y="1128" on="1"/>
        <pt x="883" y="1128" on="1"/>
        <pt x="883" y="338" on="1"/>
        <pt x="883" y="202" on="0"/>
        <pt x="802" y="65" on="0"/>
        <pt x="669" y="0" on="0"/>
        <pt x="563" y="0" on="1"/>
        <pt x="445" y="0" on="0"/>
        <pt x="232" y="131" on="0"/>
        <pt x="76" y="385" on="0"/>
        <pt x="76" y="528" on="1"/>
        <pt x="76" y="625" on="0"/>
        <pt x="177" y="777" on="0"/>
        <pt x="351" y="836" on="0"/>
        <pt x="506" y="836" on="1"/>
      </contour>
      <contour>
        <pt x="718" y="690" on="1"/>
        <pt x="539" y="690" on="1"/>
        <pt x="418" y="690" on="0"/>
        <pt x="305" y="667" on="0"/>
        <pt x="241" y="590" on="0"/>
        <pt x="241" y="517" on="1"/>
        <pt x="241" y="436" on="0"/>
        <pt x="343" y="251" on="0"/>
        <pt x="488" y="146" on="0"/>
        <pt x="562" y="146" on="1"/>
        <pt x="627" y="146" on="0"/>
        <pt x="689" y="184" on="0"/>
        <pt x="718" y="261" on="0"/>
        <pt x="718" y="360" on="1"/>
      </contour>
    </TTGlyph>
    <TTGlyph name="uni0A18" xMin="-15" yMin="0" xMax="1565" yMax="1274">
      <contour>
        <pt x="1565" y="1274" on="1"/>
        <pt x="1565" y="1128" on="1"/>
        <pt x="1367" y="1128" on="1"/>
        <pt x="1367" y="0" on="1"/>
        <pt x="1202" y="0" on="1"/>
        <pt x="1202" y="307" on="1"/>
        <pt x="1137" y="272" on="0"/>
        <pt x="1052" y="272" on="1"/>
        <pt x="950" y="272" on="0"/>
        <pt x="807" y="364" on="0"/>
        <pt x="767" y="456" on="1"/>
        <pt x="721" y="364" on="0"/>
        <pt x="572" y="272" on="0"/>
        <pt x="470" y="272" on="1"/>
        <pt x="323" y="272" on="0"/>
        <pt x="153" y="452" on="0"/>
        <pt x="78" y="681" on="1"/>
        <pt x="154" y="745" on="0"/>
        <pt x="221" y="869" on="0"/>
        <pt x="221" y="941" on="1"/>
        <pt x="221" y="986" on="0"/>
        <pt x="195" y="1088" on="0"/>
        <pt x="172" y="1128" on="1"/>
        <pt x="-15" y="1128" on="1"/>
        <pt x="-15" y="1274" on="1"/>
        <pt x="290" y="1274" on="1"/>
        <pt x="334" y="1194" on="0"/>
        <pt x="384" y="1020" on="0"/>
        <pt x="384" y="942" on="1"/>
        <pt x="384" y="766" on="0"/>
        <pt x="261" y="661" on="1"/>
        <pt x="294" y="541" on="0"/>
        <pt x="404" y="421" on="0"/>
        <pt x="481" y="421" on="1"/>
        <pt x="561" y="421" on="0"/>
        <pt x="671" y="535" on="0"/>
        <pt x="700" y="650" on="1"/>
        <pt x="667" y="882" on="0"/>
        <pt x="667" y="1042" on="1"/>
        <pt x="667" y="1142" on="0"/>
        <pt x="725" y="1245" on="0"/>
        <pt x="781" y="1245" on="1"/>
        <pt x="838" y="1245" on="0"/>
        <pt x="893" y="1148" on="0"/>
        <pt x="893" y="1041" on="1"/>
        <pt x="893" y="889" on="0"/>
        <pt x="850" y="645" on="1"/>
        <pt x="879" y="533" on="0"/>
        <pt x="987" y="421" on="0"/>
        <pt x="1065" y="421" on="1"/>
        <pt x="1114" y="421" on="0"/>
        <pt x="1178" y="455" on="0"/>
        <pt x="1202" y="486" on="1"/>
        <pt x="1202" y="1274" on="1"/>
      </contour>
    </TTGlyph>
    <TTGlyph name="uni0A19" xMin="-15" yMin="-17" xMax="1200" yMax="1274">
      <contour>
        <pt x="833" y="330" on="1"/>
        <pt x="888" y="379" on="0"/>
        <pt x="944" y="496" on="0"/>
        <pt x="944" y="563" on="1"/>
        <pt x="944" y="627" on="0"/>
        <pt x="882" y="705" on="0"/>
        <pt x="765" y="740" on="0"/>
        <pt x="617" y="740" on="1"/>
        <pt x="243" y="740" on="1"/>
        <pt x="183" y="800" on="1"/>
        <pt x="183" y="1128" on="1"/>
        <pt x="-15" y="1128" on="1"/>
        <pt x="-15" y="1274" on="1"/>
        <pt x="1200" y="1274" on="1"/>
        <pt x="1200" y="1128" on="1"/>
        <pt x="348" y="1128" on="1"/>
        <pt x="348" y="886" on="1"/>
        <pt x="661" y="886" on="1"/>
        <pt x="827" y="886" on="0"/>
        <pt x="1005" y="823" on="0"/>
        <pt x="1109" y="684" on="0"/>
        <pt x="1109" y="569" on="1"/>
        <pt x="1109" y="469" on="0"/>
        <pt x="1010" y="280" on="0"/>
        <pt x="919" y="210" on="1"/>
        <pt x="958" y="151" on="0"/>
        <pt x="1016" y="26" on="1"/>
        <pt x="857" y="-17" on="1"/>
        <pt x="820" y="73" on="0"/>
        <pt x="785" y="132" on="1"/>
        <pt x="716" y="103" on="0"/>
        <pt x="565" y="75" on="0"/>
        <pt x="483" y="75" on="1"/>
        <pt x="288" y="75" on="0"/>
        <pt x="86" y="208" on="0"/>
        <pt x="86" y="335" on="1"/>
        <pt x="86" y="433" on="0"/>
        <pt x="245" y="560" on="0"/>
        <pt x="384" y="560" on="1"/>
        <pt x="512" y="560" on="0"/>
        <pt x="732" y="452" on="0"/>
      </contour>
      <contour>
        <pt x="701" y="253" on="1"/>
        <pt x="632" y="333" on="0"/>
        <pt x="473" y="414" on="0"/>
        <pt x="384" y="414" on="1"/>
        <pt x="318" y="414" on="0"/>
        <pt x="251" y="368" on="0"/>
        <pt x="251" y="328" on="1"/>
        <pt x="251" y="270" on="0"/>
        <pt x="371" y="217" on="0"/>
        <pt x="488" y="217" on="1"/>
        <pt x="546" y="217" on="0"/>
        <pt x="652" y="235" on="0"/>
      </contour>
      <contour>
        <pt x="848" y="0" on="1"/>
      </contour>
    </TTGlyph>
    <TTGlyph name="uni0A1A" xMin="-15" yMin="0" xMax="1360" yMax="1274">
      <contour>
        <pt x="1162" y="1128" on="1"/>
        <pt x="1162" y="353" on="1"/>
        <pt x="1162" y="219" on="0"/>
        <pt x="1076" y="73" on="0"/>
        <pt x="925" y="0" on="0"/>
        <pt x="802" y="0" on="1"/>
        <pt x="560" y="0" on="0"/>
        <pt x="232" y="341" on="0"/>
        <pt x="206" y="596" on="1"/>
        <pt x="171" y="596" on="1"/>
        <pt x="119" y="596" on="0"/>
        <pt x="65" y="637" on="0"/>
        <pt x="65" y="674" on="1"/>
        <pt x="65" y="720" on="0"/>
        <pt x="134" y="829" on="0"/>
        <pt x="241" y="906" on="0"/>
        <pt x="284" y="906" on="1"/>
        <pt x="326" y="906" on="0"/>
        <pt x="372" y="848" on="0"/>
        <pt x="372" y="792" on="1"/>
        <pt x="372" y="741" on="1"/>
        <pt x="997" y="741" on="1"/>
        <pt x="997" y="1128" on="1"/>
        <pt x="-15" y="1128" on="1"/>
        <pt x="-15" y="1274" on="1"/>
        <pt x="1360" y="1274" on="1"/>
        <pt x="1360" y="1128" on="1"/>
      </contour>
      <contour>
        <pt x="997" y="596" on="1"/>
        <pt x="372" y="596" on="1"/>
        <pt x="383" y="475" on="0"/>
        <pt x="508" y="267" on="0"/>
        <pt x="701" y="149" on="0"/>
        <pt x="808" y="149" on="1"/>
        <pt x="891" y="149" on="0"/>
        <pt x="970" y="196" on="0"/>
        <pt x="997" y="285" on="0"/>
        <pt x="997" y="375" on="1"/>
      </contour>
      <contour>
        <pt x="897" y="0" on="1"/>
      </contour>
    </TTGlyph>
    <TTGlyph name="uni0A1B" xMin="-15" yMin="0" xMax="1314" yMax="1274">
      <contour>
        <pt x="803" y="587" on="1"/>
        <pt x="1016" y="587" on="0"/>
        <pt x="1220" y="435" on="0"/>
        <pt x="1220" y="300" on="1"/>
        <pt x="1220" y="142" on="0"/>
        <pt x="942" y="0" on="0"/>
        <pt x="647" y="0" on="1"/>
        <pt x="360" y="0" on="0"/>
        <pt x="95" y="142" on="0"/>
        <pt x="95" y="295" on="1"/>
        <pt x="95" y="358" on="0"/>
        <pt x="172" y="462" on="0"/>
        <pt x="249" y="496" on="1"/>
        <pt x="177" y="528" on="0"/>
        <pt x="105" y="629" on="0"/>
        <pt x="105" y="698" on="1"/>
        <pt x="105" y="775" on="0"/>
        <pt x="199" y="888" on="0"/>
        <pt x="343" y="936" on="0"/>
        <pt x="498" y="936" on="1"/>
        <pt x="929" y="936" on="1"/>
        <pt x="929" y="1128" on="1"/>
        <pt x="-15" y="1128" on="1"/>
        <pt x="-15" y="1274" on="1"/>
        <pt x="1314" y="1274" on="1"/>
        <pt x="1314" y="1128" on="1"/>
        <pt x="1094" y="1128" on="1"/>
        <pt x="1094" y="850" on="1"/>
        <pt x="1034" y="790" on="1"/>
        <pt x="469" y="790" on="1"/>
        <pt x="356" y="790" on="0"/>
        <pt x="270" y="743" on="0"/>
        <pt x="270" y="692" on="1"/>
        <pt x="270" y="638" on="0"/>
        <pt x="362" y="587" on="0"/>
        <pt x="472" y="587" on="1"/>
      </contour>
      <contour>
        <pt x="581" y="140" on="1"/>
        <pt x="581" y="447" on="1"/>
        <pt x="503" y="447" on="1"/>
        <pt x="378" y="447" on="0"/>
        <pt x="259" y="365" on="0"/>
        <pt x="259" y="298" on="1"/>
        <pt x="259" y="217" on="0"/>
        <pt x="419" y="144" on="0"/>
      </contour>
      <contour>
        <pt x="736" y="447" on="1"/>
        <pt x="736" y="140" on="1"/>
        <pt x="903" y="144" on="0"/>
        <pt x="1056" y="219" on="0"/>
        <pt x="1056" y="302" on="1"/>
        <pt x="1056" y="346" on="0"/>
        <pt x="1001" y="410" on="0"/>
        <pt x="893" y="447" on="0"/>
        <pt x="777" y="447" on="1"/>
      </contour>
      <contour>
        <pt x="1094" y="1274" on="1"/>
      </contour>
      <contour>
        <pt x="649" y="0" on="1"/>
      </contour>
      <contour>
        <pt x="921" y="0" on="1"/>
      </contour>
    </TTGlyph>
    <TTGlyph name="uni0A1C" xMin="-15" yMin="0" xMax="1268" yMax="1274">
      <contour>
        <pt x="382" y="741" on="1"/>
        <pt x="905" y="741" on="1"/>
        <pt x="905" y="1128" on="1"/>
        <pt x="-15" y="1128" on="1"/>
        <pt x="-15" y="1274" on="1"/>
        <pt x="1268" y="1274" on="1"/>
        <pt x="1268" y="1128" on="1"/>
        <pt x="1070" y="1128" on="1"/>
        <pt x="1070" y="0" on="1"/>
        <pt x="905" y="0" on="1"/>
        <pt x="905" y="596" on="1"/>
        <pt x="382" y="596" on="1"/>
        <pt x="382" y="0" on="1"/>
        <pt x="217" y="0" on="1"/>
        <pt x="217" y="596" on="1"/>
        <pt x="181" y="596" on="1"/>
        <pt x="129" y="596" on="0"/>
        <pt x="75" y="637" on="0"/>
        <pt x="75" y="674" on="1"/>
        <pt x="75" y="720" on="0"/>
        <pt x="144" y="829" on="0"/>
        <pt x="251" y="906" on="0"/>
        <pt x="294" y="906" on="1"/>
        <pt x="336" y="906" on="0"/>
        <pt x="382" y="848" on="0"/>
        <pt x="382" y="792" on="1"/>
      </contour>
    </TTGlyph>
    <TTGlyph name="uni0A1D" xMin="-15" yMin="-28" xMax="1231" yMax="1274">
      <contour>
        <pt x="594" y="310" on="1"/>
        <pt x="765" y="323" on="0"/>
        <pt x="937" y="428" on="0"/>
        <pt x="937" y="520" on="1"/>
        <pt x="937" y="614" on="0"/>
        <pt x="769" y="700" on="0"/>
        <pt x="580" y="700" on="1"/>
        <pt x="353" y="700" on="0"/>
        <pt x="113" y="620" on="1"/>
        <pt x="62" y="756" on="1"/>
        <pt x="184" y="795" on="0"/>
        <pt x="329" y="820" on="1"/>
        <pt x="266" y="871" on="0"/>
        <pt x="192" y="1025" on="0"/>
        <pt x="180" y="1128" on="1"/>
        <pt x="-15" y="1128" on="1"/>
        <pt x="-15" y="1274" on="1"/>
        <pt x="1231" y="1274" on="1"/>
        <pt x="1231" y="1128" on="1"/>
        <pt x="1050" y="1128" on="1"/>
        <pt x="1035" y="1016" on="0"/>
        <pt x="950" y="854" on="0"/>
        <pt x="879" y="804" on="1"/>
        <pt x="992" y="766" on="0"/>
        <pt x="1106" y="624" on="0"/>
        <pt x="1106" y="520" on="1"/>
        <pt x="1106" y="392" on="0"/>
        <pt x="919" y="219" on="0"/>
        <pt x="741" y="185" on="1"/>
        <pt x="815" y="139" on="0"/>
        <pt x="885" y="78" on="1"/>
        <pt x="772" y="-28" on="1"/>
        <pt x="630" y="104" on="0"/>
        <pt x="538" y="156" on="1"/>
        <pt x="499" y="153" on="0"/>
        <pt x="420" y="153" on="1"/>
        <pt x="301" y="153" on="0"/>
        <pt x="169" y="219" on="0"/>
        <pt x="169" y="277" on="1"/>
        <pt x="169" y="323" on="0"/>
        <pt x="252" y="373" on="0"/>
        <pt x="327" y="373" on="1"/>
        <pt x="390" y="373" on="0"/>
        <pt x="509" y="348" on="0"/>
      </contour>
      <contour>
        <pt x="619" y="843" on="1"/>
        <pt x="668" y="843" on="0"/>
        <pt x="783" y="884" on="0"/>
        <pt x="867" y="1009" on="0"/>
        <pt x="883" y="1128" on="1"/>
        <pt x="347" y="1128" on="1"/>
        <pt x="356" y="1048" on="0"/>
        <pt x="403" y="935" on="0"/>
        <pt x="482" y="867" on="0"/>
        <pt x="569" y="843" on="0"/>
      </contour>
      <contour>
        <pt x="420" y="299" on="1"/>
      </contour>
      <contour>
        <pt x="892" y="118" on="1"/>
      </contour>
    </TTGlyph>
    <TTGlyph name="uni0A1E" xMin="-15" yMin="0" xMax="1177" yMax="1274">
      <contour>
        <pt x="1009" y="548" on="1"/>
        <pt x="1009" y="402" on="1"/>
        <pt x="590" y="402" on="1"/>
        <pt x="474" y="402" on="0"/>
        <pt x="398" y="341" on="0"/>
        <pt x="398" y="289" on="1"/>
        <pt x="398" y="218" on="0"/>
        <pt x="530" y="148" on="0"/>
        <pt x="663" y="148" on="1"/>
        <pt x="830" y="148" on="0"/>
        <pt x="983" y="196" on="1"/>
        <pt x="1027" y="46" on="1"/>
        <pt x="860" y="0" on="0"/>
        <pt x="643" y="0" on="1"/>
        <pt x="444" y="0" on="0"/>
        <pt x="233" y="146" on="0"/>
        <pt x="233" y="274" on="1"/>
        <pt x="233" y="368" on="0"/>
        <pt x="304" y="425" on="1"/>
        <pt x="203" y="449" on="0"/>
        <pt x="76" y="576" on="0"/>
        <pt x="76" y="688" on="1"/>
        <pt x="76" y="781" on="0"/>
        <pt x="185" y="901" on="0"/>
        <pt x="286" y="921" on="1"/>
        <pt x="220" y="1037" on="0"/>
        <pt x="151" y="1128" on="1"/>
        <pt x="-15" y="1128" on="1"/>
        <pt x="-15" y="1274" on="1"/>
        <pt x="1177" y="1274" on="1"/>
        <pt x="1177" y="1128" on="1"/>
        <pt x="979" y="1128" on="1"/>
        <pt x="979" y="848" on="1"/>
        <pt x="919" y="788" on="1"/>
        <pt x="436" y="788" on="1"/>
        <pt x="365" y="788" on="0"/>
        <pt x="285" y="771" on="0"/>
        <pt x="241" y="720" on="0"/>
        <pt x="241" y="682" on="1"/>
        <pt x="241" y="628" on="0"/>
        <pt x="311" y="570" on="0"/>
        <pt x="439" y="548" on="0"/>
        <pt x="579" y="548" on="1"/>
      </contour>
      <contour>
        <pt x="348" y="1128" on="1"/>
        <pt x="416" y="1024" on="0"/>
        <pt x="460" y="934" on="1"/>
        <pt x="814" y="934" on="1"/>
        <pt x="814" y="1128" on="1"/>
      </contour>
      <contour>
        <pt x="598" y="0" on="1"/>
      </contour>
    </TTGlyph>
    <TTGlyph name="uni0A1F" xMin="-15" yMin="0" xMax="1193" yMax="1274">
      <contour>
        <pt x="830" y="863" on="1"/>
        <pt x="830" y="1128" on="1"/>
        <pt x="-15" y="1128" on="1"/>
        <pt x="-15" y="1274" on="1"/>
        <pt x="1193" y="1274" on="1"/>
        <pt x="1193" y="1128" on="1"/>
        <pt x="995" y="1128" on="1"/>
        <pt x="995" y="777" on="1"/>
        <pt x="935" y="717" on="1"/>
        <pt x="857" y="717" on="1"/>
        <pt x="705" y="717" on="0"/>
        <pt x="562" y="701" on="0"/>
        <pt x="443" y="648" on="0"/>
        <pt x="328" y="552" on="0"/>
        <pt x="257" y="465" on="1"/>
        <pt x="343" y="296" on="0"/>
        <pt x="534" y="150" on="0"/>
        <pt x="660" y="150" on="1"/>
        <pt x="758" y="150" on="0"/>
        <pt x="913" y="190" on="0"/>
        <pt x="1044" y="250" on="1"/>
        <pt x="1101" y="105" on="1"/>
        <pt x="979" y="48" on="0"/>
        <pt x="775" y="0" on="0"/>
        <pt x="660" y="0" on="1"/>
        <pt x="464" y="0" on="0"/>
        <pt x="186" y="222" on="0"/>
        <pt x="70" y="479" on="1"/>
        <pt x="201" y="651" on="0"/>
        <pt x="409" y="809" on="0"/>
        <pt x="606" y="863" on="0"/>
        <pt x="757" y="863" on="1"/>
      </contour>
      <contour>
        <pt x="597" y="0" on="1"/>
      </contour>
    </TTGlyph>
    <TTGlyph name="uni0A20" xMin="-15" yMin="0" xMax="1367" yMax="1274">
      <contour>
        <pt x="594" y="898" on="1"/>
        <pt x="594" y="1128" on="1"/>
        <pt x="-15" y="1128" on="1"/>
        <pt x="-15" y="1274" on="1"/>
        <pt x="1367" y="1274" on="1"/>
        <pt x="1367" y="1128" on="1"/>
        <pt x="758" y="1128" on="1"/>
        <pt x="758" y="898" on="1"/>
        <pt x="1007" y="840" on="0"/>
        <pt x="1272" y="574" on="0"/>
        <pt x="1272" y="413" on="1"/>
        <pt x="1272" y="208" on="0"/>
        <pt x="971" y="0" on="0"/>
        <pt x="676" y="0" on="1"/>
        <pt x="383" y="0" on="0"/>
        <pt x="80" y="209" on="0"/>
        <pt x="80" y="413" on="1"/>
        <pt x="80" y="577" on="0"/>
        <pt x="348" y="840" on="0"/>
      </contour>
      <contour>
        <pt x="676" y="775" on="1"/>
        <pt x="467" y="727" on="0"/>
        <pt x="244" y="533" on="0"/>
        <pt x="244" y="408" on="1"/>
        <pt x="244" y="279" on="0"/>
        <pt x="451" y="150" on="0"/>
        <pt x="676" y="150" on="1"/>
        <pt x="899" y="150" on="0"/>
        <pt x="1108" y="281" on="0"/>
        <pt x="1108" y="410" on="1"/>
        <pt x="1108" y="532" on="0"/>
        <pt x="882" y="727" on="0"/>
      </contour>
      <contour>
        <pt x="758" y="1274" on="1"/>
      </contour>
      <contour>
        <pt x="914" y="0" on="1"/>
      </contour>
      <contour>
        <pt x="664" y="752" on="1"/>
      </contour>
    </TTGlyph>
    <TTGlyph name="uni0A21" xMin="-15" yMin="0" xMax="1238" yMax="1274">
      <contour>
        <pt x="856" y="223" on="1"/>
        <pt x="900" y="257" on="0"/>
        <pt x="944" y="352" on="0"/>
        <pt x="944" y="414" on="1"/>
        <pt x="944" y="496" on="0"/>
        <pt x="823" y="631" on="0"/>
        <pt x="714" y="663" on="1"/>
        <pt x="589" y="639" on="0"/>
        <pt x="484" y="639" on="1"/>
        <pt x="255" y="639" on="0"/>
        <pt x="255" y="755" on="1"/>
        <pt x="255" y="859" on="0"/>
        <pt x="434" y="859" on="1"/>
        <pt x="582" y="859" on="0"/>
        <pt x="731" y="805" on="1"/>
        <pt x="813" y="840" on="0"/>
        <pt x="895" y="969" on="0"/>
        <pt x="895" y="1062" on="1"/>
        <pt x="895" y="1100" on="0"/>
        <pt x="891" y="1128" on="1"/>
        <pt x="-15" y="1128" on="1"/>
        <pt x="-15" y="1274" on="1"/>
        <pt x="1238" y="1274" on="1"/>
        <pt x="1238" y="1128" on="1"/>
        <pt x="1055" y="1128" on="1"/>
        <pt x="1061" y="1092" on="0"/>
        <pt x="1061" y="1061" on="1"/>
        <pt x="1061" y="953" on="0"/>
        <pt x="979" y="797" on="0"/>
        <pt x="884" y="741" on="1"/>
        <pt x="1002" y="680" on="0"/>
        <pt x="1113" y="516" on="0"/>
        <pt x="1113" y="405" on="1"/>
        <pt x="1113" y="213" on="0"/>
        <pt x="794" y="0" on="0"/>
        <pt x="510" y="0" on="1"/>
        <pt x="295" y="0" on="0"/>
        <pt x="72" y="133" on="0"/>
        <pt x="72" y="260" on="1"/>
        <pt x="72" y="358" on="0"/>
        <pt x="227" y="485" on="0"/>
        <pt x="365" y="485" on="1"/>
        <pt x="507" y="485" on="0"/>
        <pt x="761" y="349" on="0"/>
      </contour>
      <contour>
        <pt x="718" y="162" on="1"/>
        <pt x="634" y="250" on="0"/>
        <pt x="462" y="339" on="0"/>
        <pt x="373" y="339" on="1"/>
        <pt x="304" y="339" on="0"/>
        <pt x="237" y="295" on="0"/>
        <pt x="237" y="255" on="1"/>
        <pt x="237" y="198" on="0"/>
        <pt x="372" y="142" on="0"/>
        <pt x="507" y="142" on="1"/>
        <pt x="572" y="142" on="0"/>
        <pt x="677" y="152" on="0"/>
      </contour>
      <contour>
        <pt x="576" y="0" on="1"/>
      </contour>
      <contour>
        <pt x="795" y="0" on="1"/>
      </contour>
    </TTGlyph>
    <TTGlyph name="uni0A22" xMin="-15" yMin="0" xMax="1338" yMax="1274">
      <contour>
        <pt x="207" y="656" on="1"/>
        <pt x="171" y="656" on="1"/>
        <pt x="119" y="656" on="0"/>
        <pt x="65" y="697" on="0"/>
        <pt x="65" y="734" on="1"/>
        <pt x="65" y="780" on="0"/>
        <pt x="134" y="889" on="0"/>
        <pt x="241" y="966" on="0"/>
        <pt x="284" y="966" on="1"/>
        <pt x="326" y="966" on="0"/>
        <pt x="372" y="908" on="0"/>
        <pt x="372" y="852" on="1"/>
        <pt x="372" y="801" on="1"/>
        <pt x="975" y="801" on="1"/>
        <pt x="975" y="1128" on="1"/>
        <pt x="-15" y="1128" on="1"/>
        <pt x="-15" y="1274" on="1"/>
        <pt x="1338" y="1274" on="1"/>
        <pt x="1338" y="1128" on="1"/>
        <pt x="1140" y="1128" on="1"/>
        <pt x="1140" y="716" on="1"/>
        <pt x="1080" y="656" on="1"/>
        <pt x="372" y="656" on="1"/>
        <pt x="372" y="634" on="1"/>
        <pt x="372" y="518" on="0"/>
        <pt x="431" y="338" on="0"/>
        <pt x="491" y="274" on="1"/>
        <pt x="589" y="379" on="0"/>
        <pt x="818" y="485" on="0"/>
        <pt x="949" y="485" on="1"/>
        <pt x="1085" y="485" on="0"/>
        <pt x="1238" y="359" on="0"/>
        <pt x="1238" y="260" on="1"/>
        <pt x="1238" y="133" on="0"/>
        <pt x="1029" y="0" on="0"/>
        <pt x="826" y="0" on="1"/>
        <pt x="635" y="0" on="0"/>
        <pt x="355" y="159" on="0"/>
        <pt x="207" y="452" on="0"/>
        <pt x="207" y="638" on="1"/>
      </contour>
      <contour>
        <pt x="606" y="191" on="1"/>
        <pt x="655" y="166" on="0"/>
        <pt x="770" y="142" on="0"/>
        <pt x="835" y="142" on="1"/>
        <pt x="956" y="142" on="0"/>
        <pt x="1073" y="195" on="0"/>
        <pt x="1073" y="253" on="1"/>
        <pt x="1073" y="293" on="0"/>
        <pt x="1004" y="339" on="0"/>
        <pt x="934" y="339" on="1"/>
        <pt x="849" y="339" on="0"/>
        <pt x="685" y="265" on="0"/>
      </contour>
    </TTGlyph>
    <TTGlyph name="uni0A23" xMin="-15" yMin="0" xMax="1289" yMax="1274">
      <contour>
        <pt x="702" y="747" on="1"/>
        <pt x="763" y="869" on="1"/>
        <pt x="565" y="990" on="0"/>
        <pt x="417" y="1128" on="1"/>
        <pt x="-15" y="1128" on="1"/>
        <pt x="-15" y="1274" on="1"/>
        <pt x="1289" y="1274" on="1"/>
        <pt x="1289" y="1128" on="1"/>
        <pt x="636" y="1128" on="1"/>
        <pt x="851" y="965" on="0"/>
        <pt x="1202" y="815" on="1"/>
        <pt x="1130" y="675" on="1"/>
        <pt x="1004" y="732" on="0"/>
        <pt x="899" y="790" on="1"/>
        <pt x="813" y="621" on="1"/>
        <pt x="737" y="589" on="1"/>
        <pt x="663" y="619" on="0"/>
        <pt x="579" y="619" on="1"/>
        <pt x="493" y="619" on="0"/>
        <pt x="351" y="543" on="0"/>
        <pt x="260" y="437" on="1"/>
        <pt x="361" y="271" on="0"/>
        <pt x="568" y="150" on="0"/>
        <pt x="713" y="150" on="1"/>
        <pt x="826" y="150" on="0"/>
        <pt x="1000" y="190" on="0"/>
        <pt x="1149" y="250" on="1"/>
        <pt x="1206" y="105" on="1"/>
        <pt x="1074" y="48" on="0"/>
        <pt x="848" y="0" on="0"/>
        <pt x="720" y="0" on="1"/>
        <pt x="491" y="0" on="0"/>
        <pt x="193" y="199" on="0"/>
        <pt x="70" y="449" on="1"/>
        <pt x="208" y="627" on="0"/>
        <pt x="434" y="768" on="0"/>
        <pt x="565" y="768" on="1"/>
        <pt x="637" y="768" on="0"/>
      </contour>
    </TTGlyph>
    <TTGlyph name="uni0A24" xMin="-15" yMin="0" xMax="1125" yMax="1274">
      <contour>
        <pt x="26" y="132" on="1"/>
        <pt x="93" y="282" on="1"/>
        <pt x="191" y="218" on="0"/>
        <pt x="394" y="149" on="0"/>
        <pt x="508" y="149" on="1"/>
        <pt x="660" y="149" on="0"/>
        <pt x="831" y="271" on="0"/>
        <pt x="831" y="387" on="1"/>
        <pt x="831" y="479" on="0"/>
        <pt x="716" y="617" on="0"/>
        <pt x="602" y="663" on="1"/>
        <pt x="477" y="639" on="0"/>
        <pt x="371" y="639" on="1"/>
        <pt x="142" y="639" on="0"/>
        <pt x="142" y="755" on="1"/>
        <pt x="142" y="859" on="0"/>
        <pt x="321" y="859" on="1"/>
        <pt x="469" y="859" on="0"/>
        <pt x="618" y="805" on="1"/>
        <pt x="700" y="838" on="0"/>
        <pt x="782" y="959" on="0"/>
        <pt x="782" y="1048" on="1"/>
        <pt x="782" y="1092" on="0"/>
        <pt x="775" y="1128" on="1"/>
        <pt x="-15" y="1128" on="1"/>
        <pt x="-15" y="1274" on="1"/>
        <pt x="1125" y="1274" on="1"/>
        <pt x="1125" y="1128" on="1"/>
        <pt x="942" y="1128" on="1"/>
        <pt x="948" y="1085" on="0"/>
        <pt x="948" y="1046" on="1"/>
        <pt x="948" y="941" on="0"/>
        <pt x="868" y="796" on="0"/>
        <pt x="772" y="741" on="1"/>
        <pt x="894" y="674" on="0"/>
        <pt x="1000" y="500" on="0"/>
        <pt x="1000" y="385" on="1"/>
        <pt x="1000" y="206" on="0"/>
        <pt x="735" y="0" on="0"/>
        <pt x="512" y="0" on="1"/>
        <pt x="381" y="0" on="0"/>
        <pt x="138" y="66" on="0"/>
      </contour>
      <contour>
        <pt x="702" y="0" on="1"/>
      </contour>
    </TTGlyph>
    <TTGlyph name="uni0A25" xMin="-15" yMin="0" xMax="1239" yMax="1274">
      <contour>
        <pt x="876" y="338" on="1"/>
        <pt x="796" y="300" on="0"/>
        <pt x="659" y="271" on="0"/>
        <pt x="581" y="271" on="1"/>
        <pt x="413" y="271" on="0"/>
        <pt x="161" y="476" on="0"/>
        <pt x="78" y="681" on="1"/>
        <pt x="154" y="745" on="0"/>
        <pt x="221" y="869" on="0"/>
        <pt x="221" y="941" on="1"/>
        <pt x="221" y="986" on="0"/>
        <pt x="195" y="1088" on="0"/>
        <pt x="172" y="1128" on="1"/>
        <pt x="-15" y="1128" on="1"/>
        <pt x="-15" y="1274" on="1"/>
        <pt x="1239" y="1274" on="1"/>
        <pt x="1239" y="1128" on="1"/>
        <pt x="1041" y="1128" on="1"/>
        <pt x="1041" y="0" on="1"/>
        <pt x="876" y="0" on="1"/>
      </contour>
      <contour>
        <pt x="347" y="1128" on="1"/>
        <pt x="384" y="1030" on="0"/>
        <pt x="384" y="942" on="1"/>
        <pt x="384" y="907" on="0"/>
        <pt x="379" y="872" on="1"/>
        <pt x="876" y="872" on="1"/>
        <pt x="876" y="1128" on="1"/>
      </contour>
      <contour>
        <pt x="876" y="513" on="1"/>
        <pt x="876" y="731" on="1"/>
        <pt x="325" y="731" on="1"/>
        <pt x="306" y="702" on="0"/>
        <pt x="271" y="669" on="1"/>
        <pt x="335" y="537" on="0"/>
        <pt x="482" y="421" on="0"/>
        <pt x="582" y="421" on="1"/>
        <pt x="655" y="421" on="0"/>
        <pt x="791" y="461" on="0"/>
      </contour>
    </TTGlyph>
    <TTGlyph name="uni0A26" xMin="-15" yMin="0" xMax="1278" yMax="1274">
      <contour>
        <pt x="372" y="741" on="1"/>
        <pt x="915" y="741" on="1"/>
        <pt x="915" y="1128" on="1"/>
        <pt x="-15" y="1128" on="1"/>
        <pt x="-15" y="1274" on="1"/>
        <pt x="1278" y="1274" on="1"/>
        <pt x="1278" y="1128" on="1"/>
        <pt x="1080" y="1128" on="1"/>
        <pt x="1080" y="656" on="1"/>
        <pt x="1020" y="596" on="1"/>
        <pt x="372" y="596" on="1"/>
        <pt x="373" y="373" on="0"/>
        <pt x="565" y="150" on="0"/>
        <pt x="756" y="150" on="1"/>
        <pt x="852" y="150" on="0"/>
        <pt x="1021" y="195" on="0"/>
        <pt x="1110" y="240" on="1"/>
        <pt x="1167" y="94" on="1"/>
        <pt x="980" y="0" on="0"/>
        <pt x="753" y="0" on="1"/>
        <pt x="490" y="0" on="0"/>
        <pt x="207" y="302" on="0"/>
        <pt x="207" y="574" on="1"/>
        <pt x="207" y="596" on="1"/>
        <pt x="171" y="596" on="1"/>
        <pt x="119" y="596" on="0"/>
        <pt x="65" y="637" on="0"/>
        <pt x="65" y="674" on="1"/>
        <pt x="65" y="720" on="0"/>
        <pt x="134" y="829" on="0"/>
        <pt x="241" y="906" on="0"/>
        <pt x="284" y="906" on="1"/>
        <pt x="326" y="906" on="0"/>
        <pt x="372" y="848" on="0"/>
        <pt x="372" y="792" on="1"/>
      </contour>
    </TTGlyph>
    <TTGlyph name="uni0A27" xMin="-15" yMin="0" xMax="1229" yMax="1274">
      <contour>
        <pt x="866" y="333" on="1"/>
        <pt x="731" y="271" on="0"/>
        <pt x="581" y="271" on="1"/>
        <pt x="413" y="271" on="0"/>
        <pt x="161" y="476" on="0"/>
        <pt x="78" y="681" on="1"/>
        <pt x="154" y="745" on="0"/>
        <pt x="221" y="869" on="0"/>
        <pt x="221" y="941" on="1"/>
        <pt x="221" y="986" on="0"/>
        <pt x="195" y="1088" on="0"/>
        <pt x="172" y="1128" on="1"/>
        <pt x="-15" y="1128" on="1"/>
        <pt x="-15" y="1274" on="1"/>
        <pt x="1229" y="1274" on="1"/>
        <pt x="1229" y="1128" on="1"/>
        <pt x="1031" y="1128" on="1"/>
        <pt x="1031" y="0" on="1"/>
        <pt x="866" y="0" on="1"/>
      </contour>
      <contour>
        <pt x="347" y="1128" on="1"/>
        <pt x="384" y="1030" on="0"/>
        <pt x="384" y="942" on="1"/>
        <pt x="384" y="771" on="0"/>
        <pt x="271" y="669" on="1"/>
        <pt x="335" y="537" on="0"/>
        <pt x="482" y="421" on="0"/>
        <pt x="582" y="421" on="1"/>
        <pt x="659" y="421" on="0"/>
        <pt x="796" y="465" on="0"/>
        <pt x="866" y="507" on="1"/>
        <pt x="866" y="1128" on="1"/>
      </contour>
    </TTGlyph>
    <TTGlyph name="uni0A28" xMin="-15" yMin="0" xMax="1343" yMax="1274">
      <contour>
        <pt x="664" y="775" on="1"/>
        <pt x="460" y="723" on="0"/>
        <pt x="244" y="527" on="0"/>
        <pt x="244" y="399" on="1"/>
        <pt x="244" y="277" on="0"/>
        <pt x="376" y="149" on="0"/>
        <pt x="501" y="149" on="1"/>
        <pt x="491" y="0" on="1"/>
        <pt x="360" y="0" on="0"/>
        <pt x="176" y="102" on="0"/>
        <pt x="80" y="289" on="0"/>
        <pt x="80" y="397" on="1"/>
        <pt x="80" y="567" on="0"/>
        <pt x="341" y="834" on="0"/>
        <pt x="582" y="898" on="1"/>
        <pt x="582" y="1128" on="1"/>
        <pt x="-15" y="1128" on="1"/>
        <pt x="-15" y="1274" on="1"/>
        <pt x="1343" y="1274" on="1"/>
        <pt x="1343" y="1128" on="1"/>
        <pt x="746" y="1128" on="1"/>
        <pt x="746" y="898" on="1"/>
        <pt x="988" y="834" on="0"/>
        <pt x="1248" y="567" on="0"/>
        <pt x="1248" y="397" on="1"/>
        <pt x="1248" y="291" on="0"/>
        <pt x="1155" y="105" on="0"/>
        <pt x="970" y="0" on="0"/>
        <pt x="837" y="0" on="1"/>
        <pt x="827" y="149" on="1"/>
        <pt x="952" y="149" on="0"/>
        <pt x="1084" y="277" on="0"/>
        <pt x="1084" y="399" on="1"/>
        <pt x="1084" y="527" on="0"/>
        <pt x="868" y="723" on="0"/>
      </contour>
      <contour>
        <pt x="746" y="1274" on="1"/>
      </contour>
      <contour>
        <pt x="664" y="0" on="1"/>
      </contour>
      <contour>
        <pt x="930" y="0" on="1"/>
      </contour>
      <contour>
        <pt x="662" y="752" on="1"/>
      </contour>
    </TTGlyph>
</ttFont>
